<svg id="accounting" xmlns="http://www.w3.org/2000/svg" width="51.975" height="52" viewBox="0 0 51.975 52">
    <defs>
        <style>
            .cls-1{fill:rgba(0,84,80,.5)}
        </style>
    </defs>
    <path id="Path_388" data-name="Path 388" class="cls-1" d="M112.667 288a8.667 8.667 0 1 0 8.667 8.667 8.667 8.667 0 0 0-8.667-8.667zm0 15.6a6.933 6.933 0 1 1 6.933-6.933 6.933 6.933 0 0 1-6.933 6.933zm0 0" transform="translate(-92.733 -256.8)"/>
    <path id="Path_389" data-name="Path 389" class="cls-1" d="M155.467 322.6c1.058 0 1.733.513 1.733.867h1.733a2.829 2.829 0 0 0-2.6-2.513V320H154.6v.953a2.826 2.826 0 0 0-2.6 2.513c0 1.459 1.523 2.6 3.467 2.6 1.058 0 1.733.513 1.733.867s-.675.867-1.733.867-1.733-.513-1.733-.867H152a2.829 2.829 0 0 0 2.6 2.513v.953h1.733v-.953a2.826 2.826 0 0 0 2.6-2.513c0-1.459-1.523-2.6-3.467-2.6-1.058 0-1.733-.513-1.733-.867s.675-.866 1.734-.866zm0 0" transform="translate(-135.533 -285.333)"/>
    <path id="Path_390" data-name="Path 390" class="cls-1" d="M44.2 50.267H7.8v-20.8h13.867a2.6 2.6 0 0 0 2.6-2.6V5.2H33.8v10.4h10.4v12.133h1.733V14.374L35.026 3.467H24.267V2.6a2.6 2.6 0 0 0-2.6-2.6H2.6A2.6 2.6 0 0 0 0 2.6v24.267a2.6 2.6 0 0 0 2.6 2.6h3.467V52h39.866V39.867H44.2zM35.533 6.426l7.441 7.441h-7.441zm-33.8 20.441V2.6a.867.867 0 0 1 .867-.867h19.067a.867.867 0 0 1 .867.867v24.267a.867.867 0 0 1-.867.867H2.6a.867.867 0 0 1-.867-.867zm0 0"/>
    <path id="Path_391" data-name="Path 391" class="cls-1" d="M256 200h1.733v1.733H256zm0 0" transform="translate(-228.267 -178.333)"/>
    <path id="Path_392" data-name="Path 392" class="cls-1" d="M288 200h10.4v1.733H288zm0 0" transform="translate(-256.8 -178.333)"/>
    <path id="Path_393" data-name="Path 393" class="cls-1" d="M256 168h1.733v1.733H256zm0 0" transform="translate(-228.267 -149.8)"/>
    <path id="Path_394" data-name="Path 394" class="cls-1" d="M288 168h10.4v1.733H288zm0 0" transform="translate(-256.8 -149.8)"/>
    <path id="Path_395" data-name="Path 395" class="cls-1" d="M256 232h1.733v1.733H256zm0 0" transform="translate(-228.267 -206.867)"/>
    <path id="Path_396" data-name="Path 396" class="cls-1" d="M288 232h10.4v1.733H288zm0 0" transform="translate(-256.8 -206.867)"/>
    <path id="Path_397" data-name="Path 397" class="cls-1" d="M256 264h1.733v1.733H256zm0 0" transform="translate(-228.267 -235.4)"/>
    <path id="Path_398" data-name="Path 398" class="cls-1" d="M288 264h10.4v1.733H288zm0 0" transform="translate(-256.8 -235.4)"/>
    <path id="Path_399" data-name="Path 399" class="cls-1" d="M43.067 24H24v6.067h19.067zm-1.733 4.333h-15.6v-2.6h15.6zm0 0" transform="translate(-21.4 -21.4)"/>
    <path id="Path_400" data-name="Path 400" class="cls-1" d="M35.467 88h-1.734A1.733 1.733 0 0 0 32 89.733v1.733a1.733 1.733 0 0 0 1.733 1.734h1.733a1.733 1.733 0 0 0 1.734-1.733v-1.734A1.733 1.733 0 0 0 35.467 88zm-1.733 3.467v-1.734h1.733v1.733zm0 0" transform="translate(-28.533 -78.467)"/>
    <path id="Path_401" data-name="Path 401" class="cls-1" d="M91.467 88h-1.734A1.733 1.733 0 0 0 88 89.733v1.733a1.733 1.733 0 0 0 1.733 1.734h1.733a1.733 1.733 0 0 0 1.734-1.733v-1.734A1.733 1.733 0 0 0 91.467 88zm-1.733 3.467v-1.734h1.733v1.733zm0 0" transform="translate(-78.467 -78.467)"/>
    <path id="Path_402" data-name="Path 402" class="cls-1" d="M147.467 88h-1.733A1.733 1.733 0 0 0 144 89.733v1.733a1.733 1.733 0 0 0 1.733 1.733h1.733a1.733 1.733 0 0 0 1.733-1.733v-1.733A1.733 1.733 0 0 0 147.467 88zm-1.733 3.467v-1.734h1.733v1.733zm0 0" transform="translate(-128.4 -78.467)"/>
    <path id="Path_403" data-name="Path 403" class="cls-1" d="M35.467 144h-1.734A1.733 1.733 0 0 0 32 145.733v1.733a1.733 1.733 0 0 0 1.733 1.733h1.733a1.733 1.733 0 0 0 1.733-1.733v-1.733A1.733 1.733 0 0 0 35.467 144zm-1.733 3.467v-1.733h1.733v1.733zm0 0" transform="translate(-28.533 -128.4)"/>
    <path id="Path_404" data-name="Path 404" class="cls-1" d="M91.467 144h-1.734A1.733 1.733 0 0 0 88 145.733v1.733a1.733 1.733 0 0 0 1.733 1.733h1.733a1.733 1.733 0 0 0 1.733-1.733v-1.733A1.733 1.733 0 0 0 91.467 144zm-1.733 3.467v-1.733h1.733v1.733zm0 0" transform="translate(-78.467 -128.4)"/>
    <path id="Path_405" data-name="Path 405" class="cls-1" d="M147.467 144h-1.733a1.733 1.733 0 0 0-1.734 1.733v1.733a1.733 1.733 0 0 0 1.733 1.733h1.733a1.733 1.733 0 0 0 1.733-1.733v-1.733a1.733 1.733 0 0 0-1.732-1.733zm-1.733 3.467v-1.733h1.733v1.733zm0 0" transform="translate(-128.4 -128.4)"/>
    <path id="Path_406" data-name="Path 406" class="cls-1" d="M35.467 200h-1.734A1.733 1.733 0 0 0 32 201.733v1.733a1.733 1.733 0 0 0 1.733 1.733h1.733a1.733 1.733 0 0 0 1.733-1.733v-1.733A1.733 1.733 0 0 0 35.467 200zm-1.733 3.467v-1.733h1.733v1.733zm0 0" transform="translate(-28.533 -178.333)"/>
    <path id="Path_407" data-name="Path 407" class="cls-1" d="M91.467 200h-1.734A1.733 1.733 0 0 0 88 201.733v1.733a1.733 1.733 0 0 0 1.733 1.733h1.733a1.733 1.733 0 0 0 1.733-1.733v-1.733A1.733 1.733 0 0 0 91.467 200zm-1.733 3.467v-1.733h1.733v1.733zm0 0" transform="translate(-78.467 -178.333)"/>
    <path id="Path_408" data-name="Path 408" class="cls-1" d="M147.467 200h-1.733a1.733 1.733 0 0 0-1.734 1.733v1.733a1.733 1.733 0 0 0 1.733 1.733h1.733a1.733 1.733 0 0 0 1.733-1.733v-1.733a1.733 1.733 0 0 0-1.732-1.733zm-1.733 3.467v-1.733h1.733v1.733zm0 0" transform="translate(-128.4 -178.333)"/>
    <path id="Path_409" data-name="Path 409" class="cls-1" d="M300.892 249.2a2.662 2.662 0 0 0-3.676 0l-14.857 14.857a.877.877 0 0 0-.173.25l-2.092 4.543a.867.867 0 0 0 1.148 1.15l4.543-2.092a.868.868 0 0 0 .251-.173l14.856-14.857a2.6 2.6 0 0 0 0-3.678zm-15.973 17.2-2.271 1.046 1.046-2.271 11.077-11.075 1.229 1.223zm12.306-12.307L296 252.868l.607-.607 1.226 1.226zm2.444-2.444-.613.613-1.226-1.226.614-.613a.886.886 0 0 1 1.225 0 .867.867 0 0 1 0 1.227zm0 0" transform="translate(-249.679 -221.549)"/>
</svg>
