<svg xmlns="http://www.w3.org/2000/svg" width="15.507" height="19.106">
    <path d="M5.016 19.106a2.186 2.186 0 0 1-1.182-.359l.011-.012a4.267 4.267 0 0 1-.989-.914 12.312 12.312 0 0 1-.846-1.157 11.171 11.171 0 0 1-1.417-2.892A10.857 10.857 0 0 1 0 10.313a6.436 6.436 0 0 1 .8-3.251 4.611 4.611 0 0 1 1.67-1.738 4.461 4.461 0 0 1 2.26-.668 3.7 3.7 0 0 1 .9.12c.233.063.519.17.851.294.216.082.384.15.507.2h.006c.12.048.2.08.239.092a1.88 1.88 0 0 0 .637.135 1.9 1.9 0 0 0 .513-.1l.026-.009c.123-.042.33-.112.618-.237.19-.069.355-.132.5-.187l.014-.005.226-.085a6.583 6.583 0 0 1 .835-.209 3.942 3.942 0 0 1 .618-.049c.1 0 .2 0 .293.011a5.42 5.42 0 0 1 1.543.334 4.148 4.148 0 0 1 1.955 1.559 3.909 3.909 0 0 0-.577.437 4.876 4.876 0 0 0-.979 1.2 4.2 4.2 0 0 0 .156 4.282 4.216 4.216 0 0 0 1.221 1.221 3.1 3.1 0 0 0 .668.359c-.1.317-.207.6-.322.875a11.354 11.354 0 0 1-.995 1.838c-.363.529-.623.886-.82 1.122a4.424 4.424 0 0 1-.938.872 2.082 2.082 0 0 1-1.152.347h-.108a2.56 2.56 0 0 1-.718-.1 8.467 8.467 0 0 1-.682-.257 5.513 5.513 0 0 0-.72-.271 3.578 3.578 0 0 0-.909-.117h-.009a3.7 3.7 0 0 0-.922.116 5.607 5.607 0 0 0-.721.258l-.073.03c-.3.123-.49.2-.607.24a3.606 3.606 0 0 1-.788.134zM7.9 4.4h-.171a3.2 3.2 0 0 1 .217-1.62 4.359 4.359 0 0 1 .8-1.337 4.294 4.294 0 0 1 1.3-1A3.669 3.669 0 0 1 11.539 0a3.625 3.625 0 0 1-.2 1.647 4.7 4.7 0 0 1-.8 1.4 3.988 3.988 0 0 1-1.262 1H9.3a2.973 2.973 0 0 1-1.4.353z" style="fill:#c1c7d0"/>
</svg>
