<svg xmlns="http://www.w3.org/2000/svg" width="69.061" height="54.429" viewBox="0 0 69.061 54.429">
    <defs>
        <style>
            .cls-1{fill:rgba(0,84,80,.5)}
        </style>
    </defs>
    <g id="audit" transform="translate(0 -54.241)">
        <g id="Group_499" data-name="Group 499" transform="translate(0 54.241)">
            <path id="Path_362" data-name="Path 362" class="cls-1" d="M67.375 74.829h-2.4v-12.1a1.688 1.688 0 0 0-1.686-1.686H42.178v-5.12a1.688 1.688 0 0 0-1.686-1.686h-26.6a1.012 1.012 0 1 0 0 2.023h26.263v7.172a12.993 12.993 0 0 0-13.645 2.982H8.383a1.012 1.012 0 0 0 0 2.023h16.46a12.977 12.977 0 0 0-1.375 2.692h-6.607a1.012 1.012 0 0 0 0 2.023H22.9a13.023 13.023 0 0 0-.24 2.488v.2H8.383a1.012 1.012 0 1 0 0 2.023h14.469a12.9 12.9 0 0 0 .775 2.692H8.383a1.012 1.012 0 1 0 0 2.023h16.29a13.107 13.107 0 0 0 2.265 2.692h-6.7a1.012 1.012 0 0 0 0 2.023H29.9a12.985 12.985 0 0 0 10.118.6v18.745h-38V56.264h7.154a1.012 1.012 0 1 0 0-2.023H1.686A1.688 1.688 0 0 0 0 55.927v51.056a1.688 1.688 0 0 0 1.686 1.686h56.18a1.012 1.012 0 1 0 0-2.023H42.178V86.9c.176-.1.351-.207.522-.318l2.108 2.108a1.686 1.686 0 0 0 .41 1.712l7.682 7.685a3.68 3.68 0 0 0 6.235-3.2h7.9v2.4h-4.583a1.012 1.012 0 1 0 0 2.023h4.586v2.4H53.819a1.012 1.012 0 1 0 0 2.023h13.219v2.911h-4.451a1.012 1.012 0 1 0 0 2.023h4.788a1.688 1.688 0 0 0 1.686-1.686V76.515a1.688 1.688 0 0 0-1.686-1.686zM62.954 63.07v2.4H51.661a1.012 1.012 0 1 0 0 2.023h11.293v2.4H51.661a1.012 1.012 0 1 0 0 2.023h11.293v2.911H48.648a13.021 13.021 0 0 0-6.47-10.44V63.07h20.776zM35.668 86.63a10.984 10.984 0 1 1 10.983-10.984A11 11 0 0 1 35.668 86.63zm8.656-1.284a13.137 13.137 0 0 0 1.043-1.046l1.784 1.784-1.044 1.044zm12.354 11.31a1.661 1.661 0 0 1-2.346 0l-7.445-7.445 2.346-2.346 7.445 7.445a1.661 1.661 0 0 1 0 2.346zm1.415-3.792L50.425 85.2a1.687 1.687 0 0 0-1.712-.41L46.6 82.678a12.922 12.922 0 0 0 2.012-5.826h18.426v2.741h-9.982a1.012 1.012 0 1 0 0 2.023h9.982v2.4H54.9a1.012 1.012 0 0 0 0 2.023h12.14v2.4h-6.746a1.012 1.012 0 0 0 0 2.023h6.744v2.4h-8.944z" transform="translate(0 -54.241)"/>
            <path id="Path_363" data-name="Path 363" class="cls-1" d="M110.9 103.523a1.012 1.012 0 0 0 0-2.023H97.438a1.012 1.012 0 0 0 0 2.023z" transform="translate(-83.42 -95.125)"/>
            <path id="Path_364" data-name="Path 364" class="cls-1" d="M55.662 181.5H60.9a1.012 1.012 0 0 0 0-2.023h-5.24a1.012 1.012 0 0 0 0 2.023z" transform="translate(-47.279 -162.588)"/>
            <path id="Path_365" data-name="Path 365" class="cls-1" d="M64.139 284.352h-8.477a1.012 1.012 0 0 0 0 2.023h8.478a1.012 1.012 0 1 0 0-2.023z" transform="translate(-47.279 -253.313)"/>
            <path id="Path_366" data-name="Path 366" class="cls-1" d="M80.393 319.309H55.662a1.012 1.012 0 1 0 0 2.023h24.731a1.012 1.012 0 0 0 0-2.023z" transform="translate(-47.279 -283.555)"/>
            <path id="Path_367" data-name="Path 367" class="cls-1" d="M194.458 354.266h-6.947a1.012 1.012 0 1 0 0 2.023h6.947a1.012 1.012 0 1 0 0-2.023z" transform="translate(-161.344 -313.797)"/>
            <path id="Path_368" data-name="Path 368" class="cls-1" d="M55.662 356.289h14.547a1.012 1.012 0 0 0 0-2.023H55.662a1.012 1.012 0 0 0 0 2.023z" transform="translate(-47.279 -313.797)"/>
            <path id="Path_369" data-name="Path 369" class="cls-1" d="M55.662 391.246h24.731a1.012 1.012 0 0 0 0-2.023H55.662a1.012 1.012 0 1 0 0 2.023z" transform="translate(-47.279 -344.039)"/>
            <path id="Path_370" data-name="Path 370" class="cls-1" d="M211.213 152.463a1.012 1.012 0 0 0-1.245.7 7.612 7.612 0 1 1-.029-4.166 1.012 1.012 0 1 0 1.942-.569 9.635 9.635 0 1 0 .037 5.276 1.012 1.012 0 0 0-.7-1.245z" transform="translate(-166.966 -129.73)"/>
            <path id="Path_371" data-name="Path 371" class="cls-1" d="M243.314 182.37a1.012 1.012 0 0 0 0-2.023h-5.4a1.012 1.012 0 0 0 0 2.023z" transform="translate(-204.944 -163.337)"/>
            <path id="Path_372" data-name="Path 372" class="cls-1" d="M236.134 206.442a1.012 1.012 0 0 0-1.012-1.012h-8.43a1.012 1.012 0 0 0 0 2.023h8.43a1.012 1.012 0 0 0 1.012-1.011z" transform="translate(-195.239 -185.037)"/>
            <path id="Path_373" data-name="Path 373" class="cls-1" d="M244.321 230.514a1.012 1.012 0 0 0 0 2.023H248a1.012 1.012 0 1 0 0-2.023z" transform="translate(-210.49 -206.737)"/>
        </g>
    </g>
</svg>
