<svg xmlns="http://www.w3.org/2000/svg" width="49.49" height="49.5" viewBox="0 0 49.49 49.5">
    <defs>
        <style>
            .cls-1{fill:rgba(0,84,80,.5)}
        </style>
    </defs>
    <g id="backup" transform="translate(-.048)">
        <g id="Group_575" data-name="Group 575" transform="translate(6.637 28.068)">
            <g id="Group_574" data-name="Group 574">
                <path id="Path_437" data-name="Path 437" class="cls-1" d="m76.966 279.893-5.775-7.425a.856.856 0 0 0-1.3 0l-5.775 7.425a.825.825 0 0 0 .652 1.332h2.475v6.6a.825.825 0 0 0 .825.825h4.95a.825.825 0 0 0 .825-.825v-6.6h2.475a.825.825 0 0 0 .652-1.332zm-3.952-.318a.825.825 0 0 0-.825.825v6.6h-3.3v-6.6a.825.825 0 0 0-.825-.825H66.45l4.089-5.256 4.089 5.256z" transform="translate(-63.938 -272.166)"/>
            </g>
        </g>
        <g id="Group_577" data-name="Group 577" transform="translate(.048)">
            <g id="Group_576" data-name="Group 576">
                <path id="Path_438" data-name="Path 438" class="cls-1" d="M48.713 12.375h-4.125V6.6a.825.825 0 0 0-.825-.825h-24.75V.825A.825.825 0 0 0 18.188 0h-13.2a.825.825 0 0 0-.825.825V26.74a13.189 13.189 0 1 0 21.606 13.686h16.344A7.434 7.434 0 0 0 49.538 33V13.2a.825.825 0 0 0-.825-.825zM5.813 1.65h11.55V6.6a.825.825 0 0 0 .825.825h24.75v4.95H10.763a.825.825 0 0 0-.825.825v10.335A13.137 13.137 0 0 0 5.813 25.4zm7.425 46.2a11.55 11.55 0 1 1 11.55-11.55 11.55 11.55 0 0 1-11.55 11.551zM47.888 33a5.782 5.782 0 0 1-5.775 5.775H26.2a13.126 13.126 0 0 0-14.612-15.56v-9.19h36.3z" transform="translate(-.048)"/>
            </g>
        </g>
        <g id="Group_579" data-name="Group 579" transform="translate(22.313 15.675)">
            <g id="Group_578" data-name="Group 578">
                <path id="Rectangle_522" data-name="Rectangle 522" class="cls-1" d="M0 0h1.65v1.65H0z"/>
            </g>
        </g>
        <g id="Group_581" data-name="Group 581" transform="translate(7.463 3.3)">
            <g id="Group_580" data-name="Group 580">
                <path id="Rectangle_523" data-name="Rectangle 523" class="cls-1" d="M0 0h1.65v1.65H0z"/>
            </g>
        </g>
        <g id="Group_583" data-name="Group 583" transform="translate(10.763 3.3)">
            <g id="Group_582" data-name="Group 582">
                <path id="Rectangle_524" data-name="Rectangle 524" class="cls-1" d="M0 0h1.65v1.65H0z"/>
            </g>
        </g>
        <g id="Group_585" data-name="Group 585" transform="translate(14.063 3.3)">
            <g id="Group_584" data-name="Group 584">
                <path id="Rectangle_525" data-name="Rectangle 525" class="cls-1" d="M0 0h1.65v1.65H0z"/>
            </g>
        </g>
        <g id="Group_587" data-name="Group 587" transform="translate(13.238 15.675)">
            <g id="Group_586" data-name="Group 586">
                <path id="Rectangle_526" data-name="Rectangle 526" class="cls-1" d="M0 0h7.425v1.65H0z"/>
            </g>
        </g>
        <g id="Group_589" data-name="Group 589" transform="translate(31.388 19.8)">
            <g id="Group_588" data-name="Group 588">
                <path id="Rectangle_527" data-name="Rectangle 527" class="cls-1" d="M0 0h1.65v1.65H0z"/>
            </g>
        </g>
        <g id="Group_591" data-name="Group 591" transform="translate(13.238 19.8)">
            <g id="Group_590" data-name="Group 590">
                <path id="Rectangle_528" data-name="Rectangle 528" class="cls-1" d="M0 0h16.5v1.65H0z"/>
            </g>
        </g>
    </g>
</svg>
