<svg xmlns="http://www.w3.org/2000/svg" width="56.98" height="54.429">
    <defs>
        <style>
            .cls-2{fill:#005450;fill-rule:evenodd}
        </style>
    </defs>
    <g id="blank" transform="translate(0 -.5)" style="opacity:.5">
        <path id="Path_100" data-name="Path 100" class="cls-2" d="M55.867 27.4a1.113 1.113 0 0 0 .791-1.9L52.4 20.7h3.466a1.113 1.113 0 0 0 .792-1.9L52.4 14h3.465a1.113 1.113 0 0 0 .833-1.852L46.7.875A1.114 1.114 0 0 0 45.862.5H32.939a1.114 1.114 0 0 0 0 2.227h12.423l8.027 9.05H3.59l8.025-9.05h12.422a1.114 1.114 0 0 0 0-2.227H11.113a1.114 1.114 0 0 0-.833.375l-10 11.277A1.113 1.113 0 0 0 1.114 14h3.465l-4.3 4.848a1.113 1.113 0 0 0 .835 1.852h3.464l-4.3 4.845a1.114 1.114 0 0 0 .836 1.855h3.464l-4.3 4.844a1.114 1.114 0 0 0 .836 1.856h3.464l-4.3 4.845a1.114 1.114 0 0 0 .833 1.852h3.468l-4.3 4.848a1.114 1.114 0 0 0 .833 1.852h19.6a12.5 12.5 0 0 0 15.554 0h.448l7.115 7.103a1.114 1.114 0 0 0 1.571-1.572l-5.536-5.534h16a1.114 1.114 0 0 0 .833-1.852l-4.3-4.848h3.464a1.113 1.113 0 0 0 .833-1.852L52.4 34.1h3.463a1.114 1.114 0 0 0 .833-1.852L52.4 27.4h3.463zM7.555 14h41.869l3.966 4.473H3.589zm0 13.4H21.37a12.605 12.605 0 0 0-3.961 4.47H3.59zm0 6.7H16.5a12.483 12.483 0 0 0-.526 3.593q0 .443.031.877H3.59zm0 6.7h8.806a12.47 12.47 0 0 0 2.171 4.473H3.589zM18.2 37.69a10.289 10.289 0 1 1 10.288 10.29A10.3 10.3 0 0 1 18.2 37.69zm35.19 7.577H38.452a12.369 12.369 0 0 0 2.167-4.473h8.805zm0-6.7H40.974c.02-.29.03-.583.03-.877a12.485 12.485 0 0 0-.526-3.593h8.946zm0-6.7H39.566a12.605 12.605 0 0 0-3.961-4.47h13.819zm-3.464-6.7H3.59L7.555 20.7h41.869l3.965 4.47zm0 0"/>
        <path id="Path_101" data-name="Path 101" class="cls-2" d="M247.083 2.727a1.114 1.114 0 1 0-1.114-1.114 1.115 1.115 0 0 0 1.114 1.114zm0 0" transform="translate(-218.595)"/>
    </g>
</svg>
