<svg xmlns="http://www.w3.org/2000/svg" width="48" height="48" viewBox="0 0 48 48">
    <defs>
        <style>
            .cls-2{fill:#005450;fill-rule:evenodd}
        </style>
    </defs>
    <g id="blank" transform="translate(0 -.5)" style="opacity:.5">
        <path id="Path_100" data-name="Path 100" class="cls-2" d="M47.063 24.223a.961.961 0 0 0 .937-.981 1 1 0 0 0-.271-.691l-3.586-4.233h2.919a.961.961 0 0 0 .938-.982 1 1 0 0 0-.271-.69l-3.587-4.236h2.918a.937.937 0 0 0 .855-.579 1.018 1.018 0 0 0-.154-1.054L39.336.83a.92.92 0 0 0-.7-.33H27.748a.961.961 0 0 0-.938.982.961.961 0 0 0 .938.982h10.465l6.762 7.981H3.024l6.76-7.981h10.465a.961.961 0 0 0 .938-.982.961.961 0 0 0-.938-.982H9.362a.92.92 0 0 0-.7.33L.237 10.776a1.017 1.017 0 0 0-.154 1.054.937.937 0 0 0 .855.579h2.919l-3.62 4.275a1.017 1.017 0 0 0-.153 1.054.937.937 0 0 0 .855.579h2.918L.237 22.59a1.017 1.017 0 0 0-.153 1.054.937.937 0 0 0 .855.579h2.917L.237 28.5a1.019 1.019 0 0 0-.154 1.05.937.937 0 0 0 .855.579h2.919L.237 34.4a1.017 1.017 0 0 0-.153 1.054.937.937 0 0 0 .855.579h2.918L.237 40.31a1.018 1.018 0 0 0-.153 1.054.937.937 0 0 0 .855.579h16.512a10.166 10.166 0 0 0 13.1 0h.377l5.991 6.269a.909.909 0 0 0 1.326 0 1.015 1.015 0 0 0 0-1.389l-4.664-4.88H47.06a.936.936 0 0 0 .855-.579 1.018 1.018 0 0 0-.153-1.054l-3.62-4.275h2.918a.937.937 0 0 0 .855-.579 1.017 1.017 0 0 0-.154-1.054l-3.619-4.272h2.918a.937.937 0 0 0 .855-.579 1.018 1.018 0 0 0-.153-1.055l-3.62-4.272h2.918zM6.364 12.409h35.271l3.341 3.945H3.024zm0 11.815H18a10.969 10.969 0 0 0-3.337 3.942H3.024zm0 5.906H13.9a11.487 11.487 0 0 0-.443 3.169q0 .39.026.773H3.024zm0 5.906h7.418a11.218 11.218 0 0 0 1.829 3.945H3.024zM15.33 33.3A8.888 8.888 0 0 1 24 24.223a8.888 8.888 0 0 1 8.666 9.077 9.224 9.224 0 0 1-2.539 6.416A8.421 8.421 0 0 1 24 42.372a8.888 8.888 0 0 1-8.67-9.072zm29.645 6.682H32.392a11.129 11.129 0 0 0 1.825-3.945h7.418zm0-5.909H34.517c.016-.256.026-.514.026-.773a11.489 11.489 0 0 0-.443-3.169h7.536zm0-5.906H33.331a10.969 10.969 0 0 0-3.337-3.942h11.641zm-2.918-5.906H3.024l3.34-3.942h35.271l3.34 3.942zm0 0"/>
        <path id="Path_101" data-name="Path 101" class="cls-2" d="M247.083 2.727a1.114 1.114 0 1 0-1.114-1.114 1.115 1.115 0 0 0 1.114 1.114zm0 0" transform="translate(-223.084)"/>
    </g>
</svg>
