<svg id="Active-call" xmlns="http://www.w3.org/2000/svg" width="26" height="26" viewBox="0 0 26 26">
  <rect id="bound" width="26" height="26" fill="none"/>
  <path id="Path_76" data-name="Path 76" d="M7.665,11.265l2.2-2.5a2.491,2.491,0,0,0,.375-2.614l-.125-.283a2.491,2.491,0,0,1,.375-2.614L13.226.166a.46.46,0,0,1,.707,0,.57.57,0,0,1,.094.147l1.1,2.5a5.464,5.464,0,0,1-.822,5.734l-6,6.791a4.989,4.989,0,0,1-5.554,1.484L.342,15.911a.6.6,0,0,1-.2-.937l2.651-3a1.83,1.83,0,0,1,2.309-.424l.25.141A1.83,1.83,0,0,0,7.665,11.265Z" transform="translate(7.415 4.834)" fill="#b0b7c3" opacity="0.3"/>
  <path id="Combined_Shape" data-name="Combined Shape" d="M.046,12.01h0A11,11,0,0,1,11,0c.341,0,.687.016,1.027.048l-.185,1.992C11.562,2.014,11.279,2,11,2a9,9,0,0,0-8.957,9.828L.047,12.01Zm3.984-.356h0A7,7,0,0,1,11,4c.225,0,.452.011.676.033l-.192,1.991C11.324,6.008,11.162,6,11,6a5,5,0,0,0-4.975,5.467l-1.991.186Z" transform="translate(2.474 1.975)" fill="#005450" opacity="0.5"/>
</svg>
