<svg xmlns="http://www.w3.org/2000/svg" width="56.083" height="54.214">
    <defs>
        <style>
            .cls-1{fill:rgba(0,84,80,.5)}
        </style>
    </defs>
    <g id="Line_stroke_cut_Ex" data-name="Line stroke cut Ex" transform="translate(-16 -32)">
        <g id="Group_595" data-name="Group 595" transform="translate(16 32)">
            <path id="Path_453" data-name="Path 453" class="cls-1" d="M87.764 38.543v-5.608a.935.935 0 0 0-.935-.935H40.093a.935.935 0 0 0-.935.935v4.674h-.888a3.28 3.28 0 0 0-3.208 2.63l-1.307 6.534 1.833.367 1.307-6.54a1.406 1.406 0 0 1 1.375-1.127h.818v18.466a2.106 2.106 0 0 0 2.1 2.1H42.9a.935.935 0 0 0 .73-.351l6.925-8.656.39.279a6.07 6.07 0 0 1 1.579 8.229l-.01.016-5.739 9.344a.935.935 0 0 0-.139.489v16.825h1.869v-9.079a7.94 7.94 0 0 0 7.969.575l.42-.205a.935.935 0 0 0 .429-1.25l-.79-1.614a7.879 7.879 0 0 0 4.979-.669l.42-.205a.935.935 0 0 0 .429-1.25l-1.185-2.422L77.548 74.7a2.1 2.1 0 0 0 2.594-1.455l3.718-13.203h2.969a.935.935 0 0 0 .935-.935V40.412h-1.87v17.76H55.125a7.916 7.916 0 0 0 .234-1.869h24.153a.935.935 0 0 0 .881-1.246 1.869 1.869 0 0 1 2.386-2.386.935.935 0 0 0 1.246-.881V39.318a.935.935 0 0 0-1.246-.881 1.869 1.869 0 0 1-2.493-1.763.935.935 0 0 0-.935-.935H46.636a.935.935 0 0 0-.935.935 1.872 1.872 0 0 1-1.869 1.869.935.935 0 0 0-.935.935v12.151a.935.935 0 0 0 .935.935 1.872 1.872 0 0 1 1.846 1.571l-3.23 4.037h-1.257a.234.234 0 0 1-.234-.234v-19.4h.07v-4.669h44.867v4.674zM48.505 74.682v-5.029l1.142-1.853 1.237 2.529a7.89 7.89 0 0 0 3.1 3.353l1.243 2.541a6.121 6.121 0 0 1-6.719-1.537zm11.757-2.2a6.077 6.077 0 0 1-7.7-2.978l-1.041-2.128 7.24 2.038zm18.08.259a.234.234 0 0 1-.288.161L51.16 65.331l1.277-2.079 21.1 6.435a.935.935 0 0 0 1.186-.7 1.869 1.869 0 0 1 2.226-1.428.934.934 0 0 0 1.1-.673l1.824-6.848h2.046zm-.406-12.7-1.494 5.61a3.765 3.765 0 0 0-3.2 1.992l-19.794-6.037.651-1.06q.159-.249.3-.5zm-33.17-9.229V40.294a3.753 3.753 0 0 0 2.686-2.686h31.083a3.746 3.746 0 0 0 3.621 2.8v10.286a3.743 3.743 0 0 0-3.739 3.739h-23.27a7.921 7.921 0 0 0-3.118-4.641L50.918 49a.935.935 0 0 0-1.274.177l-2.634 3.292a3.752 3.752 0 0 0-2.243-1.656z" transform="translate(-31.681 -32)"/>
            <path id="Path_454" data-name="Path 454" class="cls-1" d="m17.889 183.02 1.645-8.223-1.833-.367-1.682 8.413a.935.935 0 0 0 0 .379l2.781 12.99V212h1.869v-15.89a.935.935 0 0 0-.021-.2z" transform="translate(-16 -157.789)"/>
            <path id="Path_455" data-name="Path 455" class="cls-1" d="M238.543 109.086a6.543 6.543 0 1 0-6.543-6.543 6.543 6.543 0 0 0 6.543 6.543zm0-11.217a4.674 4.674 0 1 1-4.674 4.674 4.674 4.674 0 0 1 4.674-4.674z" transform="translate(-206.763 -88.522)"/>
            <path id="Rectangle_529" data-name="Rectangle 529" class="cls-1" transform="translate(43 9)" d="M0 0h6v2H0z"/>
        </g>
    </g>
</svg>
