<svg xmlns="http://www.w3.org/2000/svg" width="45.51" height="49.895" viewBox="0 0 45.51 49.895">
    <defs>
        <style>
            .cls-1{fill:rgba(0,84,80,.5)}
        </style>
    </defs>
    <g id="cashless-payment" transform="translate(-22.5)">
        <g id="Group_502" data-name="Group 502" transform="translate(22.5)">
            <path id="Path_375" data-name="Path 375" class="cls-1" d="M112.41 364.5a2.777 2.777 0 0 0 0 5.555h7.6a2.777 2.777 0 0 0 0-5.555zm8.917 2.777a1.317 1.317 0 0 1-1.316 1.316h-7.6a1.316 1.316 0 0 1 0-2.631h7.6a1.317 1.317 0 0 1 1.316 1.315z" transform="translate(-101.155 -328.979)"/>
            <path id="Path_376" data-name="Path 376" class="cls-1" d="M65.366 7.747h-3.721a.731.731 0 0 0 0 1.462h3.721a1.183 1.183 0 0 1 1.182 1.182v19.563a1.183 1.183 0 0 1-1.182 1.182h-33.6a1.183 1.183 0 0 1-1.182-1.182v-.979h7.845a3.265 3.265 0 0 0 0-6.529h-7.841V10.391a1.183 1.183 0 0 1 1.182-1.182h26.44a.731.731 0 0 0 0-1.462h-5.6V4.629A4.634 4.634 0 0 0 47.984 0H27.129A4.634 4.634 0 0 0 22.5 4.629v4.194a.731.731 0 0 0 1.462 0V4.629a3.171 3.171 0 0 1 3.167-3.167h20.855a3.171 3.171 0 0 1 3.167 3.167v3.118h-1.072V4.629a2.1 2.1 0 0 0-2.1-2.1h-3.903a1.265 1.265 0 0 0-1.2.852l-.468 1.362H32.7l-.469-1.363a1.264 1.264 0 0 0-1.195-.851h-3.907a2.1 2.1 0 0 0-2.1 2.1v40.637a2.1 2.1 0 0 0 2.1 2.1h20.855a2.1 2.1 0 0 0 2.1-2.1v-2.285a.731.731 0 0 0-1.462 0v2.285a.634.634 0 0 1-.633.633h-20.86a.634.634 0 0 1-.633-.633V4.629A.634.634 0 0 1 27.129 4H30.9l.469 1.363a1.264 1.264 0 0 0 1.195.851h9.995a1.265 1.265 0 0 0 1.2-.852L44.217 4h3.767a.634.634 0 0 1 .633.633v3.114H31.771a2.647 2.647 0 0 0-2.644 2.644v19.563a2.647 2.647 0 0 0 2.644 2.646h16.846v6.975a.731.731 0 0 0 1.462 0V32.6h1.072v12.666a3.171 3.171 0 0 1-3.167 3.167H27.129a3.171 3.171 0 0 1-3.167-3.167V12.279a.731.731 0 0 0-1.462 0v32.987a4.634 4.634 0 0 0 4.629 4.634h20.855a4.634 4.634 0 0 0 4.629-4.629V32.6h12.753a2.647 2.647 0 0 0 2.644-2.644V10.391a2.647 2.647 0 0 0-2.644-2.644zm-26.933 16.16a1.8 1.8 0 0 1 0 3.606h-7.845v-3.606z" transform="translate(-22.5)"/>
            <path id="Path_377" data-name="Path 377" class="cls-1" d="M342.819 234.458a.731.731 0 0 0 .943-.423l.348-.913h2.39l.344.911a.731.731 0 1 0 1.368-.516l-2.1-5.557-.008-.02a.856.856 0 0 0-.794-.532.855.855 0 0 0-.794.534l-.006.016-2.117 5.557a.731.731 0 0 0 .426.943zm2.492-4.49.639 1.692h-1.283z" transform="translate(-311.178 -205.247)"/>
            <path id="Path_378" data-name="Path 378" class="cls-1" d="m399 231.111-.007 2.661a.731.731 0 0 0 .729.733.731.731 0 0 0 .731-.729l.007-2.663 1.668-2.562a.731.731 0 0 0-1.225-.8l-1.174 1.8-1.187-1.819a.731.731 0 0 0-1.224.8z" transform="translate(-360.681 -205.245)"/>
            <path id="Path_379" data-name="Path 379" class="cls-1" d="M300.42 233.773a.731.731 0 0 0 1.462 0v-1.721h.838a2.322 2.322 0 1 0 0-4.643h-1.569a.735.735 0 0 0-.731.733zm2.3-4.906a.86.86 0 1 1 0 1.719h-.832v-1.722h.836z" transform="translate(-273.337 -205.245)"/>
            <path id="Path_380" data-name="Path 380" class="cls-1" d="M136.816 118.5a1.317 1.317 0 0 0-1.316 1.316v3.9a1.317 1.317 0 0 0 1.316 1.316h6.042a1.317 1.317 0 0 0 1.316-1.316v-3.9a1.317 1.317 0 0 0-1.316-1.316zm5.9 5.067h-5.75v-3.606h5.75z" transform="translate(-124.488 -106.952)"/>
            <path id="Path_381" data-name="Path 381" class="cls-1" d="M273.9 137.349v1.169a.731.731 0 0 0 1.462 0v-1.169a.731.731 0 0 0-1.462 0z" transform="translate(-249.404 -123.31)"/>
            <path id="Path_382" data-name="Path 382" class="cls-1" d="M398.337 139.25a.731.731 0 0 0 .731-.731v-1.169a.731.731 0 0 0-1.462 0v1.169a.731.731 0 0 0 .731.731z" transform="translate(-361.051 -123.31)"/>
            <path id="Path_383" data-name="Path 383" class="cls-1" d="M425.8 138.519v-1.169a.731.731 0 0 0-1.462 0v1.169a.731.731 0 0 0 1.462 0z" transform="translate(-385.182 -123.31)"/>
            <path id="Path_384" data-name="Path 384" class="cls-1" d="M314.185 138.519v-1.169a.731.731 0 0 0-1.462 0v1.169a.731.731 0 0 0 1.462 0z" transform="translate(-284.44 -123.31)"/>
            <path id="Path_385" data-name="Path 385" class="cls-1" d="M341.791 139.25a.731.731 0 0 0 .731-.731v-1.169a.731.731 0 0 0-1.462 0v1.169a.731.731 0 0 0 .731.731z" transform="translate(-310.016 -123.31)"/>
        </g>
    </g>
</svg>
