<svg id="Chat_6" data-name="Chat#6" xmlns="http://www.w3.org/2000/svg" width="24" height="24" viewBox="0 0 24 24">
  <rect id="bound" width="24" height="24" fill="none"/>
  <path id="Combined_Shape" data-name="Combined Shape" d="M9.017,18H5a3,3,0,0,1-3-3V6A3,3,0,0,1,5,3H19a3,3,0,0,1,3,3v9a3,3,0,0,1-3,3H14.486L12,22.5Z" fill="#b0b7c3" opacity="0.3"/>
  <path id="Combined_Shape-2" data-name="Combined Shape" d="M11,13H6a1,1,0,1,1,0-2h5a1,1,0,0,1,0,2Zm4-4H6A1,1,0,0,1,6,7h9a1,1,0,0,1,0,2Z" fill="#005450" opacity="0.5"/>
</svg>
