<svg xmlns="http://www.w3.org/2000/svg" width="60.239" height="54.215">
    <path d="M60.228 21.072c-.1-1.718-2.142-3.06-6.229-4.084a2.264 2.264 0 0 0 .216-.94V9.024H54.2C53.838 3.173 29.861 3 27.107 3S.376 3.173.017 9.024H0V16.055c.005 1.908 2.467 3.4 6.129 4.512a2.2 2.2 0 0 0-.09.509h-.015v7.008C2.078 29.1.107 30.426.01 32.115H0V39.146c0 1.324 1.2 2.454 3.161 3.39a2.212 2.212 0 0 0-.134.624h-.015V50.191c.008 3.339 7.527 5.412 15.881 6.38a.922.922 0 0 0 .183.037c.019 0 .035-.01.054-.011 1.61.182 3.247.323 4.866.425a.829.829 0 0 0 .1.02c.019 0 .034-.01.052-.011 2.056.124 4.079.188 5.972.188s3.916-.063 5.972-.189c.018 0 .034.011.052.011.035 0 .065-.017.1-.02 1.619-.1 3.256-.242 4.866-.425.019 0 .035.01.054.01a.922.922 0 0 0 .183-.037c8.354-.968 15.872-3.042 15.881-6.382v-7.028h-.016c-.07-1.231-1.119-2.258-3.192-3.116a2.245 2.245 0 0 0 .2-.9v-6.566c3.6-1.108 6.019-2.591 6.024-4.482v-7.023zM52.1 39.466l-.342.3a8.982 8.982 0 0 1-2.561 1.385v-4.787a14.941 14.941 0 0 0 3.012-1.381v4.154a.639.639 0 0 1-.109.329zm-22.457 4.665c-.147 0-.294.006-.442.009-.358.007-.726.009-1.089.012v-5.015q.414 0 .828-.012h.16q1.517-.029 3.028-.1v5.013q-.322.017-.649.03c-.604.032-1.214.048-1.836.063zm-4.384.014q-.69-.012-1.372-.033l-.169-.006q-.821-.027-1.629-.067v-5.012q1.509.071 3.028.1h.159q.414.008.828.012v5.018c-.195 0-.39 0-.583-.005-.089-.003-.175-.006-.262-.007zM7.125 41.856l-.1-.028v-4.85c.938.253 1.946.484 3.012.694v4.9q-1.382-.294-2.546-.612c-.12-.036-.246-.069-.366-.104zm21.162 8.314q.414.008.828.012V55.2q-2.081-.02-4.016-.116v-5.012q1.509.071 3.028.1zm3.824 0q1.517-.029 3.028-.1v5.013q-1.934.095-4.016.116v-5.018q.414 0 .828-.012zm8.048-.454V54.7q-1.447.152-3.012.264v-5.008a97.187 97.187 0 0 0 3.012-.243zm2.008-.217q1.553-.187 3.012-.424V54q-1.419.25-3.012.46zm5.02-.782a45.059 45.059 0 0 0 3.012-.694v4.85c-.895.258-1.9.508-3.012.744zm-34.135 0v4.9a43.91 43.91 0 0 1-3.012-.744V48.02c.938.253 1.945.485 3.012.694zm2.008.359q1.458.236 3.012.424v4.966Q16.48 54.254 15.06 54zm5.02.64c.988.1 1.994.177 3.012.244v5.007q-1.565-.11-3.012-.264zm-2.491-6-.305-.031-.216-.023V38.67c.988.1 1.994.177 3.012.244v5a81.248 81.248 0 0 1-2.491-.205zm-2.529-5.264v4.966q-1.592-.209-3.012-.46v-4.93q1.458.237 3.012.424zM34.8 43.87l-.669.05v-5.007a97.164 97.164 0 0 0 3.012-.244v4.986a87.608 87.608 0 0 1-2.343.215zm4.351-.452v-4.966q1.553-.187 3.012-.424v4.93q-1.415.25-3.008.46zm5.02-5.748a45.059 45.059 0 0 0 3.012-.694v4.85c-.895.258-1.9.508-3.012.744zm-13.725-4.586a95.965 95.965 0 0 1-2.218-.083L28.111 33v-5.017q1.509.071 3.028.1h.159q.414.008.828.012v5.013c-.489-.005-.982-.007-1.459-.018zM7.028 18.736v-4.85c.938.253 1.946.484 3.012.694v4.9l-.372-.08a42.466 42.466 0 0 1-2.64-.664zm18.247-2.7q.414.008.828.012v5.012a99.96 99.96 0 0 1-4.016-.114v-5.01q1.509.071 3.028.1zm3.824 0q1.517-.029 3.028-.1v5.009c-.171.008-.334.02-.506.028h-.043c-.674.03-1.36.052-2.056.068l-.325.007c-.357.007-.723.008-1.085.012v-5.013q.414 0 .828-.012zm22.878.5-.028-.006-.365.284a9.765 9.765 0 0 1-2.388 1.234v-4.776a14.941 14.941 0 0 0 3.012-1.381v4.154a.788.788 0 0 1-.231.491zm-12.822 3.785v-4.96q1.553-.187 3.012-.424v4.922c-.952.168-1.954.323-3.012.462zm5.02-.848V14.58a45.059 45.059 0 0 0 3.012-.694v4.839c-.9.262-1.913.512-3.012.747zm-7.028-3.894v4.98q-1.455.154-3.012.266v-5c1.018-.07 2.024-.152 3.012-.247zM17.068 20.56v-4.982c.988.1 1.994.177 3.012.244v5c-1.022-.076-2.03-.159-3.012-.262zm-2.008-5.2v4.961c-.2-.026-.406-.047-.6-.074l-.377-.055q-.87-.125-1.7-.266l-.328-.058v-4.93q1.451.235 3.005.423zm10.795 17.5-.407-.03q-.964-.075-1.882-.167l-.394-.04c-.027 0-.053-.007-.08-.009v-4.988c.988.1 1.994.177 3.012.244v5zm-6.633-.75c-.4-.063-.771-.132-1.15-.2v-4.924q1.458.236 3.012.424v4.966a77.32 77.32 0 0 1-1.793-.256q-.035-.008-.07-.013zm-3.158-5.481v4.892q-1.664-.357-3.012-.754v-4.834c.937.253 1.948.485 3.012.694zm-5.02-1.307v4.77A6.263 6.263 0 0 1 8.116 28.3l-.067-.112a.634.634 0 0 1-.017-.1v-4.15a14.941 14.941 0 0 0 3.012 1.381zm24.079 2.76q1.517-.029 3.028-.1v5.008c-1.319.065-2.661.1-4.016.115v-5.011q.414 0 .828-.012zm12.977 3.85a65.985 65.985 0 0 1-2.142.337c-.254.036-.518.067-.776.1v-4.96q1.553-.187 3.012-.424v4.93zm-6.8.857c-.374.031-.761.051-1.141.078v-5a97.164 97.164 0 0 0 3.012-.244v4.981c-.583.061-1.166.122-1.765.173zm11.473-1.882c-.5.14-1.029.27-1.569.4-.25.058-.5.116-.766.173-.077.017-.16.032-.238.049v-4.9a45.059 45.059 0 0 0 3.012-.694v4.85zm5.447-9.77c-.092.682-1.637 1.588-4.4 2.441a67.389 67.389 0 0 1-16.15 2.413 120.696 120.696 0 0 1-1.995.069c-.831.018-1.675.031-2.544.031s-1.713-.013-2.544-.032c-.305-.007-.606-.017-.908-.027-.368-.011-.728-.027-1.087-.042a67.381 67.381 0 0 1-16.154-2.414c-2.738-.845-4.278-1.744-4.392-2.423a.236.236 0 0 1 .017-.059c.068.017.145.031.214.048.393.093.8.184 1.2.27 1.995.43 4.206.782 6.561 1.051H16.064c1.6.183 3.269.326 4.978.428.013 0 .024.007.037.007h.019q1.845.108 3.737.154a88.202 88.202 0 0 0 3.88.013 76.881 76.881 0 0 0 18.76-2.324c.217-.061.429-.124.638-.188.128-.039.258-.077.382-.116a25.05 25.05 0 0 0 1.048-.36l.172-.066c.284-.107.557-.219.818-.332.075-.033.153-.065.226-.1.278-.125.547-.254.8-.388.112-.059.21-.12.315-.181.12-.069.241-.14.352-.211.063-.04.139-.078.2-.118 4.495.974 5.679 2.04 5.794 2.456zM27.107 5.008c16.555 0 24.928 2.606 25.084 4.1-.121.679-1.663 1.575-4.391 2.419a67.389 67.389 0 0 1-16.154 2.414 120.696 120.696 0 0 1-1.995.069c-.831.019-1.675.032-2.544.032s-1.713-.013-2.544-.032c-.305-.007-.606-.017-.908-.027-.368-.011-.728-.027-1.087-.042a67.381 67.381 0 0 1-16.154-2.412c-2.73-.843-4.27-1.74-4.391-2.419.157-1.496 8.53-4.102 25.084-4.102zm-25.1 11.04V11.89a14.941 14.941 0 0 0 3.013 1.382v4.807c-1.953-.732-3.01-1.466-3.012-2.031zm4.864 13.894c.015.016.038.03.053.046 1.374 1.387 4.221 2.478 7.764 3.291l.25.056q.39.087.791.171A77.43 77.43 0 0 0 27.1 34.948h.011q2.039.119 4.17.159a89.742 89.742 0 0 0 3.977-.004c1.313-.027 2.607-.081 3.883-.156h.014c.005 0 .016-.005.025-.005a77.651 77.651 0 0 0 11.59-1.484 18.189 18.189 0 0 1-2.97 1.161 69.28 69.28 0 0 1-17.35 2.459c-.226.007-.449.015-.678.021-.246.006-.5.01-.746.015-.632.01-1.267.019-1.92.019-.869 0-1.713-.013-2.544-.032-.305-.007-.606-.017-.908-.027-.368-.011-.728-.027-1.087-.042A67.381 67.381 0 0 1 6.414 34.62c-2.761-.853-4.306-1.761-4.4-2.443.116-.377 1.131-1.322 4.857-2.235zm-4.863 9.2v-4.16a14.941 14.941 0 0 0 3.012 1.381v4.788l-.573-.223-.012.012c-1.577-.653-2.425-1.295-2.427-1.801zM5.02 50.183v-4.157a14.94 14.94 0 0 0 3.012 1.381v4.807c-1.953-.732-3.01-1.466-3.012-2.031zm47.187 2.031v-4.806a14.941 14.941 0 0 0 3.012-1.381v4.154c-.001.565-1.059 1.3-3.012 2.033zm3-8.978c-.109.68-1.652 1.581-4.393 2.429a67.389 67.389 0 0 1-16.154 2.414 120.696 120.696 0 0 1-1.995.069c-.831.018-1.675.031-2.544.031s-1.714-.013-2.546-.032c-.3-.007-.6-.017-.9-.027-.37-.012-.732-.027-1.094-.042a67.389 67.389 0 0 1-16.155-2.414c-2.656-.82-4.19-1.692-4.382-2.364.3.1.609.206.928.305l.1.029q.407.125.832.242l.325.089c.161.043.325.084.49.127a73.244 73.244 0 0 0 13.363 1.9h.008c1.556.092 3.145.15 4.752.169.428.008.852.012 1.269.012.553 0 1.119-.007 1.693-.017a99.204 99.204 0 0 0 4.324-.163H33.149c1.722-.1 3.388-.251 4.99-.435h.017c.022 0 .04-.011.062-.013a73.008 73.008 0 0 0 6-.937l.211-.043a26.977 26.977 0 0 0 7.292-2.373c.1-.052.187-.106.278-.16.111-.066.218-.134.321-.2s.208-.122.3-.186c1.974.706 2.521 1.338 2.586 1.59zm.013-13.11V25.32a14.941 14.941 0 0 0 3.012-1.381v4.154c-.002.566-1.06 1.301-3.013 2.033z" transform="translate(0 -3)" style="fill:rgba(0,84,80,.5)"/>
</svg>
