<svg xmlns="http://www.w3.org/2000/svg" width="48" height="48" viewBox="0 0 48 48">
    <path d="M47.991 19c-.079-1.521-1.707-2.709-4.963-3.616a2.191 2.191 0 0 0 .172-.832V8.333h-.014C42.9 3.153 23.794 3 21.6 3S.3 3.153.014 8.333H0V14.555c0 1.689 1.966 3.011 4.884 3.995a2.146 2.146 0 0 0-.072.45H4.8V25.216c-3.144.9-4.714 2.071-4.792 3.567H0V35c0 1.176.957 2.173 2.518 3a2.147 2.147 0 0 0-.106.553H2.4V44.775c.006 2.956 6 4.792 12.654 5.649a.671.671 0 0 0 .146.033c.015 0 .028-.009.043-.01 1.283.161 2.587.286 3.878.376a.6.6 0 0 0 .079.018c.015 0 .027-.009.042-.01 1.638.11 3.25.166 4.758.166s3.12-.056 4.758-.167c.014 0 .027.01.042.01a.791.791 0 0 0 .079-.018c1.29-.09 2.594-.214 3.878-.376.015 0 .028.009.043.009a.671.671 0 0 0 .146-.033c6.657-.857 12.647-2.693 12.654-5.651v-6.215h-.013c-.056-1.09-.892-2-2.543-2.759A2.176 2.176 0 0 0 43.2 35v-5.81c2.872-.981 4.8-2.294 4.8-3.968V19zm-6.477 16.285-.273.266a6.981 6.981 0 0 1-2.041 1.227V32.54a11.389 11.389 0 0 0 2.4-1.223v3.678a.609.609 0 0 1-.086.29zm-17.893 4.131-.352.008c-.286.006-.578.008-.868.011v-4.44l.66-.011h.127q1.212-.028 2.412-.084v4.438l-.517.027c-.483.02-.967.035-1.462.051zm-3.494.012q-.55-.011-1.094-.029l-.134-.005q-.654-.024-1.3-.06V34.9q1.2.063 2.413.085h.126L20.8 35v4.443h-.465zM5.678 37.4l-.078-.023v-4.294a32.8 32.8 0 0 0 2.4.614v4.339a34.342 34.342 0 0 1-2.029-.542c-.097-.032-.198-.061-.293-.094zm16.862 7.363.66.011v4.444q-1.658-.017-3.2-.1v-4.442q1.2.063 2.413.085zm3.047 0q1.213-.028 2.413-.088v4.438q-1.541.084-3.2.1v-4.441l.66-.011zm6.413-.4v4.414q-1.153.135-2.4.234v-4.438c.811-.058 1.613-.13 2.4-.215zm1.6-.192q1.237-.171 2.4-.38v4.364q-1.13.221-2.4.407zm4-.692a32.8 32.8 0 0 0 2.4-.614v4.294c-.713.228-1.515.45-2.4.659zm-27.2 0v4.339a31.787 31.787 0 0 1-2.4-.659V42.86c.747.224 1.55.429 2.4.614zm1.6.318q1.162.209 2.4.375v4.4q-1.268-.185-2.4-.407zm4 .566a74.29 74.29 0 0 0 2.4.216v4.433q-1.247-.1-2.4-.234zm-1.985-5.316-.243-.028-.172-.02v-4.418a74.29 74.29 0 0 0 2.4.216v4.429a69.568 69.568 0 0 1-1.985-.183zM12 34.388v4.4q-1.268-.185-2.4-.407v-4.368q1.162.21 2.4.375zm15.733 4.8-.533.044V34.8c.811-.06 1.613-.131 2.4-.216v4.414c-.494.058-1 .112-1.519.159a20.38 20.38 0 0 0-.348.028zm3.467-.4v-4.4q1.237-.165 2.4-.375v4.364q-1.13.223-2.4.408zm4-5.089a32.8 32.8 0 0 0 2.4-.614v4.294c-.713.228-1.515.45-2.4.659zm-10.94-4.06c-.6-.017-1.19-.043-1.767-.074H22.4v-4.446q1.2.063 2.413.085h.126l.66.011v4.438c-.39 0-.782-.006-1.162-.016zM5.6 16.932v-4.294a32.8 32.8 0 0 0 2.4.614v4.339l-.3-.069c-.426-.1-.841-.212-1.238-.327a38.205 38.205 0 0 1-.862-.263zm14.54-2.392.66.011v4.438a74.724 74.724 0 0 1-3.2-.1v-4.436q1.2.063 2.413.085zm3.047 0q1.208-.025 2.413-.085v4.435c-.136.007-.266.018-.4.025h-.034c-.537.027-1.084.046-1.638.06l-.259.006c-.285.006-.576.007-.865.011v-4.44l.66-.011zm18.23.446-.022-.005-.291.252a7.544 7.544 0 0 1-1.9 1.092v-4.231a11.389 11.389 0 0 0 2.4-1.223v3.678a.735.735 0 0 1-.187.435zM31.2 18.335v-4.391q1.237-.165 2.4-.375v4.357a48.29 48.29 0 0 1-2.4.409zm4-.751v-4.332a32.8 32.8 0 0 0 2.4-.614v4.284c-.717.233-1.524.454-2.4.662zm-5.6-3.448v4.409q-1.159.136-2.4.236v-4.429a74.29 74.29 0 0 0 2.4-.216zm-16 4.411v-4.411a74.29 74.29 0 0 0 2.4.216v4.425a66.967 66.967 0 0 1-2.4-.23zm-1.6-4.6v4.392c-.158-.023-.323-.042-.48-.066l-.3-.049q-.694-.111-1.358-.236l-.262-.054V13.57q1.162.208 2.4.374zm8.6 15.491-.324-.027q-.768-.067-1.5-.148l-.314-.036-.064-.008V24.8a74.29 74.29 0 0 0 2.4.216v4.43zm-5.286-.664c-.317-.056-.614-.116-.916-.175v-4.363q1.162.209 2.4.375v4.4c-.49-.072-.969-.147-1.429-.227zM12.8 23.918v4.332q-1.326-.316-2.4-.668V23.3a30.4 30.4 0 0 0 2.4.618zm-4-1.157v4.223A4.966 4.966 0 0 1 6.467 25.4l-.054-.1a.618.618 0 0 1-.014-.084v-3.678A11.389 11.389 0 0 0 8.8 22.761zM27.987 25.2q1.208-.025 2.413-.085v4.434c-1.051.058-2.12.09-3.2.1v-4.431l.66-.011zm10.338 3.411c-.351.068-.706.134-1.07.2-.209.036-.422.069-.637.1L36 29v-4.389q1.237-.165 2.4-.375V28.6zm-5.417.759c-.3.028-.606.045-.909.069v-4.42c.811-.06 1.613-.131 2.4-.216v4.41c-.465.054-.929.108-1.406.153zm9.142-1.667c-.4.124-.82.239-1.25.352-.2.052-.4.1-.61.153l-.19.044v-4.333a32.8 32.8 0 0 0 2.4-.614V27.6zm4.34-8.65c-.074.6-1.3 1.406-3.5 2.161a48.771 48.771 0 0 1-12.872 2.137c-.287.013-.574.027-.866.037l-.723.024c-.662.016-1.334.028-2.027.028s-1.365-.012-2.027-.028c-.243-.006-.483-.015-.723-.024-.294-.01-.58-.024-.866-.037a48.765 48.765 0 0 1-12.875-2.133c-2.18-.748-3.409-1.545-3.5-2.146a.227.227 0 0 1 .014-.052c.054.015.115.028.17.043.313.083.634.163.96.239a49.349 49.349 0 0 0 5.228.931h.017a66.1 66.1 0 0 0 3.966.379c.01 0 .019.006.03.006h.015a73.879 73.879 0 0 0 6.07.148 55.494 55.494 0 0 0 14.949-2.058c.173-.054.342-.11.508-.166.1-.035.206-.068.3-.1.29-.1.567-.209.835-.319l.137-.059c.226-.1.444-.194.652-.294l.18-.087c.222-.111.436-.225.634-.343.09-.052.167-.107.251-.16s.192-.124.281-.187c.05-.036.11-.069.158-.1 3.59.853 4.534 1.797 4.625 2.165zM21.6 4.778c13.191 0 19.863 2.308 19.988 3.632-.1.6-1.325 1.395-3.5 2.141a48.771 48.771 0 0 1-12.872 2.137c-.287.013-.574.027-.866.037l-.723.024c-.662.017-1.334.028-2.027.028s-1.365-.012-2.027-.028c-.243-.006-.483-.015-.723-.024-.294-.01-.58-.024-.866-.037a48.765 48.765 0 0 1-12.873-2.137c-2.175-.747-3.4-1.54-3.5-2.141.126-1.325 6.798-3.632 19.989-3.632zm-20 9.774v-3.681A11.389 11.389 0 0 0 4 12.094v4.256c-1.556-.65-2.4-1.298-2.4-1.798zm3.875 12.3c.012.014.03.027.042.041 1.1 1.228 3.363 2.194 6.186 2.914l.2.05q.311.077.63.151a55.863 55.863 0 0 0 9.06 1.276h.007a72.29 72.29 0 0 0 3.322.14 61.704 61.704 0 0 0 3.169-.003 73.854 73.854 0 0 0 3.094-.138h.031a56.028 56.028 0 0 0 9.235-1.314A13.671 13.671 0 0 1 38.089 31a50.107 50.107 0 0 1-13.825 2.177l-.54.019-.594.013c-.5.009-1.01.017-1.53.017-.693 0-1.365-.012-2.027-.028-.243-.006-.483-.015-.723-.024-.294-.01-.58-.024-.866-.037A48.765 48.765 0 0 1 5.111 31c-2.2-.756-3.431-1.559-3.5-2.163.089-.337.895-1.175 3.864-1.984zM1.6 35v-3.684A11.389 11.389 0 0 0 4 32.539v4.239l-.457-.2-.01.011C2.278 36.012 1.6 35.444 1.6 35zM4 44.774v-3.681a11.389 11.389 0 0 0 2.4 1.223v4.256C4.844 45.924 4 45.275 4 44.774zm37.6 1.8v-4.257a11.389 11.389 0 0 0 2.4-1.223v3.678c0 .501-.844 1.152-2.4 1.8zm2.39-7.948c-.087.6-1.316 1.4-3.5 2.15a48.771 48.771 0 0 1-12.872 2.137c-.287.013-.574.027-.866.037l-.723.024c-.664.014-1.336.026-2.029.026s-1.366-.012-2.029-.028c-.241-.006-.478-.015-.716-.024-.3-.011-.583-.024-.872-.037a48.771 48.771 0 0 1-12.872-2.138c-2.116-.726-3.338-1.5-3.492-2.093.238.092.486.182.739.27l.077.026q.324.111.663.214l.259.079c.128.038.259.075.39.112A52.929 52.929 0 0 0 16.8 41.062c1.24.082 2.506.132 3.786.149.341.007.679.011 1.011.011.441 0 .892-.006 1.349-.015a71.293 71.293 0 0 0 3.446-.144h.016c1.372-.092 2.7-.222 3.976-.385h.014a.5.5 0 0 0 .05-.012 52.175 52.175 0 0 0 4.78-.83l.172-.036a20.039 20.039 0 0 0 5.81-2.1c.077-.046.149-.094.222-.141.089-.059.174-.118.256-.179s.166-.108.236-.164c1.576.625 2.014 1.184 2.066 1.408zM44 27.017v-4.255a11.389 11.389 0 0 0 2.4-1.223v3.678c0 .5-.844 1.151-2.4 1.8z" transform="translate(0 -3)" style="fill:rgba(0,84,80,.5)"/>
</svg>
