<svg xmlns="http://www.w3.org/2000/svg" width="24" height="24">
    <path style="fill:none" d="M0 0h24v24H0z"/>
    <path data-name="Path 11" d="m.289 18-.3-14.864L2.995 0 6 3.136 5.959 18z" transform="rotate(-135 9.05 7.364)" style="fill:#005450;opacity:.5"/>
    <path data-name="Path 57" d="M10.9 0a1 1 0 0 1 0 2H4a2 2 0 0 0-2 2v12a2 2 0 0 0 2 2h12a2 2 0 0 0 2-2v-5a1 1 0 0 1 2 0v5a4 4 0 0 1-4 4H4a4 4 0 0 1-4-4V4a4 4 0 0 1 4-4z" transform="translate(2 2)" style="fill:#b0b7c3;opacity:.3"/>
</svg>
