<svg xmlns="http://www.w3.org/2000/svg" width="46.717" height="42.823">
    <defs>
        <style>
            .cls-1{fill:rgba(0,84,80,.5)}
        </style>
    </defs>
    <g id="feedback" transform="translate(0 -21.333)">
        <g id="Group_597" data-name="Group 597" transform="translate(0 21.333)">
            <g id="Group_596" data-name="Group 596">
                <path id="Path_456" data-name="Path 456" class="cls-1" d="M107.639 129.946h21.412a.973.973 0 0 0 0-1.947h-21.412a.973.973 0 1 0 0 1.947z" transform="translate(-96.933 -118.266)"/>
                <path id="Path_457" data-name="Path 457" class="cls-1" d="M119.318 256h-11.679a.973.973 0 0 0 0 1.947h11.679a.973.973 0 0 0 0-1.947z" transform="translate(-96.933 -234.588)"/>
                <path id="Path_458" data-name="Path 458" class="cls-1" d="M42.991 25.226c-.056 0-.111.014-.167.017v-.017a3.9 3.9 0 0 0-3.893-3.893H3.893A3.9 3.9 0 0 0 0 25.226v37.957a.974.974 0 0 0 .6.9.962.962 0 0 0 .373.074.973.973 0 0 0 .688-.285l9.448-9.448H38.93a3.9 3.9 0 0 0 3.893-3.893V34.388l2.8-2.8a3.725 3.725 0 0 0-2.635-6.359zm-2.114 25.3a1.948 1.948 0 0 1-1.946 1.946H10.706a.973.973 0 0 0-.688.285l-8.072 8.077V25.226a1.948 1.948 0 0 1 1.947-1.946H38.93a1.948 1.948 0 0 1 1.947 1.946v.665a3.661 3.661 0 0 0-.521.426l-10.59 10.588h-19.06a.973.973 0 0 0 0 1.947H28.2l-.935 4.675a.973.973 0 0 0 .954 1.164.993.993 0 0 0 .19-.019l4.864-.973a.967.967 0 0 0 .5-.266l7.1-7.1zm-8.267-8.678-3.144.629.634-3.147 8.835-8.835 2.517 2.517zM44.249 30.21l-1.426 1.426-2.517-2.517 1.426-1.426a1.78 1.78 0 0 1 2.517 2.518z" transform="translate(0 -21.333)"/>
            </g>
        </g>
    </g>
</svg>
