<svg id="Hidden" xmlns="http://www.w3.org/2000/svg" width="24" height="24" viewBox="0 0 24 24">
  <rect id="bound" width="24" height="24" fill="none"/>
  <path id="Combined_Shape" data-name="Combined Shape" d="M12,18c-.3,0-.608-.013-.9-.039l8.112-8.112A18.845,18.845,0,0,1,21,12l0,.006A19.916,19.916,0,0,1,18.341,15C16.848,16.369,14.536,18,12,18Z" fill="rgba(0,84,80,0.5)"/>
  <path id="Combined_Shape-2" data-name="Combined Shape" d="M5.527,15.473h0A11.022,11.022,0,0,1,3,12,11,11,0,0,1,5.045,9,9.824,9.824,0,0,1,7.832,6.938,9.4,9.4,0,0,1,12,6a6.962,6.962,0,0,1,2.5.495L12,9a3,3,0,0,0-3,3L5.527,15.472Z" fill="rgba(0,84,80,0.5)"/>
  <rect id="Rectangle" width="19" height="2" transform="translate(5.1 18.435) rotate(-45)" fill="#b0b7c3" opacity="0.3"/>
</svg>
