<svg xmlns="http://www.w3.org/2000/svg" width="42.712" height="42">
    <defs>
        <style>
            .cls-2{fill:#005450}
        </style>
    </defs>
    <g id="hotel" transform="translate(0 -4)" style="opacity:.5">
        <g id="Group_420" data-name="Group 420" transform="translate(0 4)">
            <g id="Group_419" data-name="Group 419">
                <path id="Path_60" data-name="Path 60" class="cls-2" d="M42 10.407h-7.831V4.712A.712.712 0 0 0 33.458 4H9.254a.712.712 0 0 0-.712.712v9.966H.712A.712.712 0 0 0 0 15.39v29.186a.712.712 0 0 0 1.424 0V16.1h7.118v29.188a.712.712 0 0 0 .712.712h24.2a.712.712 0 0 0 .712-.712V11.831h7.119v32.745a.712.712 0 1 0 1.424 0V11.119a.712.712 0 0 0-.709-.712zM20.644 44.576H17.8v-6.407h2.847zm4.271 0h-2.847v-6.407h2.847zm7.831 0h-6.407v-7.118a.712.712 0 0 0-.712-.712h-8.542a.712.712 0 0 0-.712.712v7.119H9.966V5.424h22.78z" transform="translate(0 -4)"/>
            </g>
        </g>
        <g id="Group_422" data-name="Group 422" transform="translate(11.39 6.847)">
            <g id="Group_421" data-name="Group 421">
                <path id="Path_61" data-name="Path 61" class="cls-2" d="M132.983 36h-4.271a.712.712 0 0 0-.712.712v4.271a.712.712 0 0 0 .712.712h4.271a.712.712 0 0 0 .712-.712v-4.271a.712.712 0 0 0-.712-.712zm-.712 4.271h-2.847v-2.847h2.847z" transform="translate(-128 -36)"/>
            </g>
        </g>
        <g id="Group_424" data-name="Group 424" transform="translate(18.508 6.847)">
            <g id="Group_423" data-name="Group 423">
                <path id="Path_62" data-name="Path 62" class="cls-2" d="M212.983 36h-4.271a.712.712 0 0 0-.712.712v4.271a.712.712 0 0 0 .712.712h4.271a.712.712 0 0 0 .712-.712v-4.271a.712.712 0 0 0-.712-.712zm-.712 4.271h-2.847v-2.847h2.847z" transform="translate(-208 -36)"/>
            </g>
        </g>
        <g id="Group_426" data-name="Group 426" transform="translate(25.627 6.847)">
            <g id="Group_425" data-name="Group 425">
                <path id="Path_63" data-name="Path 63" class="cls-2" d="M292.983 36h-4.271a.712.712 0 0 0-.712.712v4.271a.712.712 0 0 0 .712.712h4.271a.712.712 0 0 0 .712-.712v-4.271a.712.712 0 0 0-.712-.712zm-.712 4.271h-2.847v-2.847h2.847z" transform="translate(-288 -36)"/>
            </g>
        </g>
        <g id="Group_428" data-name="Group 428" transform="translate(11.39 13.966)">
            <g id="Group_427" data-name="Group 427">
                <path id="Path_64" data-name="Path 64" class="cls-2" d="M132.983 116h-4.271a.712.712 0 0 0-.712.712v4.271a.712.712 0 0 0 .712.712h4.271a.712.712 0 0 0 .712-.712v-4.271a.712.712 0 0 0-.712-.712zm-.712 4.271h-2.847v-2.847h2.847z" transform="translate(-128 -116)"/>
            </g>
        </g>
        <g id="Group_430" data-name="Group 430" transform="translate(18.508 13.966)">
            <g id="Group_429" data-name="Group 429">
                <path id="Path_65" data-name="Path 65" class="cls-2" d="M212.983 116h-4.271a.712.712 0 0 0-.712.712v4.271a.712.712 0 0 0 .712.712h4.271a.712.712 0 0 0 .712-.712v-4.271a.712.712 0 0 0-.712-.712zm-.712 4.271h-2.847v-2.847h2.847z" transform="translate(-208 -116)"/>
            </g>
        </g>
        <g id="Group_432" data-name="Group 432" transform="translate(25.627 13.966)">
            <g id="Group_431" data-name="Group 431">
                <path id="Path_66" data-name="Path 66" class="cls-2" d="M292.983 116h-4.271a.712.712 0 0 0-.712.712v4.271a.712.712 0 0 0 .712.712h4.271a.712.712 0 0 0 .712-.712v-4.271a.712.712 0 0 0-.712-.712zm-.712 4.271h-2.847v-2.847h2.847z" transform="translate(-288 -116)"/>
            </g>
        </g>
        <g id="Group_434" data-name="Group 434" transform="translate(11.39 21.085)">
            <g id="Group_433" data-name="Group 433">
                <path id="Path_67" data-name="Path 67" class="cls-2" d="M132.983 196h-4.271a.712.712 0 0 0-.712.712v4.271a.712.712 0 0 0 .712.712h4.271a.712.712 0 0 0 .712-.712v-4.271a.712.712 0 0 0-.712-.712zm-.712 4.271h-2.847v-2.847h2.847z" transform="translate(-128 -196)"/>
            </g>
        </g>
        <g id="Group_436" data-name="Group 436" transform="translate(18.508 21.085)">
            <g id="Group_435" data-name="Group 435">
                <path id="Path_68" data-name="Path 68" class="cls-2" d="M212.983 196h-4.271a.712.712 0 0 0-.712.712v4.271a.712.712 0 0 0 .712.712h4.271a.712.712 0 0 0 .712-.712v-4.271a.712.712 0 0 0-.712-.712zm-.712 4.271h-2.847v-2.847h2.847z" transform="translate(-208 -196)"/>
            </g>
        </g>
        <g id="Group_438" data-name="Group 438" transform="translate(25.627 21.085)">
            <g id="Group_437" data-name="Group 437">
                <path id="Path_69" data-name="Path 69" class="cls-2" d="M292.983 196h-4.271a.712.712 0 0 0-.712.712v4.271a.712.712 0 0 0 .712.712h4.271a.712.712 0 0 0 .712-.712v-4.271a.712.712 0 0 0-.712-.712zm-.712 4.271h-2.847v-2.847h2.847z" transform="translate(-288 -196)"/>
            </g>
        </g>
        <g id="Group_440" data-name="Group 440" transform="translate(11.39 28.203)">
            <g id="Group_439" data-name="Group 439">
                <path id="Path_70" data-name="Path 70" class="cls-2" d="M132.983 276h-4.271a.712.712 0 0 0-.712.712v4.271a.712.712 0 0 0 .712.712h4.271a.712.712 0 0 0 .712-.712v-4.271a.712.712 0 0 0-.712-.712zm-.712 4.271h-2.847v-2.847h2.847z" transform="translate(-128 -276)"/>
            </g>
        </g>
        <g id="Group_442" data-name="Group 442" transform="translate(18.508 28.203)">
            <g id="Group_441" data-name="Group 441">
                <path id="Path_71" data-name="Path 71" class="cls-2" d="M212.983 276h-4.271a.712.712 0 0 0-.712.712v4.271a.712.712 0 0 0 .712.712h4.271a.712.712 0 0 0 .712-.712v-4.271a.712.712 0 0 0-.712-.712zm-.712 4.271h-2.847v-2.847h2.847z" transform="translate(-208 -276)"/>
            </g>
        </g>
        <g id="Group_444" data-name="Group 444" transform="translate(25.627 28.203)">
            <g id="Group_443" data-name="Group 443">
                <path id="Path_72" data-name="Path 72" class="cls-2" d="M292.983 276h-4.271a.712.712 0 0 0-.712.712v4.271a.712.712 0 0 0 .712.712h4.271a.712.712 0 0 0 .712-.712v-4.271a.712.712 0 0 0-.712-.712zm-.712 4.271h-2.847v-2.847h2.847z" transform="translate(-288 -276)"/>
            </g>
        </g>
        <g id="Group_446" data-name="Group 446" transform="translate(2.847 17.525)">
            <g id="Group_445" data-name="Group 445">
                <path id="Path_73" data-name="Path 73" class="cls-2" d="M33.424 156h-.712a.712.712 0 0 0-.712.712v.712a.712.712 0 0 0 .712.712h.712a.712.712 0 0 0 .712-.712v-.712a.712.712 0 0 0-.712-.712z" transform="translate(-32 -156)"/>
            </g>
        </g>
        <g id="Group_448" data-name="Group 448" transform="translate(5.695 17.525)">
            <g id="Group_447" data-name="Group 447">
                <path id="Path_74" data-name="Path 74" class="cls-2" d="M65.424 156h-.712a.712.712 0 0 0-.712.712v.712a.712.712 0 0 0 .712.712h.712a.712.712 0 0 0 .712-.712v-.712a.712.712 0 0 0-.712-.712z" transform="translate(-64 -156)"/>
            </g>
        </g>
        <g id="Group_450" data-name="Group 450" transform="translate(2.847 20.373)">
            <g id="Group_449" data-name="Group 449">
                <path id="Path_75" data-name="Path 75" class="cls-2" d="M33.424 188h-.712a.712.712 0 0 0-.712.712v.712a.712.712 0 0 0 .712.712h.712a.712.712 0 0 0 .712-.712v-.712a.712.712 0 0 0-.712-.712z" transform="translate(-32 -188)"/>
            </g>
        </g>
        <g id="Group_452" data-name="Group 452" transform="translate(5.695 20.373)">
            <g id="Group_451" data-name="Group 451">
                <path id="Path_76" data-name="Path 76" class="cls-2" d="M65.424 188h-.712a.712.712 0 0 0-.712.712v.712a.712.712 0 0 0 .712.712h.712a.712.712 0 0 0 .712-.712v-.712a.712.712 0 0 0-.712-.712z" transform="translate(-64 -188)"/>
            </g>
        </g>
        <g id="Group_454" data-name="Group 454" transform="translate(2.847 23.22)">
            <g id="Group_453" data-name="Group 453">
                <path id="Path_77" data-name="Path 77" class="cls-2" d="M33.424 220h-.712a.712.712 0 0 0-.712.712v.712a.712.712 0 0 0 .712.712h.712a.712.712 0 0 0 .712-.712v-.712a.712.712 0 0 0-.712-.712z" transform="translate(-32 -220)"/>
            </g>
        </g>
        <g id="Group_456" data-name="Group 456" transform="translate(5.695 23.22)">
            <g id="Group_455" data-name="Group 455">
                <path id="Path_78" data-name="Path 78" class="cls-2" d="M65.424 220h-.712a.712.712 0 0 0-.712.712v.712a.712.712 0 0 0 .712.712h.712a.712.712 0 0 0 .712-.712v-.712a.712.712 0 0 0-.712-.712z" transform="translate(-64 -220)"/>
            </g>
        </g>
        <g id="Group_458" data-name="Group 458" transform="translate(2.847 26.068)">
            <g id="Group_457" data-name="Group 457">
                <path id="Path_79" data-name="Path 79" class="cls-2" d="M33.424 252h-.712a.712.712 0 0 0-.712.712v.712a.712.712 0 0 0 .712.712h.712a.712.712 0 0 0 .712-.712v-.712a.712.712 0 0 0-.712-.712z" transform="translate(-32 -252)"/>
            </g>
        </g>
        <g id="Group_460" data-name="Group 460" transform="translate(5.695 26.068)">
            <g id="Group_459" data-name="Group 459">
                <path id="Path_80" data-name="Path 80" class="cls-2" d="M65.424 252h-.712a.712.712 0 0 0-.712.712v.712a.712.712 0 0 0 .712.712h.712a.712.712 0 0 0 .712-.712v-.712a.712.712 0 0 0-.712-.712z" transform="translate(-64 -252)"/>
            </g>
        </g>
        <g id="Group_462" data-name="Group 462" transform="translate(2.847 28.915)">
            <g id="Group_461" data-name="Group 461">
                <path id="Path_81" data-name="Path 81" class="cls-2" d="M33.424 284h-.712a.712.712 0 0 0-.712.712v.712a.712.712 0 0 0 .712.712h.712a.712.712 0 0 0 .712-.712v-.712a.712.712 0 0 0-.712-.712z" transform="translate(-32 -284)"/>
            </g>
        </g>
        <g id="Group_464" data-name="Group 464" transform="translate(5.695 28.915)">
            <g id="Group_463" data-name="Group 463">
                <path id="Path_82" data-name="Path 82" class="cls-2" d="M65.424 284h-.712a.712.712 0 0 0-.712.712v.712a.712.712 0 0 0 .712.712h.712a.712.712 0 0 0 .712-.712v-.712a.712.712 0 0 0-.712-.712z" transform="translate(-64 -284)"/>
            </g>
        </g>
        <g id="Group_466" data-name="Group 466" transform="translate(2.847 31.763)">
            <g id="Group_465" data-name="Group 465">
                <path id="Path_83" data-name="Path 83" class="cls-2" d="M33.424 316h-.712a.712.712 0 0 0-.712.712v.712a.712.712 0 0 0 .712.712h.712a.712.712 0 0 0 .712-.712v-.712a.712.712 0 0 0-.712-.712z" transform="translate(-32 -316)"/>
            </g>
        </g>
        <g id="Group_468" data-name="Group 468" transform="translate(5.695 31.763)">
            <g id="Group_467" data-name="Group 467">
                <path id="Path_84" data-name="Path 84" class="cls-2" d="M65.424 316h-.712a.712.712 0 0 0-.712.712v.712a.712.712 0 0 0 .712.712h.712a.712.712 0 0 0 .712-.712v-.712a.712.712 0 0 0-.712-.712z" transform="translate(-64 -316)"/>
            </g>
        </g>
        <g id="Group_470" data-name="Group 470" transform="translate(2.847 34.61)">
            <g id="Group_469" data-name="Group 469">
                <path id="Path_85" data-name="Path 85" class="cls-2" d="M33.424 348h-.712a.712.712 0 0 0-.712.712v.712a.712.712 0 0 0 .712.712h.712a.712.712 0 0 0 .712-.712v-.712a.712.712 0 0 0-.712-.712z" transform="translate(-32 -348)"/>
            </g>
        </g>
        <g id="Group_472" data-name="Group 472" transform="translate(5.695 34.61)">
            <g id="Group_471" data-name="Group 471">
                <path id="Path_86" data-name="Path 86" class="cls-2" d="M65.424 348h-.712a.712.712 0 0 0-.712.712v.712a.712.712 0 0 0 .712.712h.712a.712.712 0 0 0 .712-.712v-.712a.712.712 0 0 0-.712-.712z" transform="translate(-64 -348)"/>
            </g>
        </g>
        <g id="Group_474" data-name="Group 474" transform="translate(2.847 37.458)">
            <g id="Group_473" data-name="Group 473">
                <path id="Path_87" data-name="Path 87" class="cls-2" d="M33.424 380h-.712a.712.712 0 0 0-.712.712v.712a.712.712 0 0 0 .712.712h.712a.712.712 0 0 0 .712-.712v-.712a.712.712 0 0 0-.712-.712z" transform="translate(-32 -380)"/>
            </g>
        </g>
        <g id="Group_476" data-name="Group 476" transform="translate(5.695 37.458)">
            <g id="Group_475" data-name="Group 475">
                <path id="Path_88" data-name="Path 88" class="cls-2" d="M65.424 380h-.712a.712.712 0 0 0-.712.712v.712a.712.712 0 0 0 .712.712h.712a.712.712 0 0 0 .712-.712v-.712a.712.712 0 0 0-.712-.712z" transform="translate(-64 -380)"/>
            </g>
        </g>
        <g id="Group_478" data-name="Group 478" transform="translate(2.847 40.305)">
            <g id="Group_477" data-name="Group 477">
                <path id="Path_89" data-name="Path 89" class="cls-2" d="M33.424 412h-.712a.712.712 0 0 0-.712.712v.712a.712.712 0 0 0 .712.712h.712a.712.712 0 0 0 .712-.712v-.712a.712.712 0 0 0-.712-.712z" transform="translate(-32 -412)"/>
            </g>
        </g>
        <g id="Group_480" data-name="Group 480" transform="translate(5.695 40.305)">
            <g id="Group_479" data-name="Group 479">
                <path id="Path_90" data-name="Path 90" class="cls-2" d="M65.424 412h-.712a.712.712 0 0 0-.712.712v.712a.712.712 0 0 0 .712.712h.712a.712.712 0 0 0 .712-.712v-.712a.712.712 0 0 0-.712-.712z" transform="translate(-64 -412)"/>
            </g>
        </g>
        <g id="Group_482" data-name="Group 482" transform="translate(35.593 13.254)">
            <g id="Group_481" data-name="Group 481">
                <path id="Path_91" data-name="Path 91" class="cls-2" d="M403.559 108h-2.847a.712.712 0 0 0-.712.712v2.847a.712.712 0 0 0 .712.712h2.847a.712.712 0 0 0 .712-.712v-2.847a.712.712 0 0 0-.712-.712zm-.712 2.847h-1.424v-1.424h1.424z" transform="translate(-400 -108)"/>
            </g>
        </g>
        <g id="Group_484" data-name="Group 484" transform="translate(35.593 18.949)">
            <g id="Group_483" data-name="Group 483">
                <path id="Path_92" data-name="Path 92" class="cls-2" d="M403.559 172h-2.847a.712.712 0 0 0-.712.712v2.847a.712.712 0 0 0 .712.712h2.847a.712.712 0 0 0 .712-.712v-2.847a.712.712 0 0 0-.712-.712zm-.712 2.847h-1.424v-1.424h1.424z" transform="translate(-400 -172)"/>
            </g>
        </g>
        <g id="Group_486" data-name="Group 486" transform="translate(35.593 24.644)">
            <g id="Group_485" data-name="Group 485">
                <path id="Path_93" data-name="Path 93" class="cls-2" d="M403.559 236h-2.847a.712.712 0 0 0-.712.712v2.847a.712.712 0 0 0 .712.712h2.847a.712.712 0 0 0 .712-.712v-2.847a.712.712 0 0 0-.712-.712zm-.712 2.847h-1.424v-1.424h1.424z" transform="translate(-400 -236)"/>
            </g>
        </g>
        <g id="Group_488" data-name="Group 488" transform="translate(35.593 30.339)">
            <g id="Group_487" data-name="Group 487">
                <path id="Path_94" data-name="Path 94" class="cls-2" d="M403.559 300h-2.847a.712.712 0 0 0-.712.712v2.847a.712.712 0 0 0 .712.712h2.847a.712.712 0 0 0 .712-.712v-2.847a.712.712 0 0 0-.712-.712zm-.712 2.847h-1.424v-1.424h1.424z" transform="translate(-400 -300)"/>
            </g>
        </g>
        <g id="Group_490" data-name="Group 490" transform="translate(35.593 36.034)">
            <g id="Group_489" data-name="Group 489">
                <path id="Path_95" data-name="Path 95" class="cls-2" d="M403.559 364h-2.847a.712.712 0 0 0-.712.712v2.847a.712.712 0 0 0 .712.712h2.847a.712.712 0 0 0 .712-.712v-2.847a.712.712 0 0 0-.712-.712zm-.712 2.847h-1.424v-1.424h1.424z" transform="translate(-400 -364)"/>
            </g>
        </g>
    </g>
</svg>
