<svg xmlns="http://www.w3.org/2000/svg" width="19" height="19">
    <path d="M6.868 14.288a6.8 6.8 0 0 1-5.028-1.97A6.845 6.845 0 0 1 0 7.5a7.473 7.473 0 0 1 2.218-5.364A7.387 7.387 0 0 1 7.431 0h.185a7.269 7.269 0 0 1 4.838 1.66 5.782 5.782 0 0 1 1.931 4.479 5.471 5.471 0 0 1-1.132 3.675 3.275 3.275 0 0 1-2.49 1.107h-.112A2.125 2.125 0 0 1 8.838 9.92a3.6 3.6 0 0 1-2.42.964A3.118 3.118 0 0 1 3.154 7.5 4.178 4.178 0 0 1 7.33 3.185h.186a2.9 2.9 0 0 1 1.684.532l.079-.334h1.869l-.924 4.329a1.523 1.523 0 0 0 .152 1.265.872.872 0 0 0 .715.289c1.127 0 1.652-1.007 1.652-3.168 0-3.326-2.767-4.506-5.136-4.506h-.2A5.666 5.666 0 0 0 1.739 7.5a4.813 4.813 0 0 0 5.136 5.136h.059a7.617 7.617 0 0 0 3.4-.807l.649 1.595a10.726 10.726 0 0 1-4.115.864zM6.73 9.034h.07a1.945 1.945 0 0 0 1.363-.553L8.8 5.57a1.882 1.882 0 0 0-1.33-.551h-.05A2.224 2.224 0 0 0 5.2 7.341a1.789 1.789 0 0 0 .438 1.3 1.484 1.484 0 0 0 1.1.394z" transform="translate(1.766 2.462)" style="fill:#9da3ad"/>
</svg>
