<svg xmlns="http://www.w3.org/2000/svg" width="52" height="44.813" viewBox="0 0 52 44.813">
  <defs>
    <style>
      .cls-1 {
        fill: rgba(0,84,80,0.5);
      }
    </style>
  </defs>
  <g id="mail" transform="translate(0 -35.383)">
    <g id="Group_504" data-name="Group 504" transform="translate(0 43.587)">
      <g id="Group_503" data-name="Group 503" transform="translate(0 0)">
        <path id="Path_386" data-name="Path 386" class="cls-1" d="M0,116.162V144.67H44.095V116.162ZM40.962,117.7,22.047,131.464,3.133,117.7Zm-39.424.742L15.2,128.384,1.538,142.044Zm1.088,24.69L16.459,129.3l5.589,4.067,5.589-4.067,13.833,13.832Zm39.931-1.088L28.9,128.384l13.662-9.942v23.6Z" transform="translate(0 -116.162)"/>
      </g>
    </g>
    <g id="Group_506" data-name="Group 506" transform="translate(37.639 35.477)">
      <g id="Group_505" data-name="Group 505" transform="translate(0 0)">
        <path id="Path_387" data-name="Path 387" class="cls-1" d="M370.6,40.909l7.529,2.231,2.231,7.529,4.6-14.361Zm8.767.993-3.546-1.051,6.764-2.167-2.167,6.764Z" transform="translate(-370.6 -36.308)"/>
      </g>
    </g>
    <g id="Group_508" data-name="Group 508" transform="translate(5.896 38.972)">
      <g id="Group_507" data-name="Group 507" transform="translate(0 0)">
        <rect id="Rectangle_505" data-name="Rectangle 505" class="cls-1" width="1.538" height="1.538"/>
      </g>
    </g>
    <g id="Group_510" data-name="Group 510" transform="translate(12.049 38.972)">
      <g id="Group_509" data-name="Group 509" transform="translate(0 0)">
        <rect id="Rectangle_506" data-name="Rectangle 506" class="cls-1" width="10.255" height="1.538"/>
      </g>
    </g>
    <g id="Group_512" data-name="Group 512" transform="translate(8.973 38.972)">
      <g id="Group_511" data-name="Group 511" transform="translate(0 0)">
        <rect id="Rectangle_507" data-name="Rectangle 507" class="cls-1" width="1.538" height="1.538"/>
      </g>
    </g>
    <g id="Group_514" data-name="Group 514" transform="translate(14.305 35.383)">
      <g id="Group_513" data-name="Group 513" transform="translate(0 0)">
        <rect id="Rectangle_508" data-name="Rectangle 508" class="cls-1" width="1.538" height="1.538"/>
      </g>
    </g>
    <g id="Group_516" data-name="Group 516" transform="translate(17.382 35.383)">
      <g id="Group_515" data-name="Group 515" transform="translate(0 0)">
        <rect id="Rectangle_509" data-name="Rectangle 509" class="cls-1" width="1.538" height="1.538"/>
      </g>
    </g>
    <g id="Group_518" data-name="Group 518" transform="translate(20.458 35.383)">
      <g id="Group_517" data-name="Group 517" transform="translate(0 0)">
        <rect id="Rectangle_510" data-name="Rectangle 510" class="cls-1" width="17.638" height="1.538"/>
      </g>
    </g>
    <g id="Group_520" data-name="Group 520" transform="translate(5.896 75.068)">
      <g id="Group_519" data-name="Group 519">
        <rect id="Rectangle_511" data-name="Rectangle 511" class="cls-1" width="1.538" height="1.538"/>
      </g>
    </g>
    <g id="Group_522" data-name="Group 522" transform="translate(12.049 75.068)">
      <g id="Group_521" data-name="Group 521">
        <rect id="Rectangle_512" data-name="Rectangle 512" class="cls-1" width="10.255" height="1.538"/>
      </g>
    </g>
    <g id="Group_524" data-name="Group 524" transform="translate(8.973 75.068)">
      <g id="Group_523" data-name="Group 523">
        <rect id="Rectangle_513" data-name="Rectangle 513" class="cls-1" width="1.538" height="1.538"/>
      </g>
    </g>
    <g id="Group_526" data-name="Group 526" transform="translate(20.458 78.658)">
      <g id="Group_525" data-name="Group 525" transform="translate(0 0)">
        <rect id="Rectangle_514" data-name="Rectangle 514" class="cls-1" width="17.638" height="1.538"/>
      </g>
    </g>
    <g id="Group_528" data-name="Group 528" transform="translate(17.382 78.658)">
      <g id="Group_527" data-name="Group 527" transform="translate(0 0)">
        <rect id="Rectangle_515" data-name="Rectangle 515" class="cls-1" width="1.538" height="1.538"/>
      </g>
    </g>
    <g id="Group_530" data-name="Group 530" transform="translate(14.305 78.658)">
      <g id="Group_529" data-name="Group 529" transform="translate(0 0)">
        <rect id="Rectangle_516" data-name="Rectangle 516" class="cls-1" width="1.538" height="1.538"/>
      </g>
    </g>
    <g id="Group_532" data-name="Group 532" transform="translate(18.202 66.147)">
      <g id="Group_531" data-name="Group 531" transform="translate(0 0)">
        <rect id="Rectangle_517" data-name="Rectangle 517" class="cls-1" width="1.538" height="1.538"/>
      </g>
    </g>
    <g id="Group_534" data-name="Group 534" transform="translate(24.355 66.147)">
      <g id="Group_533" data-name="Group 533" transform="translate(0 0)">
        <rect id="Rectangle_518" data-name="Rectangle 518" class="cls-1" width="1.538" height="1.538"/>
      </g>
    </g>
    <g id="Group_536" data-name="Group 536" transform="translate(21.278 66.147)">
      <g id="Group_535" data-name="Group 535" transform="translate(0 0)">
        <rect id="Rectangle_519" data-name="Rectangle 519" class="cls-1" width="1.538" height="1.538"/>
      </g>
    </g>
    <g id="Group_539" data-name="Group 539" transform="translate(11.331 46.971)">
      <g id="Group_538" data-name="Group 538" transform="translate(0 0)">
        <g id="Group_537" data-name="Group 537">
          <rect id="Rectangle_520" data-name="Rectangle 520" class="cls-1" width="7.178" height="1.538" transform="translate(3.179)"/>
          <rect id="Rectangle_521" data-name="Rectangle 521" class="cls-1" width="1.641" height="1.538"/>
        </g>
      </g>
    </g>
  </g>
</svg>
