<svg xmlns="http://www.w3.org/2000/svg" width="51.668" height="54.428" viewBox="0 0 51.668 54.428">
    <g data-name="Group 543">
        <path data-name="Path 421" d="m50.561 28.464 6.3-2.678a1.149 1.149 0 0 0 .115-2.057l-3.126-1.793 3.069-1.3a1.149 1.149 0 0 0 .115-2.057l-3.184-1.793 3.069-1.3a1.149 1.149 0 0 0 .115-2.057l-3.184-1.793 3.069-1.3a1.149 1.149 0 0 0 .115-2.057L42.516.145a1.149 1.149 0 0 0-1-.057L30.77 4.489a1.15 1.15 0 0 0-.379.08l-6.563 2.759-13.482 5.529a1.149 1.149 0 0 0-.172 2.057l3.161 1.862-2.988 1.241a1.149 1.149 0 0 0-.172 2.046l3.161 1.862-3.011 1.241a1.149 1.149 0 0 0-.149 2.057l3.161 1.862-2.988 1.276a1.149 1.149 0 0 0-.173 2.011l3.517 2.069v16.09c0 3.827 6.609 5.9 12.826 5.9 4.2 0 8.551-.942 10.953-2.735 2.3 1.678 6.367 2.735 10.976 2.735 6.218 0 12.826-2.069 12.826-5.9V34.28c.01-3.402-5.196-5.402-10.713-5.816zm-5.229-.264v-2.655l5.816-2.471 2.7 1.517zm0-5.149V20.4l5.816-2.471 2.7 1.517zm0-5.149v-2.666l5.816-2.471 2.7 1.529zM41.884 2.421l11.964 6.712-9.6 4.057-10.9-7.275zm-17.814 7.3 11.022 7.356-9.692 4.112-12.045-7.08zm-8.218 8.516 8.884 5.229a1.149 1.149 0 0 0 1.034.069l10.585-4.495v2.655l-5.4 2.3a27.781 27.781 0 0 0-9.4.1l-8.195-4.839zm20.492 5.953v1.46a13.084 13.084 0 0 0-1.689-.736zm-22.63 5.32v.241l-.356-.207.368-.149zm-.356-5.11 2.494-1.023 2.574 1.54a12.091 12.091 0 0 0-2.3 1.149zm23.7 24.136c0 1.471-4.1 3.6-10.528 3.6S16 50 16 48.531v-1.287c2.471 1.6 6.574 2.437 10.528 2.437s8.045-.839 10.528-2.437zm0-4.747c0 1.471-4.1 3.6-10.528 3.6S16 45.256 16 43.785V42.5c2.471 1.6 6.574 2.437 10.528 2.437s8.046-.837 10.529-2.437zm0-4.747c0 1.471-4.1 3.6-10.528 3.6S16 40.509 16 39.038v-1.287c2.471 1.6 6.574 2.437 10.528 2.437s8.045-.839 10.528-2.437zm0-4.747c0 1.471-4.1 3.6-10.528 3.6S16 35.751 16 34.291v-1.333c2.471 1.6 6.574 2.437 10.528 2.437s8.045-.839 10.528-2.437zM26.54 33.131l-.011.011C20.1 33.142 16 31 16 29.545s4.1-3.6 10.528-3.6 10.539 2.115 10.539 3.563-4.102 3.623-10.527 3.623zm11.6-16.78L26.644 8.673l4.149-1.7 12.217 8.148v13.792a17.482 17.482 0 0 0-3.643 1.149v-.552a3.379 3.379 0 0 0-.713-2.034V17.3a1.149 1.149 0 0 0-.517-.95zm20.846 32.18c0 1.471-4.1 3.6-10.528 3.6-4.505 0-7.838-1.046-9.447-2.172a3.242 3.242 0 0 0 .345-1.425v-.506a22.985 22.985 0 0 0 9.1 1.655c3.954 0 8.045-.839 10.528-2.437v1.287zm0-4.747c0 1.471-4.1 3.6-10.528 3.6a18.918 18.918 0 0 1-9.1-1.954V43.3a22.985 22.985 0 0 0 9.1 1.655c3.954 0 8.045-.839 10.528-2.437zm0-4.747c0 1.471-4.1 3.6-10.528 3.6a18.906 18.906 0 0 1-9.1-1.954v-2.162a22.985 22.985 0 0 0 9.1 1.655c3.954 0 8.045-.839 10.528-2.437zm-10.528-1.148a18.906 18.906 0 0 1-9.1-1.954v-3.3a18.929 18.929 0 0 1 9.1-1.977c6.425 0 10.528 2.138 10.528 3.6s-4.092 3.631-10.528 3.631z" transform="translate(-9.605)" style="fill:rgba(0,84,80,.5)"/>
    </g>
</svg>
