<svg xmlns="http://www.w3.org/2000/svg" width="52" height="42.823">
    <defs>
        <style>
            .cls-1{fill:rgba(0,84,80,.5)}
        </style>
    </defs>
    <g id="online-booking" transform="translate(0 -45)">
        <path id="Path_410" data-name="Path 410" class="cls-1" d="M339.7 161.329a1.02 1.02 0 0 0 1.442 0l4.588-4.588a1.02 1.02 0 0 0-1.442-1.442l-3.867 3.867-1.352-1.352a1.02 1.02 0 0 0-1.442 1.442z" transform="translate(-302.938 -98.784)"/>
        <path id="Path_411" data-name="Path 411" class="cls-1" d="M47.922 45H4.078A4.083 4.083 0 0 0 0 49.078v26.51a4.083 4.083 0 0 0 4.078 4.078H20.96l-2.294 6.118h-2.352a1.02 1.02 0 0 0 0 2.039h19.372a1.02 1.02 0 0 0 0-2.039h-2.352l-2.294-6.117h16.882A4.083 4.083 0 0 0 52 75.588v-26.51A4.083 4.083 0 0 0 47.922 45zM4.078 47.039h43.844a2.042 2.042 0 0 1 2.039 2.039V71.51H2.039V49.078a2.042 2.042 0 0 1 2.039-2.039zm27.078 38.745H20.844l2.294-6.118h5.724zm16.765-8.157H4.078a2.042 2.042 0 0 1-2.039-2.039v-2.039h47.922v2.039a2.042 2.042 0 0 1-2.039 2.039z"/>
        <path id="Path_412" data-name="Path 412" class="cls-1" d="M41.02 185.2h21.411a1.02 1.02 0 0 0 1.02-1.02v-8.16a1.02 1.02 0 0 0-1.02-1.02H41.02a1.02 1.02 0 0 0-1.02 1.02v8.157a1.02 1.02 0 0 0 1.02 1.023zm1.02-8.157h19.372v6.118H42.039z" transform="translate(-35.922 -116.745)"/>
        <path id="Path_413" data-name="Path 413" class="cls-1" d="M299.176 113.353a9.176 9.176 0 1 0-9.176-9.177 9.187 9.187 0 0 0 9.176 9.177zm0-16.314a7.137 7.137 0 1 1-7.137 7.137 7.145 7.145 0 0 1 7.137-7.137z" transform="translate(-260.431 -44.902)"/>
        <path id="Path_414" data-name="Path 414" class="cls-1" d="M41.02 137.039h21.411a1.02 1.02 0 0 0 0-2.039H41.02a1.02 1.02 0 1 0 0 2.039z" transform="translate(-35.922 -80.824)"/>
        <path id="Path_415" data-name="Path 415" class="cls-1" d="M41.02 97.039h15.294a1.02 1.02 0 0 0 0-2.039H41.02a1.02 1.02 0 0 0 0 2.039z" transform="translate(-35.922 -44.902)"/>
    </g>
</svg>
