<svg xmlns="http://www.w3.org/2000/svg" width="56.299" height="42">
    <defs>
        <style>
            .cls-2{fill:#005450}
        </style>
    </defs>
    <g id="parents" transform="translate(0 -65.022)" style="opacity:.5">
        <g id="Group_492" data-name="Group 492" transform="translate(0 65.022)">
            <path id="Path_96" data-name="Path 96" class="cls-2" d="M104.9 209.865a1.1 1.1 0 0 0-.764 1.89 3.784 3.784 0 0 0 5.216 0 1.1 1.1 0 1 0-1.528-1.581 1.566 1.566 0 0 1-2.159 0 1.1 1.1 0 0 0-.765-.309z" transform="translate(-92.389 -193.938)"/>
            <g id="Group_491" data-name="Group 491">
                <path id="Path_97" data-name="Path 97" class="cls-2" d="M121.627 426.98a1.1 1.1 0 0 0 0 2.2h.006a1.1 1.1 0 1 0-.006-2.2z" transform="translate(-107.274 -387.18)"/>
                <path id="Path_98" data-name="Path 98" class="cls-2" d="M56.266 86.927a1.1 1.1 0 0 0-.722-1.309c-2.6-.861-5.71-2.8-5.71-7.154v-2.31c0-3.481-.6-6.051-1.82-7.857-1.474-2.174-3.877-3.276-7.141-3.276s-5.665 1.1-7.139 3.276c-1.225 1.806-1.821 4.376-1.821 7.857v2.31c0 4.353-3.1 6.293-5.707 7.154a1.1 1.1 0 0 0-.722 1.308c.567 2.287 1.438 3.612 3.019 4.355a6.255 6.255 0 0 0-.887 1.069c-1.612-2.454-4.712-3.29-7.355-4-.489-.132-.961-.259-1.415-.392v-.729a9.437 9.437 0 0 0 4.937-8.289v-4.368a9.426 9.426 0 1 0-18.853 0v4.367a9.436 9.436 0 0 0 4.937 8.288v.729c-.454.133-.926.26-1.415.392C4.729 89.352.094 90.6 0 96.285v9.637a1.1 1.1 0 0 0 1.1 1.1h8.315a1.1 1.1 0 0 0 0-2.2H8.084v-4.446a1.1 1.1 0 1 0-2.2 0v4.446H2.2v-8.51c.066-3.749 2.623-4.708 6.827-5.841.354-.1.713-.193 1.071-.294a4.487 4.487 0 0 0 8.521 0c.358.1.718.2 1.072.294 4.2 1.133 6.762 2.091 6.826 5.84v8.51H22.83v-4.446a1.1 1.1 0 1 0-2.2 0v4.446h-1.34a1.1 1.1 0 0 0 0 2.2h16.647a1.1 1.1 0 0 0 0-2.2H34.6v-4.446a1.1 1.1 0 1 0-2.2 0v4.446h-3.686v-8.51c.066-3.749 2.625-4.708 6.829-5.841.354-.1.713-.193 1.071-.293a4.487 4.487 0 0 0 8.521 0c.358.1.717.2 1.071.294 4.2 1.133 6.761 2.092 6.827 5.841v8.51h-3.685v-4.445a1.1 1.1 0 1 0-2.2 0v4.446h-1.34a1.1 1.1 0 0 0 0 2.2h8.325a1.1 1.1 0 0 0 1.1-1.1v-9.641a6.738 6.738 0 0 0-1.987-5c1.582-.743 2.454-2.069 3.021-4.356zM7.13 74.572a7.227 7.227 0 1 1 14.454 0v1.138c-2.89.1-6.533-.246-9.22-2.083a1.1 1.1 0 0 0-1.495.241c-.93 1.22-2.1 1.522-3.739 1.717zm9.517 14.195a2.29 2.29 0 1 1-4.58 0v-.683a9.414 9.414 0 0 0 4.58 0zm-2.289-2.6a7.237 7.237 0 0 1-7.228-7.229V77.8a7.681 7.681 0 0 0 4.817-1.844 18.786 18.786 0 0 0 9.637 1.955v1.029a7.236 7.236 0 0 1-7.226 7.229zm21.2-16.635c1.055-1.555 2.795-2.311 5.319-2.311s4.266.756 5.321 2.311a10.886 10.886 0 0 1 1.425 5.742c-2.038.355-4.438.071-5.764-2.552a1.11 1.11 0 0 0-1.963 0c-1.327 2.623-3.727 2.906-5.764 2.552a10.88 10.88 0 0 1 1.422-5.742zm.832 18.424c-.454.133-.926.26-1.415.392a25.264 25.264 0 0 0-4.1 1.362c-1.721-.293-2.46-.843-2.986-2.374a10.122 10.122 0 0 0 5.193-4.454 9.025 9.025 0 0 0 3.3 3.333v1.741zm6.779.81a2.29 2.29 0 1 1-4.58 0v-1.638a8.955 8.955 0 0 0 4.58 0zm-2.292-3.54a6.769 6.769 0 0 1-6.761-6.761V77.5a9.873 9.873 0 0 0 1.364.1 6.8 6.8 0 0 0 5.4-2.384 6.8 6.8 0 0 0 5.4 2.384 9.892 9.892 0 0 0 1.364-.1v.968a6.769 6.769 0 0 1-6.77 6.758zm10 4.484a25.246 25.246 0 0 0-4.093-1.361c-.489-.132-.96-.259-1.415-.392v-1.743a9.024 9.024 0 0 0 3.3-3.331 10.122 10.122 0 0 0 5.2 4.454c-.534 1.529-1.275 2.079-2.997 2.373z" transform="translate(0 -65.022)"/>
                <path id="Path_99" data-name="Path 99" class="cls-2" d="M362.822 426.98a1.1 1.1 0 0 0 0 2.2h.006a1.1 1.1 0 1 0-.006-2.2z" transform="translate(-321.948 -387.18)"/>
            </g>
        </g>
    </g>
</svg>
