<svg data-name="Iconly/Bulk/Arrow - Right" xmlns="http://www.w3.org/2000/svg" width="20.33" height="24" viewBox="0 0 20.33 24">
    <g data-name="Arrow - Right">
        <path data-name="Fill 4" d="M9.74 19.579c-.117-.116-.61-.548-1.02-.953A44.146 44.146 0 0 1 .672 6.844 9.656 9.656 0 0 1 0 4.446a4 4 0 0 1 .438-1.82A3.771 3.771 0 0 1 2.247 1.01 19.579 19.579 0 0 1 4.375.489 47.272 47.272 0 0 1 11.987 0a54.582 54.582 0 0 1 7.376.432 16.519 16.519 0 0 1 2.655.694A3.629 3.629 0 0 1 24 4.331v.116a10.062 10.062 0 0 1-.815 2.686 44.089 44.089 0 0 1-7.933 11.522 11.385 11.385 0 0 1-1.108.982 3.536 3.536 0 0 1-2.128.694 3.712 3.712 0 0 1-2.276-.751" transform="rotate(-90 12 12)" style="fill:#005450"/>
    </g>
</svg>
