<svg xmlns="http://www.w3.org/2000/svg" width="44.219" height="51.162" viewBox="0 0 44.219 51.162">
    <path data-name="Path 374" d="M74.412 11.73A11.742 11.742 0 0 1 67.1 4.478a1.154 1.154 0 0 0-1.091-.778H47.623a1.154 1.154 0 0 0-1.089.781 11.741 11.741 0 0 1-7.314 7.252 1.152 1.152 0 0 0-.787 1.091v8.716a27.009 27.009 0 0 0 5.449 16.337 28.007 28.007 0 0 0 12.533 9.335 1.155 1.155 0 0 0 .8 0 27.864 27.864 0 0 0 11.155-7.647.75.75 0 0 0-1.124-.994 26.362 26.362 0 0 1-10.431 7.187 26.493 26.493 0 0 1-11.734-8.784 25.52 25.52 0 0 1-5.148-15.436V13.07a13.26 13.26 0 0 0 7.938-7.87h17.891a13.26 13.26 0 0 0 7.938 7.87v8.467a25.572 25.572 0 0 1-4.333 14.288.75.75 0 0 0 1.246.835A27.067 27.067 0 0 0 75.2 21.537v-8.716a1.152 1.152 0 0 0-.786-1.091zM54.566 30.248a2.251 2.251 0 1 0 4.5 0v-1.967a2.679 2.679 0 0 0 .45-1.493 2.712 2.712 0 0 0-.847-1.964 2.68 2.68 0 0 0-2.012-.732 2.7 2.7 0 0 0-2.093 4.189zm1.055-3.569a1.2 1.2 0 0 1 1.124-1.088h.072a1.2 1.2 0 0 1 .968 1.91 1.128 1.128 0 0 0-.218.673v2.077a.75.75 0 1 1-1.5 0v-2.08a1.129 1.129 0 0 0-.218-.673 1.188 1.188 0 0 1-.227-.819zm21.73-18.072a7.955 7.955 0 0 1-7.1-7.036A1.747 1.747 0 0 0 68.508 0H45.125a1.747 1.747 0 0 0-1.74 1.571 7.955 7.955 0 0 1-7.1 7.036 1.746 1.746 0 0 0-1.575 1.741v11.189a30.669 30.669 0 0 0 6.09 18.416 31.377 31.377 0 0 0 15.478 11.124 1.756 1.756 0 0 0 1.077 0 31.377 31.377 0 0 0 15.48-11.124 30.669 30.669 0 0 0 6.09-18.416V10.348a1.746 1.746 0 0 0-1.574-1.741zm.074 12.93a29.18 29.18 0 0 1-5.794 17.521A29.683 29.683 0 0 1 56.892 49.65a.245.245 0 0 1-.15 0A29.683 29.683 0 0 1 42 39.058a29.18 29.18 0 0 1-5.794-17.521V10.348a.249.249 0 0 1 .226-.248 9.461 9.461 0 0 0 8.444-8.374.25.25 0 0 1 .248-.226h23.384a.25.25 0 0 1 .248.226A9.461 9.461 0 0 0 77.2 10.1a.25.25 0 0 1 .226.248zm-26.691-8.852a.75.75 0 0 0-1.27-.8 8.647 8.647 0 0 0-1.329 4.615v4.172a3.753 3.753 0 0 0-1.921 3.273v8.7a3.755 3.755 0 0 0 3.751 3.751h13.7a3.755 3.755 0 0 0 3.751-3.751v-8.7a3.753 3.753 0 0 0-1.916-3.276V16.5a8.678 8.678 0 0 0-13.337-7.329.75.75 0 0 0 .806 1.265A7.178 7.178 0 0 1 64 16.5v3.71a3.588 3.588 0 0 0-.329-.015H62.5V16.5a5.68 5.68 0 1 0-11.361 0v3.694h-1.174c-.111 0-.221.006-.329.015V16.5a7.15 7.15 0 0 1 1.1-3.812zm1.9 3.812a4.18 4.18 0 1 1 8.36 0v3.694h-8.36zm-2.672 5.195h13.7a2.253 2.253 0 0 1 2.251 2.251v8.7a2.253 2.253 0 0 1-2.251 2.251h-13.7a2.253 2.253 0 0 1-2.251-2.251v-8.7a2.253 2.253 0 0 1 2.254-2.251z" style="fill:rgba(0,84,80,.5)" transform="translate(-34.707)"/>
</svg>
