<svg xmlns="http://www.w3.org/2000/svg" width="73.359" height="54.428">
    <defs>
        <style>
            .cls-1{fill:rgba(0,84,80,.5)}
        </style>
    </defs>
    <g id="responsive" transform="translate(-8 -72)">
        <path id="Path_108" data-name="Path 108" class="cls-1" d="M36.733 400h-3.55a1.183 1.183 0 0 0 0 2.366h3.55a1.183 1.183 0 0 0 0-2.366z" transform="translate(-20.45 -279.488)"/>
        <path id="Path_109" data-name="Path 109" class="cls-1" d="M82.366 400h-1.183a1.183 1.183 0 0 0 0 2.366h1.183a1.183 1.183 0 0 0 0-2.366z" transform="translate(-61.351 -279.488)"/>
        <path id="Path_110" data-name="Path 110" class="cls-1" d="M76.626 86.2H74.26v-9.467A4.739 4.739 0 0 0 69.527 72H19.832a4.738 4.738 0 0 0-4.732 4.733v21.3h-2.367A4.738 4.738 0 0 0 8 102.764v18.931a4.738 4.738 0 0 0 4.733 4.733h11.832a4.739 4.739 0 0 0 4.733-4.733v-3.55h10.316l-.592 2.366h-3.808a1.183 1.183 0 0 0-1.183 1.183v3.55a1.183 1.183 0 0 0 1.183 1.183h41.412a4.739 4.739 0 0 0 4.733-4.733V90.931a4.739 4.739 0 0 0-4.733-4.731zm-49.695 35.5a2.37 2.37 0 0 1-2.366 2.366H12.733a2.37 2.37 0 0 1-2.366-2.366v-18.936a2.37 2.37 0 0 1 2.366-2.366h1.513l.914 2.741a1.183 1.183 0 0 0 1.123.809h4.733a1.183 1.183 0 0 0 1.123-.809l.914-2.741h1.513a2.37 2.37 0 0 1 2.366 2.366zm-10.19-21.3h3.816l-.395 1.183h-3.026zM29.3 115.779v-3.55h21.3v3.55zm21.3 2.366v2.366h-.259l-.592-2.366zm-2.7 2.366h-6.437l.592-2.366H47.3zm-11.5 3.55v-1.183h14.345a4.729 4.729 0 0 0 .488 1.183zm14.2-33.13v18.931H29.3v-7.1a4.739 4.739 0 0 0-4.733-4.733h-7.1v-21.3a2.37 2.37 0 0 1 2.366-2.366h49.694a2.37 2.37 0 0 1 2.366 2.366V86.2H55.328a4.739 4.739 0 0 0-4.728 4.731zM79 121.695a2.37 2.37 0 0 1-2.366 2.366h-21.3a2.37 2.37 0 0 1-2.366-2.366V90.931a2.37 2.37 0 0 1 2.366-2.366h21.3A2.37 2.37 0 0 1 79 90.931z"/>
        <path id="Path_111" data-name="Path 111" class="cls-1" d="M342.481 192h-21.3a1.183 1.183 0 0 0-1.181 1.183V220.4a1.183 1.183 0 0 0 1.183 1.183h21.3a1.183 1.183 0 0 0 1.183-1.183v-27.217a1.183 1.183 0 0 0-1.185-1.183zm-1.181 27.214h-18.934v-24.848H341.3z" transform="translate(-265.855 -102.252)"/>
        <circle id="Ellipse_17" data-name="Ellipse 17" class="cls-1" cx="1.31" cy="1.31" r="1.31" transform="translate(63.019 120.469)"/>
    </g>
</svg>
