<svg xmlns="http://www.w3.org/2000/svg" width="48.148" height="35.723" viewBox="0 0 48.148 35.723">
    <defs>
        <style>
            .cls-1{fill:rgba(0,84,80,.5)}
        </style>
    </defs>
    <g id="responsive" transform="translate(-8 -72)">
        <path id="Path_108" data-name="Path 108" class="cls-1" d="M35.106 400h-2.33a.777.777 0 0 0 0 1.553h2.33a.777.777 0 0 0 0-1.553z" transform="translate(-21.67 -296.16)"/>
        <path id="Path_109" data-name="Path 109" class="cls-1" d="M81.553 400h-.777a.777.777 0 0 0 0 1.553h.777a.777.777 0 0 0 0-1.553z" transform="translate(-65.011 -296.16)"/>
        <path id="Path_110" data-name="Path 110" class="cls-1" d="M53.042 81.319h-1.553v-6.213A3.11 3.11 0 0 0 48.383 72H15.766a3.11 3.11 0 0 0-3.106 3.106v13.979h-1.554A3.11 3.11 0 0 0 8 92.191v12.425a3.11 3.11 0 0 0 3.106 3.106h7.766a3.11 3.11 0 0 0 3.106-3.106v-2.33h6.771l-.388 1.553h-2.5a.777.777 0 0 0-.777.777v2.33a.777.777 0 0 0 .777.777h27.181a3.11 3.11 0 0 0 3.106-3.106V84.425a3.11 3.11 0 0 0-3.106-3.106zm-32.617 23.3a1.555 1.555 0 0 1-1.553 1.553h-7.766a1.555 1.555 0 0 1-1.553-1.553V92.191a1.555 1.555 0 0 1 1.553-1.553h.994l.6 1.8a.777.777 0 0 0 .737.531h3.106a.777.777 0 0 0 .737-.531l.6-1.8h.993a1.555 1.555 0 0 1 1.553 1.553zm-6.688-13.981h2.5l-.259.777H14zm8.242 10.1V98.4h13.978v2.33zm13.979 1.553v1.553h-.17l-.388-1.553zm-1.772 1.553h-4.223l.388-1.553H33.8zm-7.547 2.33v-.777h9.417a3.1 3.1 0 0 0 .32.777zm9.319-21.744v12.421H21.979v-4.66a3.11 3.11 0 0 0-3.106-3.106h-4.66V75.106a1.555 1.555 0 0 1 1.553-1.553h32.617a1.555 1.555 0 0 1 1.553 1.553v6.213H39.064a3.11 3.11 0 0 0-3.107 3.106zM54.6 104.617a1.555 1.555 0 0 1-1.553 1.553H39.064a1.555 1.555 0 0 1-1.553-1.553V84.425a1.555 1.555 0 0 1 1.553-1.553h13.978a1.555 1.555 0 0 1 1.558 1.553z"/>
        <path id="Path_111" data-name="Path 111" class="cls-1" d="M334.755 192h-13.978a.777.777 0 0 0-.777.777v17.862a.777.777 0 0 0 .777.777h13.979a.777.777 0 0 0 .777-.777v-17.862a.777.777 0 0 0-.778-.777zm-.777 17.862h-12.425v-16.309h12.425z" transform="translate(-281.713 -108.351)"/>
        <circle id="Ellipse_17" data-name="Ellipse 17" class="cls-1" cx=".86" cy=".86" r=".86" transform="translate(44.111 103.812)"/>
    </g>
</svg>
