<svg xmlns="http://www.w3.org/2000/svg" width="54.43" height="54.428" viewBox="0 0 54.43 54.428">
    <defs>
        <style>
            .cls-1{fill:rgba(0,84,80,.5)}
        </style>
    </defs>
    <g id="rocket" transform="translate(0 -.001)">
        <path id="Path_416" data-name="Path 416" class="cls-1" d="M20.645 43.239a1.139 1.139 0 0 1-.8-.331L5.266 28.332a1.136 1.136 0 0 1-.045-1.558l10.924-12.238C23.781 5.6 36.216-.178 47.059.005a1.132 1.132 0 0 1 1.107 1.107c.252 10.85-5.595 23.278-14.551 30.93L21.4 42.951a1.123 1.123 0 0 1-.755.288zM7.627 27.486l13.061 13.061 11.437-10.21c8.175-6.99 13.61-18.13 13.775-28.066-9.936.166-21.074 5.6-28.05 13.757z" transform="translate(6.255)"/>
        <path id="Path_417" data-name="Path 417" class="cls-1" d="M15.282 34.842a1.052 1.052 0 0 1-.324-.05 1.122 1.122 0 0 1-.8-.875L12.6 23.06a1.134 1.134 0 1 1 2.245-.322l1.215 8.482a26.478 26.478 0 0 0 6.183-16.92 1.134 1.134 0 0 1 2.268 0 28.72 28.72 0 0 1-8.351 20.177 1.275 1.275 0 0 1-.878.365z" transform="translate(15.961 16.697)"/>
        <path id="Path_418" data-name="Path 418" class="cls-1" d="M13.244 18.077a.979.979 0 0 1-.161-.011L2.227 16.51a1.134 1.134 0 0 1-.635-1.93A28.785 28.785 0 0 1 21.84 6.155a1.134 1.134 0 1 1 0 2.268A26.471 26.471 0 0 0 4.912 14.6l8.493 1.218a1.134 1.134 0 0 1-.161 2.257z" transform="translate(1.59 7.803)"/>
        <path id="Path_419" data-name="Path 419" class="cls-1" d="M20.3 15.7a5.668 5.668 0 1 1 4.01-1.658A5.652 5.652 0 0 1 20.3 15.7zm0-9.067a3.4 3.4 0 1 0 2.406.993 3.394 3.394 0 0 0-2.406-.99zm3.207 6.609h.023z" transform="translate(18.556 5.537)"/>
        <path id="Path_420" data-name="Path 420" class="cls-1" d="M1.134 34.141a1.132 1.132 0 0 1-1.086-1.458c.372-1.241 3.7-12.2 6.13-14.63a7.01 7.01 0 0 1 9.913 9.913C13.665 30.392 2.7 33.724 1.461 34.1a1.246 1.246 0 0 1-.327.045zm10-15.873a4.734 4.734 0 0 0-3.354 1.386c-1.307 1.31-3.48 7.164-4.922 11.629 4.463-1.438 10.319-3.615 11.628-4.924a4.739 4.739 0 0 0-3.35-8.092z" transform="translate(0 20.288)"/>
    </g>
</svg>
