<svg xmlns="http://www.w3.org/2000/svg" width="42" height="42">
    <defs>
        <style>
            .cls-2{fill:#005450}
        </style>
    </defs>
    <g id="semi-detached" style="opacity:.5">
        <g id="Group_418" data-name="Group 418">
            <path id="Path_53" data-name="Path 53" class="cls-2" d="M122.067 161.329a2.624 2.624 0 1 0 2.624 2.624 2.627 2.627 0 0 0-2.624-2.624zm0 3.607a.983.983 0 1 1 .983-.983.984.984 0 0 1-.983.983z" transform="translate(-109.645 -148.095)"/>
            <path id="Path_54" data-name="Path 54" class="cls-2" d="M42 27.573a.818.818 0 0 0-.139-.459l-4.289-6.354V6.07h.6a.82.82 0 0 0 .764-1.12L37.19.52a.821.821 0 0 0-.763-.52H20.012a.821.821 0 0 0-.764.52l-1.74 4.43a.82.82 0 0 0 .764 1.12h.6v2.815l-4.915-3.918a2.449 2.449 0 0 0-3.07 0L.309 13.406a.82.82 0 0 0-.068 1.221L2.414 16.8v8.29a.82.82 0 0 0 1.641 0v-8.376l8.367-6.676 8.367 6.676v23.645h-4.265V30.352a.82.82 0 0 0-.82-.82H9.141a.82.82 0 0 0-.82.82v10.007H4.055v-7.887a.82.82 0 1 0-1.641 0v8.708a.82.82 0 0 0 .82.82H41.18a.82.82 0 0 0 .82-.82V27.573zM24.842 14a.82.82 0 0 0-.307-.6l-.746-.595v-1.96h1.969v3.281h-.92a.818.818 0 0 0 0-.131zm-2.412 7.831h13.884l3.322 4.922H22.43zm-1.859-20.19h15.3l1.1 2.789H19.475zm-.063 4.43H35.93V20.18h-13.5V16.8l1.028-1.028h3.12a.82.82 0 0 0 .82-.82v-4.921a.82.82 0 0 0-.82-.82h-3.609a.82.82 0 0 0-.82.82V11.5l-1.641-1.309zm-8.086 2.1a.819.819 0 0 0-.512.179l-8.693 6.934-1.167-1.167 9.86-7.868a.816.816 0 0 1 1.023 0l9.861 7.868-1.167 1.167-8.693-6.936a.819.819 0 0 0-.512-.179zM9.961 40.359v-9.187h4.922v9.187zm12.469 0V28.393h17.93v11.966z"/>
            <path id="Path_55" data-name="Path 55" class="cls-2" d="M69.426 246.659v5.25a.82.82 0 0 0 .82.82h3.937a.82.82 0 0 0 .82-.82v-5.25a.82.82 0 0 0-.82-.82h-3.937a.82.82 0 0 0-.82.82zm1.641.82h2.3v3.609h-2.3z" transform="translate(-63.731 -225.673)"/>
            <path id="Path_56" data-name="Path 56" class="cls-2" d="M163.427 246.659v5.25a.82.82 0 0 0 .82.82h3.938a.82.82 0 0 0 .82-.82v-5.25a.82.82 0 0 0-.82-.82h-3.937a.82.82 0 0 0-.821.82zm1.641.82h2.3v3.609h-2.3z" transform="translate(-150.021 -225.673)"/>
            <path id="Path_57" data-name="Path 57" class="cls-2" d="M306.471 374h-3.937a.82.82 0 0 0-.82.82v5.25a.82.82 0 0 0 .82.82h3.938a.82.82 0 0 0 .82-.82v-5.25a.82.82 0 0 0-.821-.82zm-.82 5.25h-2.3v-3.609h2.3z" transform="translate(-276.963 -343.32)"/>
            <path id="Path_58" data-name="Path 58" class="cls-2" d="M400.472 374h-3.937a.82.82 0 0 0-.82.82v5.25a.82.82 0 0 0 .82.82h3.938a.82.82 0 0 0 .82-.82v-5.25a.82.82 0 0 0-.821-.82zm-.82 5.25h-2.3v-3.609h2.3z" transform="translate(-363.253 -343.32)"/>
            <path id="Path_59" data-name="Path 59" class="cls-2" d="M354.82 118.844h3.609a.82.82 0 0 0 .82-.82V113.1a.82.82 0 0 0-.82-.82h-3.609a.82.82 0 0 0-.82.82v4.922a.82.82 0 0 0 .82.822zm.82-4.922h1.969v3.278h-1.969z" transform="translate(-324.961 -103.07)"/>
            <circle id="Ellipse_16" data-name="Ellipse 16" class="cls-2" cx=".82" cy=".82" r=".82" transform="translate(2.414 27.961)"/>
        </g>
    </g>
</svg>
