<svg xmlns="http://www.w3.org/2000/svg" width="28" height="28">
    <path data-name="Vector" d="M1.167 0H3.5a1.167 1.167 0 0 1 1.167 1.167V3.5A1.167 1.167 0 0 1 3.5 4.667H1.167A1.167 1.167 0 0 1 0 3.5V1.167A1.167 1.167 0 0 1 1.167 0z" transform="translate(4.667 4.667)" style="fill:#b0b7c3;opacity:.3"/>
    <path data-name="Vector" d="M1.167 7H3.5a1.167 1.167 0 0 1 1.167 1.167V10.5A1.167 1.167 0 0 1 3.5 11.667H1.167A1.167 1.167 0 0 1 0 10.5V8.167A1.167 1.167 0 0 1 1.167 7zm7-7H10.5a1.167 1.167 0 0 1 1.167 1.167V3.5A1.167 1.167 0 0 1 10.5 4.667H8.167A1.167 1.167 0 0 1 7 3.5V1.167A1.167 1.167 0 0 1 8.167 0zm0 7H10.5a1.167 1.167 0 0 1 1.167 1.167V10.5a1.167 1.167 0 0 1-1.167 1.167H8.167A1.167 1.167 0 0 1 7 10.5V8.167A1.167 1.167 0 0 1 8.167 7zm7-7H17.5a1.167 1.167 0 0 1 1.167 1.167V3.5A1.167 1.167 0 0 1 17.5 4.667h-2.333A1.167 1.167 0 0 1 14 3.5V1.167A1.167 1.167 0 0 1 15.167 0zm0 7H17.5a1.167 1.167 0 0 1 1.167 1.167V10.5a1.167 1.167 0 0 1-1.167 1.167h-2.333A1.167 1.167 0 0 1 14 10.5V8.167A1.167 1.167 0 0 1 15.167 7zm-14 7H3.5a1.167 1.167 0 0 1 1.167 1.167V17.5A1.167 1.167 0 0 1 3.5 18.667H1.167A1.167 1.167 0 0 1 0 17.5v-2.333A1.167 1.167 0 0 1 1.167 14zm7 0H10.5a1.167 1.167 0 0 1 1.167 1.167V17.5a1.167 1.167 0 0 1-1.167 1.167H8.167A1.167 1.167 0 0 1 7 17.5v-2.333A1.167 1.167 0 0 1 8.167 14zm7 0H17.5a1.167 1.167 0 0 1 1.167 1.167V17.5a1.167 1.167 0 0 1-1.167 1.167h-2.333A1.167 1.167 0 0 1 14 17.5v-2.333A1.167 1.167 0 0 1 15.167 14z" transform="translate(4.667 4.667)" style="fill:#005450;opacity:.5"/>
</svg>
