<svg xmlns="http://www.w3.org/2000/svg" width="26" height="26">
    <path style="fill:none" d="M0 0h26v26H0z"/>
    <path data-name="Combined Shape" d="M17.358 7.5h.142a2.5 2.5 0 1 1 0 5h-.072a.553.553 0 0 0-.4.927l.05.05a2.5 2.5 0 1 1-3.537 3.537l-.043-.044a.553.553 0 0 0-.934.388v.142a2.5 2.5 0 0 1-5 0 .582.582 0 0 0-.4-.571.539.539 0 0 0-.591.1l-.05.05a2.5 2.5 0 1 1-3.537-3.537l.044-.043a.553.553 0 0 0-.388-.934H2.5a2.5 2.5 0 0 1 0-5 .582.582 0 0 0 .571-.4.539.539 0 0 0-.1-.591l-.05-.05a2.5 2.5 0 1 1 3.535-3.538l.043.044a.542.542 0 0 0 .6.108l.12-.025a.54.54 0 0 0 .281-.471V2.5a2.5 2.5 0 1 1 5 0v.072a.545.545 0 0 0 .336.5.539.539 0 0 0 .591-.1l.05-.05a2.5 2.5 0 1 1 3.537 3.537l-.044.043a.542.542 0 0 0-.108.6l.025.12a.54.54 0 0 0 .471.278z" transform="translate(3 3)" style="fill:#b0b7c3;opacity:.3"/>
    <path d="M3 6a3 3 0 1 0-3-3 3 3 0 0 0 3 3z" transform="translate(10 10)" style="fill:#005450;opacity:.5"/>
</svg>
