<svg xmlns="http://www.w3.org/2000/svg" width="48.004" height="42.441" viewBox="0 0 48.004 42.441">
    <defs>
        <style>
            .cls-1{fill:rgba(0,84,80,.5)}
        </style>
    </defs>
    <g id="tech-support" transform="translate(0 -29.666)">
        <path id="Path_102" data-name="Path 102" class="cls-1" d="M46.215 32.521a.7.7 0 0 0-1.085.9A6.436 6.436 0 0 1 46.6 37.5v9.264a6.438 6.438 0 0 1-6.433 6.436h-.953a.7.7 0 0 0-.7.7v3.668a1.475 1.475 0 0 1-2.585.97l-4.464-5.1a.7.7 0 0 0-.529-.24h-9.33a6.438 6.438 0 0 1-6.431-6.431V37.5a6.438 6.438 0 0 1 6.431-6.431h18.56a6.425 6.425 0 0 1 3.02.753.7.7 0 0 0 .663-1.24 7.837 7.837 0 0 0-3.683-.919h-18.56a7.846 7.846 0 0 0-7.837 7.837v3.82H7.837A7.846 7.846 0 0 0 0 49.157v9.264a7.846 7.846 0 0 0 7.837 7.837h.249v2.964a2.858 2.858 0 0 0 1.867 2.7 2.907 2.907 0 0 0 1.024.188 2.859 2.859 0 0 0 2.157-.987l4.254-4.861H19a.7.7 0 1 0 0-1.406h-1.93a.7.7 0 0 0-.529.24l-4.464 5.1a1.475 1.475 0 0 1-2.585-.971v-3.67a.7.7 0 0 0-.7-.7h-.955a6.438 6.438 0 0 1-6.431-6.431v-9.267a6.438 6.438 0 0 1 6.431-6.431h5.932v4.041a7.846 7.846 0 0 0 7.837 7.833h9.008l2.214 2.53v1.287a6.438 6.438 0 0 1-6.428 6.435h-4.587a.7.7 0 0 0 0 1.406H26.4a7.846 7.846 0 0 0 7.829-7.526l.641.733a2.859 2.859 0 0 0 2.157.987 2.91 2.91 0 0 0 1.025-.188 2.858 2.858 0 0 0 1.867-2.7V54.6h.249A7.846 7.846 0 0 0 48 46.767V37.5a7.846 7.846 0 0 0-1.788-4.983z"/>
        <path id="Path_103" data-name="Path 103" class="cls-1" d="M139.979 315.323v.044a.7.7 0 0 0 1.406 0v-.044a.7.7 0 0 0-1.406 0z" transform="translate(-126.855 -258.237)"/>
        <path id="Path_104" data-name="Path 104" class="cls-1" d="M176.136 315.323v.044a.7.7 0 0 0 1.406 0v-.044a.7.7 0 0 0-1.406 0z" transform="translate(-159.622 -258.237)"/>
        <path id="Path_105" data-name="Path 105" class="cls-1" d="M211.569 315.323a.7.7 0 0 0-1.406 0v.044a.7.7 0 0 0 1.406 0z" transform="translate(-190.459 -258.237)"/>
        <path id="Path_106" data-name="Path 106" class="cls-1" d="M252.361 71.891a2.226 2.226 0 0 0-.224-1.7l-1.1-1.9a2.241 2.241 0 0 0-3.062-.82l-.589.34q-.241-.153-.494-.286v-.68a2.244 2.244 0 0 0-2.241-2.241h-2.2a2.244 2.244 0 0 0-2.241 2.241v.68q-.252.133-.494.286l-.589-.34a2.244 2.244 0 0 0-3.062.82l-1.1 1.9a2.241 2.241 0 0 0 .82 3.062l.589.34q-.006.143-.006.285c0 .095 0 .19.006.285l-.589.34a2.244 2.244 0 0 0-.82 3.062l1.1 1.9a2.244 2.244 0 0 0 3.062.82l.589-.34q.241.153.494.286v.68a2.244 2.244 0 0 0 2.241 2.241h2.2a2.244 2.244 0 0 0 2.241-2.241v-.68q.252-.133.494-.286l.589.34a2.244 2.244 0 0 0 3.062-.82l1.1-1.9a2.241 2.241 0 0 0-.82-3.062l-.589-.34q.006-.143.006-.285t-.006-.285l.589-.34a2.227 2.227 0 0 0 1.044-1.361zM251 71.527a.83.83 0 0 1-.389.507l-.97.56a.7.7 0 0 0-.348.681 5.847 5.847 0 0 1 0 1.2.7.7 0 0 0 .348.681l.97.56a.835.835 0 0 1 .306 1.14l-1.1 1.9a.836.836 0 0 1-1.14.306l-.971-.56a.7.7 0 0 0-.765.04 5.779 5.779 0 0 1-1.04.6.7.7 0 0 0-.417.642v1.119a.836.836 0 0 1-.835.835h-2.2a.836.836 0 0 1-.835-.835v-1.11a.7.7 0 0 0-.417-.642 5.773 5.773 0 0 1-1.04-.6.7.7 0 0 0-.765-.04l-.97.56a.836.836 0 0 1-1.14-.306l-1.1-1.9a.836.836 0 0 1 .306-1.14l.97-.56a.7.7 0 0 0 .348-.681 5.831 5.831 0 0 1 0-1.2.7.7 0 0 0-.348-.681l-.97-.56a.835.835 0 0 1-.306-1.14l1.1-1.9a.836.836 0 0 1 1.14-.306l.971.56a.7.7 0 0 0 .765-.04 5.772 5.772 0 0 1 1.04-.6.7.7 0 0 0 .416-.642v-1.134a.836.836 0 0 1 .835-.835h2.2a.836.836 0 0 1 .835.835v1.119a.7.7 0 0 0 .416.642 5.78 5.78 0 0 1 1.04.6.7.7 0 0 0 .765.04l.971-.56a.835.835 0 0 1 1.14.306l1.1 1.9a.829.829 0 0 1 .084.639z" transform="translate(-212.667 -31.659)"/>
        <path id="Path_107" data-name="Path 107" class="cls-1" d="M287.7 117.5a4.317 4.317 0 1 0 4.317 4.317 4.322 4.322 0 0 0-4.317-4.317zm0 7.227a2.91 2.91 0 1 1 2.91-2.91 2.914 2.914 0 0 1-2.91 2.91z" transform="translate(-256.818 -79.602)"/>
    </g>
</svg>
