<svg xmlns="http://www.w3.org/2000/svg" width="61.562" height="54.428">
    <defs>
        <style>
            .cls-1{fill:rgba(0,84,80,.5)}
        </style>
    </defs>
    <g id="tech-support" transform="translate(0 -29.666)">
        <path id="Path_102" data-name="Path 102" class="cls-1" d="M59.268 33.327a.9.9 0 1 0-1.391 1.148 8.253 8.253 0 0 1 1.881 5.242V51.6a8.256 8.256 0 0 1-8.247 8.247h-1.222a.9.9 0 0 0-.9.9v4.7a1.891 1.891 0 0 1-3.314 1.245L40.35 60.15a.9.9 0 0 0-.679-.308H27.709a8.256 8.256 0 0 1-8.247-8.242V39.717a8.256 8.256 0 0 1 8.247-8.247h23.8a8.239 8.239 0 0 1 3.873.966.9.9 0 0 0 .85-1.59 10.051 10.051 0 0 0-4.724-1.179h-23.8a10.062 10.062 0 0 0-10.05 10.05v4.895h-7.607A10.062 10.062 0 0 0 0 54.662v11.881a10.062 10.062 0 0 0 10.051 10.05h.32v3.8a3.666 3.666 0 0 0 2.395 3.459 3.728 3.728 0 0 0 1.314.241 3.667 3.667 0 0 0 2.767-1.266l5.453-6.234h2.068a.9.9 0 0 0 0-1.8h-2.476a.9.9 0 0 0-.679.308l-5.724 6.539a1.891 1.891 0 0 1-3.315-1.246v-4.7a.9.9 0 0 0-.9-.9h-1.223A8.256 8.256 0 0 1 1.8 66.543V54.662a8.256 8.256 0 0 1 8.247-8.247h7.607V51.6a10.062 10.062 0 0 0 10.055 10.048h11.552l2.839 3.245v1.65a8.256 8.256 0 0 1-8.247 8.247h-5.88a.9.9 0 0 0 0 1.8h5.88a10.061 10.061 0 0 0 10.041-9.651l.823.94a3.666 3.666 0 0 0 2.767 1.266 3.732 3.732 0 0 0 1.314-.241 3.665 3.665 0 0 0 2.394-3.458v-3.8h.32A10.062 10.062 0 0 0 61.562 51.6V39.717a10.062 10.062 0 0 0-2.294-6.39z"/>
        <path id="Path_103" data-name="Path 103" class="cls-1" d="M139.979 315.522v.057a.9.9 0 0 0 1.8 0v-.057a.9.9 0 0 0-1.8 0z" transform="translate(-123.148 -250.692)"/>
        <path id="Path_104" data-name="Path 104" class="cls-1" d="M176.136 315.522v.057a.9.9 0 0 0 1.8 0v-.057a.9.9 0 0 0-1.8 0z" transform="translate(-154.958 -250.692)"/>
        <path id="Path_105" data-name="Path 105" class="cls-1" d="M211.967 315.522a.9.9 0 0 0-1.8 0v.057a.9.9 0 0 0 1.8 0z" transform="translate(-184.894 -250.692)"/>
        <path id="Path_106" data-name="Path 106" class="cls-1" d="M257.357 73.95a2.855 2.855 0 0 0-.287-2.181l-1.409-2.441a2.874 2.874 0 0 0-3.926-1.052l-.755.436q-.31-.2-.633-.366v-.872a2.877 2.877 0 0 0-2.874-2.874h-2.818a2.878 2.878 0 0 0-2.874 2.874v.872q-.323.17-.633.366l-.755-.436a2.877 2.877 0 0 0-3.926 1.052l-1.409 2.441a2.874 2.874 0 0 0 1.052 3.926l.756.436q-.007.183-.007.366c0 .121 0 .243.007.365l-.756.436a2.878 2.878 0 0 0-1.052 3.926l1.409 2.441a2.878 2.878 0 0 0 3.926 1.052l.755-.436q.309.2.633.366v.871a2.878 2.878 0 0 0 2.874 2.874h2.818a2.878 2.878 0 0 0 2.874-2.874v-.871q.323-.17.633-.366l.755.436a2.878 2.878 0 0 0 3.926-1.052l1.409-2.441a2.874 2.874 0 0 0-1.052-3.926l-.756-.436q.007-.183.007-.365t-.007-.365l.756-.436a2.856 2.856 0 0 0 1.339-1.745zm-1.742-.467a1.064 1.064 0 0 1-.5.65l-1.244.718a.9.9 0 0 0-.446.874 7.5 7.5 0 0 1 0 1.543.9.9 0 0 0 .446.874l1.244.718a1.071 1.071 0 0 1 .392 1.463l-1.407 2.441a1.072 1.072 0 0 1-1.463.392l-1.245-.719a.9.9 0 0 0-.981.052 7.411 7.411 0 0 1-1.334.772.9.9 0 0 0-.534.824v1.435a1.072 1.072 0 0 1-1.071 1.071h-2.818a1.072 1.072 0 0 1-1.071-1.071v-1.436a.9.9 0 0 0-.534-.824 7.4 7.4 0 0 1-1.334-.772.9.9 0 0 0-.981-.052l-1.245.719a1.072 1.072 0 0 1-1.463-.392l-1.409-2.441a1.072 1.072 0 0 1 .392-1.463l1.244-.718a.9.9 0 0 0 .446-.874 7.478 7.478 0 0 1 0-1.543.9.9 0 0 0-.446-.874l-1.244-.718a1.071 1.071 0 0 1-.392-1.463l1.409-2.441a1.072 1.072 0 0 1 1.463-.392l1.245.719a.9.9 0 0 0 .981-.052 7.4 7.4 0 0 1 1.334-.772.9.9 0 0 0 .534-.824v-1.433a1.072 1.072 0 0 1 1.071-1.071h2.818a1.072 1.072 0 0 1 1.071 1.071v1.436a.9.9 0 0 0 .534.824 7.412 7.412 0 0 1 1.334.772.9.9 0 0 0 .981.052l1.245-.719a1.071 1.071 0 0 1 1.463.392l1.409 2.441a1.063 1.063 0 0 1 .106.811z" transform="translate(-206.453 -30.734)"/>
        <path id="Path_107" data-name="Path 107" class="cls-1" d="M288.924 117.5a5.536 5.536 0 1 0 5.536 5.536 5.542 5.542 0 0 0-5.536-5.536zm0 9.268a3.732 3.732 0 1 1 3.732-3.732 3.737 3.737 0 0 1-3.732 3.732z" transform="translate(-249.314 -77.276)"/>
    </g>
</svg>
