<svg id="training" xmlns="http://www.w3.org/2000/svg" width="51.975" height="51.975" viewBox="0 0 51.975 51.975">
    <defs>
        <style>
            .cls-1{fill:rgba(0,84,80,.5)}
        </style>
    </defs>
    <path id="Path_439" data-name="Path 439" class="cls-1" d="M47.783 38.562v-1.677H50.3v-6.706h1.677v-5.03h-3.356v-6.532a4.166 4.166 0 0 0-3.282-4.092l-4.263-.946v-1.226a5.862 5.862 0 0 0 2.515-4.808V5.868A5.875 5.875 0 0 0 37.724 0H0v28.5h23.472v1.677h1.677v1.752a5.034 5.034 0 0 0-4.192 4.954v1.677a5.015 5.015 0 0 0 1.677 3.74v1.5l-3.436.982a3.327 3.327 0 0 0-1.598 1.024 3.327 3.327 0 0 0-1.594-1.027l-3.431-.979v-1.5a5.013 5.013 0 0 0 1.677-3.739v-1.676a5.03 5.03 0 1 0-10.06 0v1.677A5.015 5.015 0 0 0 5.868 42.3v1.5l-3.436.982A3.366 3.366 0 0 0 0 48v3.971h51.975V48a3.367 3.367 0 0 0-2.432-3.224l-3.436-.976v-1.5a5.015 5.015 0 0 0 1.676-3.738zm-1.677 0a3.353 3.353 0 0 1-6.706 0v-1.677a3.353 3.353 0 1 1 6.706 0zM34.37 45.806a3.327 3.327 0 0 0-1.594-1.027l-3.435-.979v-1.5a5.013 5.013 0 0 0 1.677-3.739v-1.676h6.706v1.677A5.015 5.015 0 0 0 39.4 42.3v1.5l-3.436.982a3.327 3.327 0 0 0-1.594 1.024zM50.3 28.5H25.149v-1.674H50.3zm-5.322-12.34a2.5 2.5 0 0 1 1.969 2.455v6.532H28.5v-6.53a2.5 2.5 0 0 1 1.969-2.456l4.353-.967a3.46 3.46 0 0 0 5.8 0zM39.4 14.02a1.849 1.849 0 0 1-3.353 0v-.854a5.809 5.809 0 0 0 3.353 0zm2.515-8.152v1.677a4.191 4.191 0 1 1-8.383 0V5.868a4.191 4.191 0 1 1 8.383 0zM1.677 26.826V1.677h31.948a5.846 5.846 0 0 0-1.77 4.192v1.676a5.861 5.861 0 0 0 2.515 4.808v1.226l-4.263.947a4.165 4.165 0 0 0-3.282 4.091v6.532h-3.353v1.677zm46.945 3.353v5.03H47.49a5.022 5.022 0 0 0-9.473 0h-7.293a5.039 5.039 0 0 0-3.9-3.278v-1.752zm-25.988 6.706a3.353 3.353 0 0 1 6.706 0v1.677a3.353 3.353 0 0 1-6.706 0zm3.353 6.706a5.005 5.005 0 0 0 1.677-.293v.9a2.144 2.144 0 0 1-1.677 1.07 2.144 2.144 0 0 1-1.677-1.07v-.9a5.005 5.005 0 0 0 1.677.294zm-6.329 2.8 3.453-.986a3.454 3.454 0 0 0 5.75 0l3.453.986A1.684 1.684 0 0 1 33.531 48v2.3H18.443V48a1.685 1.685 0 0 1 1.215-1.609zm-13.79-9.506a3.353 3.353 0 0 1 6.706 0v1.677a3.353 3.353 0 0 1-6.706 0zm3.353 6.706A5.005 5.005 0 0 0 10.9 43.3v.9a2.144 2.144 0 0 1-1.677 1.07 2.144 2.144 0 0 1-1.678-1.07v-.9a5.005 5.005 0 0 0 1.676.292zM1.677 48a1.685 1.685 0 0 1 1.216-1.612l3.453-.988a3.652 3.652 0 0 0 2.876 1.54A3.649 3.649 0 0 0 12.1 45.4l3.453.986A1.684 1.684 0 0 1 16.765 48v2.3H1.677zm47.406-1.612A1.684 1.684 0 0 1 50.3 48v2.3H35.209V48a1.685 1.685 0 0 1 1.216-1.612l3.453-.986a3.454 3.454 0 0 0 5.75 0zM44.43 44.2a1.849 1.849 0 0 1-3.353 0v-.9a4.936 4.936 0 0 0 3.353 0zm0 0"/>
    <path id="Path_440" data-name="Path 440" class="cls-1" d="M32 32h1.677v1.677H32zm0 0" transform="translate(-28.647 -28.647)"/>
    <path id="Path_441" data-name="Path 441" class="cls-1" d="M64 32h6.706v1.677H64zm0 0" transform="translate(-57.294 -28.647)"/>
    <path id="Path_442" data-name="Path 442" class="cls-1" d="M32 64h1.677v1.677H32zm0 0" transform="translate(-28.647 -57.294)"/>
    <path id="Path_443" data-name="Path 443" class="cls-1" d="M64 64h6.706v1.677H64zm0 0" transform="translate(-57.294 -57.294)"/>
    <path id="Path_444" data-name="Path 444" class="cls-1" d="M48.766 91.688 45.4 93.182a26.639 26.639 0 0 1-10.89 2.311h-.838v10.06H32v1.677h18.443v-1.677h-1.677zm-1.677 2.58v11.284h-1.676V94.994c.225-.093.45-.181.673-.28zm-5.03 1.885c.563-.155 1.122-.33 1.677-.521v9.92H42.06zm-1.677 9.4h-1.676v-8.7q.844-.125 1.677-.3zm-5.03-8.395c.562-.016 1.12-.054 1.677-.1v8.5h-1.676zm0 0" transform="translate(-28.647 -82.08)"/>
</svg>
