<svg xmlns="http://www.w3.org/2000/svg" width="54.428" height="54.428">
    <defs>
        <style>
            .cls-1{fill:rgba(0,84,80,.5)}
        </style>
    </defs>
    <g id="witness" transform="translate(.001)">
        <path id="Path_445" data-name="Path 445" class="cls-1" d="M54.064 136.167c-4.947-6.027-15.42-13.06-26.851-13.06-11.472 0-21.945 7.081-26.851 13.06a1.6 1.6 0 0 0 0 2.031c5.064 6.173 15.562 13.061 26.851 13.061 11.69 0 22.119-7.3 26.851-13.06a1.6 1.6 0 0 0 0-2.032zm-15.977 1.015a10.874 10.874 0 1 1-10.874-10.874 10.887 10.887 0 0 1 10.875 10.875zm-34.325 0a38.664 38.664 0 0 1 12.245-8.508 14.04 14.04 0 0 0 0 17.013 37.959 37.959 0 0 1-12.243-8.5zm34.657 8.507a14.04 14.04 0 0 0 0-17.013 37.966 37.966 0 0 1 12.243 8.5 38.662 38.662 0 0 1-12.243 8.514z" transform="translate(0 -109.969)"/>
        <path id="Path_446" data-name="Path 446" class="cls-1" d="M204 209.443a5.443 5.443 0 1 0 5.443-5.443 5.449 5.449 0 0 0-5.443 5.443zm7.684 0a2.241 2.241 0 1 1-2.241-2.241 2.244 2.244 0 0 1 2.241 2.241z" transform="translate(-182.229 -182.229)"/>
        <path id="Path_447" data-name="Path 447" class="cls-1" d="M241.6 6.937a1.6 1.6 0 0 0 1.6-1.6V1.6a1.6 1.6 0 1 0-3.2 0v3.736a1.6 1.6 0 0 0 1.6 1.601z" transform="translate(-214.387)"/>
        <path id="Path_448" data-name="Path 448" class="cls-1" d="M337.737 28.756a1.6 1.6 0 0 0 2.184-.6l2.13-3.735a1.6 1.6 0 1 0-2.781-1.586l-2.13 3.735a1.6 1.6 0 0 0 .597 2.186z" transform="translate(-300.972 -19.678)"/>
        <path id="Path_449" data-name="Path 449" class="cls-1" d="M125.445 28.159a1.6 1.6 0 1 0 2.781-1.586l-2.13-3.735a1.6 1.6 0 1 0-2.781 1.586z" transform="translate(-109.967 -19.678)"/>
        <path id="Path_450" data-name="Path 450" class="cls-1" d="M241.6 445a1.6 1.6 0 0 0-1.6 1.6v3.735a1.6 1.6 0 1 0 3.2 0V446.6a1.6 1.6 0 0 0-1.6-1.6z" transform="translate(-214.387 -397.509)"/>
        <path id="Path_451" data-name="Path 451" class="cls-1" d="M127.629 423.177a1.6 1.6 0 0 0-2.184.6l-2.13 3.735a1.6 1.6 0 0 0 2.785 1.588l2.13-3.735a1.6 1.6 0 0 0-.601-2.188z" transform="translate(-109.967 -377.827)"/>
        <path id="Path_452" data-name="Path 452" class="cls-1" d="M339.921 423.774a1.6 1.6 0 1 0-2.781 1.586l2.13 3.735a1.6 1.6 0 1 0 2.781-1.586z" transform="translate(-300.972 -377.827)"/>
    </g>
</svg>
