<svg id="Clipboard-list" xmlns="http://www.w3.org/2000/svg" width="26" height="26" viewBox="0 0 26 26">
  <rect id="bound" width="26" height="26" fill="none"/>
  <path id="Combined_Shape" data-name="Combined Shape" d="M16,22H2a2,2,0,0,1-2-2V2A2,2,0,0,1,2,0H4.5V.55A1.671,1.671,0,0,0,6.188,2.2h5.625A1.671,1.671,0,0,0,13.5.55V0H16a2,2,0,0,1,2,2V20A2,2,0,0,1,16,22Z" transform="translate(4 3)" fill="#b0b7c3" opacity="0.3"/>
  <path id="Combined_Shape-2" data-name="Combined Shape" d="M.5,3A.5.5,0,0,1,0,2.5v-1A.5.5,0,0,1,.5,1H2A1,1,0,1,1,4,1H5.5a.5.5,0,0,1,.5.5v1a.5.5,0,0,1-.5.5Z" transform="translate(10 1)" fill="#005450" opacity="0.5"/>
  <rect id="Rectangle_152" data-name="Rectangle 152" width="7" height="2" rx="1" transform="translate(11.176 9.818)" fill="#fff"/>
  <rect id="Rectangle_152_Copy_2" data-name="Rectangle 152 Copy 2" width="2" height="2" rx="1" transform="translate(7.636 9.818)" fill="#fff"/>
  <rect id="Rectangle_152_Copy_3" data-name="Rectangle 152 Copy 3" width="2" height="2" rx="1" transform="translate(7.636 14.182)" fill="#fff"/>
  <rect id="Rectangle_152_Copy" data-name="Rectangle 152 Copy" width="7" height="2" rx="1" transform="translate(11.176 14.182)" fill="#fff"/>
  <rect id="Rectangle_152_Copy_5" data-name="Rectangle 152 Copy 5" width="2" height="2" rx="1" transform="translate(7.636 18.545)" fill="#fff"/>
  <rect id="Rectangle_152_Copy_4" data-name="Rectangle 152 Copy 4" width="7" height="2" rx="1" transform="translate(11.176 18.545)" fill="#fff"/>
</svg>
