<svg xmlns="http://www.w3.org/2000/svg" width="30" height="30">
    <defs>
        <style>
            .cls-2{fill:#b0b7c3;opacity:.3}
        </style>
    </defs>
    <g id="Dollar" transform="translate(0 .285)">
        <path id="bound" transform="translate(0 -.285)" style="fill:none" d="M0 0h30v30H0z"/>
        <rect id="Rectangle" class="cls-2" width="2.477" height="4.954" rx="1" transform="translate(14.244 2.466)"/>
        <rect id="Rectangle_Copy_3" data-name="Rectangle Copy 3" class="cls-2" width="2.477" height="6.193" rx="1" transform="translate(14.244 19.807)"/>
        <path id="Combined_Shape" data-name="Combined Shape" d="M10.166 4.754a3.633 3.633 0 0 0-1.353-1.047A3.818 3.818 0 0 0 7.2 3.318a4.8 4.8 0 0 0-.812.071 2.1 2.1 0 0 0-.741.271 1.833 1.833 0 0 0-.553.518 1.379 1.379 0 0 0-.224.812 1.309 1.309 0 0 0 .176.706 1.571 1.571 0 0 0 .518.494 4.615 4.615 0 0 0 .812.388q.471.177 1.059.365.847.282 1.765.624a6.6 6.6 0 0 1 1.671.906 4.756 4.756 0 0 1 1.247 1.4 4.033 4.033 0 0 1 .494 2.083 5.441 5.441 0 0 1-.53 2.483 4.951 4.951 0 0 1-1.424 1.73 6.1 6.1 0 0 1-2.047 1.012 8.609 8.609 0 0 1-2.377.329 9.815 9.815 0 0 1-3.459-.624A7.329 7.329 0 0 1 0 15.108l2.636-2.683a4.87 4.87 0 0 0 1.612 1.259 4.375 4.375 0 0 0 1.989.506 4 4 0 0 0 .871-.094 2.172 2.172 0 0 0 .741-.306 1.532 1.532 0 0 0 .506-.565 1.778 1.778 0 0 0 .188-.847 1.34 1.34 0 0 0-.235-.8 2.3 2.3 0 0 0-.671-.6 5.4 5.4 0 0 0-1.083-.494q-.647-.223-1.471-.484a14.056 14.056 0 0 1-1.565-.61 5.238 5.238 0 0 1-1.365-.906 4.2 4.2 0 0 1-.965-1.341 4.547 4.547 0 0 1-.364-1.919 4.716 4.716 0 0 1 .565-2.377 4.91 4.91 0 0 1 1.482-1.623 6.369 6.369 0 0 1 2.071-.93A9.39 9.39 0 0 1 7.272 0a8.65 8.65 0 0 1 2.883.518 7.423 7.423 0 0 1 2.577 1.53z" transform="translate(9.023 5.199)" style="fill:#005450;opacity:.5"/>
    </g>
</svg>
