<svg id="download_1" data-name="download 1" xmlns="http://www.w3.org/2000/svg" width="20" height="20">
    <defs>
        <style>
            .cls-2{fill:#fff}
        </style>
    </defs>
    <g id="Group">
        <path id="Vector-2" data-name="Vector" class="cls-2" d="M0 .833A.9.9 0 0 1 .833 0a.9.9 0 0 1 .833.833V5a1.667 1.667 0 0 0 1.667 1.667h10A1.667 1.667 0 0 0 15 5V.833a.833.833 0 0 1 1.667 0V5a3.333 3.333 0 0 1-3.333 3.333h-10A3.333 3.333 0 0 1 0 5z" transform="translate(1.667 10)"/>
        <path id="Vector-3" data-name="Vector" class="cls-2" d="M.833 0a.833.833 0 0 1 .833.833v10a.833.833 0 0 1-1.667 0v-10A.833.833 0 0 1 .833 0z" transform="rotate(180 5.417 6.25)"/>
        <path id="Vector-4" data-name="Vector" class="cls-2" d="M1.423 5.589A.833.833 0 0 1 .244 4.411L4.411.244a.833.833 0 0 1 1.146-.03l4.167 3.75A.833.833 0 1 1 8.609 5.2L5.03 1.982z" transform="rotate(180 7.5 6.667)"/>
    </g>
</svg>
