<svg xmlns="http://www.w3.org/2000/svg" width="20" height="20">
    <g data-name="Group 71">
        <g data-name="Group 70">
            <path data-name="Path 32" d="M177.9 10.578a.917.917 0 0 0-.819-.506h-1.831V.916a.916.916 0 0 0-1.831 0v9.156h-1.831a.915.915 0 0 0-.732 1.465L173.6 15.2c.012.016.03.021.043.036a.894.894 0 0 0 .212.177.942.942 0 0 0 .094.063.859.859 0 0 0 .768 0 .929.929 0 0 0 .093-.063.893.893 0 0 0 .212-.177c.012-.015.031-.02.043-.036l2.747-3.663a.915.915 0 0 0 .088-.959z" transform="translate(-164.336)" style="fill:rgba(0,84,80,.5)"/>
        </g>
    </g>
    <g data-name="Group 73">
        <g data-name="Group 72">
            <path data-name="Path 33" d="M19.167 320a.877.877 0 0 0-.833.916v2.747a2.635 2.635 0 0 1-2.5 2.747H4.167a2.635 2.635 0 0 1-2.5-2.747v-2.747A.877.877 0 0 0 .833 320a.877.877 0 0 0-.833.916v2.747a4.392 4.392 0 0 0 4.167 4.578h11.666A4.392 4.392 0 0 0 20 323.663v-2.747a.877.877 0 0 0-.833-.916z" transform="translate(0 -308.241)" style="fill:rgba(176,183,195,.3)"/>
        </g>
    </g>
</svg>
