<svg xmlns="http://www.w3.org/2000/svg" width="22.361" height="20.964">
    <defs>
        <style>
            .cls-3{fill:#005450}
        </style>
    </defs>
    <g id="excel" transform="translate(0 -15.989)">
        <path id="Path_35" data-name="Path 35" d="M266.482 95.384H256.7a.7.7 0 0 1-.7-.7V80.71a.7.7 0 0 1 .7-.7h9.783a.7.7 0 0 1 .7.7v13.975a.7.7 0 0 1-.701.699z" transform="translate(-244.819 -61.225)" style="fill:#b0b7c3;opacity:.3"/>
        <g id="Group_309" data-name="Group 309" transform="translate(11.181 21.581)" style="opacity:.5">
            <path id="Path_36" data-name="Path 36" class="cls-3" d="M259.494 145.409h-2.8a.7.7 0 0 1 0-1.4h2.8a.7.7 0 1 1 0 1.4z" transform="translate(-256 -144.011)"/>
            <path id="Path_37" data-name="Path 37" class="cls-3" d="M259.494 209.409h-2.8a.7.7 0 0 1 0-1.4h2.8a.7.7 0 1 1 0 1.4z" transform="translate(-256 -205.216)"/>
            <path id="Path_38" data-name="Path 38" class="cls-3" d="M259.494 273.409h-2.8a.7.7 0 0 1 0-1.4h2.8a.7.7 0 1 1 0 1.4z" transform="translate(-256 -266.421)"/>
            <path id="Path_39" data-name="Path 39" class="cls-3" d="M259.494 337.409h-2.8a.7.7 0 0 1 0-1.4h2.8a.7.7 0 1 1 0 1.4z" transform="translate(-256 -327.626)"/>
            <path id="Path_40" data-name="Path 40" class="cls-3" d="M386.1 145.409h-1.4a.7.7 0 0 1 0-1.4h1.4a.7.7 0 1 1 0 1.4z" transform="translate(-378.41 -144.011)"/>
            <path id="Path_41" data-name="Path 41" class="cls-3" d="M386.1 209.409h-1.4a.7.7 0 0 1 0-1.4h1.4a.7.7 0 1 1 0 1.4z" transform="translate(-378.41 -205.216)"/>
            <path id="Path_42" data-name="Path 42" class="cls-3" d="M386.1 273.409h-1.4a.7.7 0 0 1 0-1.4h1.4a.7.7 0 1 1 0 1.4z" transform="translate(-378.41 -266.421)"/>
            <path id="Path_43" data-name="Path 43" class="cls-3" d="M386.1 337.409h-1.4a.7.7 0 0 1 0-1.4h1.4a.7.7 0 1 1 0 1.4z" transform="translate(-378.41 -327.626)"/>
        </g>
        <path id="Path_44" data-name="Path 44" d="M12.325 16.151a.687.687 0 0 0-.574-.151L.57 18.1a.7.7 0 0 0-.57.686v15.373a.7.7 0 0 0 .57.686l11.181 2.1a.657.657 0 0 0 .129.013.7.7 0 0 0 .7-.7V16.689a.7.7 0 0 0-.255-.538z" style="opacity:.796;fill:#005450"/>
        <path id="Path_45" data-name="Path 45" d="m86.1 166.554-2.21-2.525 2.235-2.873a.7.7 0 1 0-1.1-.859l-2.07 2.661-1.744-1.993a.7.7 0 1 0-1.051.92l1.922 2.2-1.948 2.5a.7.7 0 0 0 1.1.858l1.782-2.292 2.032 2.321a.7.7 0 1 0 1.051-.918z" transform="translate(-76.49 -137.746)" style="fill:#fafafa"/>
    </g>
</svg>
