<svg data-name="group-chat 1" xmlns="http://www.w3.org/2000/svg" width="26" height="26">
    <path data-name="Vector" d="M10.658 13.684V9.75a3.25 3.25 0 0 0-3.25-3.25H0V2.737A2.737 2.737 0 0 1 2.737 0h12.772a2.737 2.737 0 0 1 2.737 2.737v8.211l.018 5.072a.542.542 0 0 1-.925.385l-2.72-2.72z" transform="translate(6.5 3.25)" style="fill:#005450;opacity:.5"/>
    <path data-name="Vector" d="M0 7.583V2.167A2.167 2.167 0 0 1 2.167 0h8.667A2.167 2.167 0 0 1 13 2.167v5.416a2.167 2.167 0 0 1-2.167 2.167H2.292L.945 11.04a.542.542 0 0 1-.916-.391V7.935A2.182 2.182 0 0 1 0 7.583zM4.891 3.25a.542.542 0 0 0 0 1.083h5.417a.542.542 0 0 0 0-1.083zm3.25 2.167a.542.542 0 0 0 0 1.083h2.167a.542.542 0 0 0 0-1.083z" transform="translate(2.15 11.917)" style="fill:#b0b7c3;opacity:.3"/>
</svg>
