<svg id="Attachment_2" data-name="Attachment#2" xmlns="http://www.w3.org/2000/svg" width="24" height="24">
    <defs>
        <style>
            .cls-2{fill:#ff5630;opacity:.3}
        </style>
    </defs>
    <path id="bound" style="fill:none" d="M0 0h24v24H0z"/>
    <path id="Combined_Shape" data-name="Combined Shape" class="cls-2" d="M8 3H5a1 1 0 0 0 0 2h3v1a2 2 0 0 1-2 2H2a2 2 0 0 1-2-2V2a2 2 0 0 1 2-2h4a2 2 0 0 1 2 2z" transform="rotate(-45 20.658 5.585)"/>
    <path id="Combined_Shape_Copy" data-name="Combined Shape Copy" d="M0 5h3a1 1 0 0 0 0-2H0V2a2 2 0 0 1 2-2h4a2 2 0 0 1 2 2v4a2 2 0 0 1-2 2H2a2 2 0 0 1-2-2z" transform="rotate(-45 14.657 -8.9)" style="fill:#ff5630"/>
    <path id="Combined_Shape-2" data-name="Combined Shape" class="cls-2" d="M2.687 10.172a1 1 0 0 1 0-2h2a1 1 0 0 1 0 2zm2.949-3.121L4.222 5.636a1 1 0 0 1 1.414-1.414l1.415 1.414a1 1 0 0 1-1.415 1.415zm2.707-2.537v-2a1 1 0 1 1 2 0v2a1 1 0 1 1-2 0z"/>
    <path id="Combined_Shape_Copy_2" data-name="Combined Shape Copy 2" class="cls-2" d="M13.707 21.192v-2a1 1 0 1 1 2 0v2a1 1 0 0 1-2 0zm4.536-1.535-1.415-1.414a1 1 0 0 1 1.415-1.415l1.414 1.415a1 1 0 1 1-1.414 1.414zm1.121-4.121a1 1 0 1 1 0-2h2a1 1 0 0 1 0 2z"/>
</svg>
