<svg id="Group" xmlns="http://www.w3.org/2000/svg" width="26" height="26" viewBox="0 0 26 26">
  <path id="Shape" d="M0,0H26V26H0Z" fill="none"/>
  <path id="Mask" d="M3,6A3,3,0,1,1,6,3,3,3,0,0,1,3,6Z" transform="translate(16 9)" fill="#005450" opacity="0.5"/>
  <path id="Mask-2" data-name="Mask" d="M4,8A4,4,0,1,1,8,4,4,4,0,0,1,4,8Z" transform="translate(5 5)" fill="#005450" opacity="0.5"/>
  <path id="Subtract" d="M5.854,6H2A9.913,9.913,0,0,0,0,0,7.229,7.229,0,0,1,4.4,1.349,5.327,5.327,0,0,1,6.4,5.4a.62.62,0,0,1-.134.452A.539.539,0,0,1,5.854,6Z" transform="translate(17.602 17.001)" fill="#b0b7c3" opacity="0.3"/>
  <path id="Mask_Copy" data-name="Mask Copy" d="M0,7.2C.388,2.427,4.262,0,8.983,0,13.771,0,17.7,2.293,18,7.2a.687.687,0,0,1-.751.8H.728A1.107,1.107,0,0,1,0,7.2Z" transform="translate(0 15)" fill="#b0b7c3" opacity="0.3"/>
</svg>
