<svg xmlns="http://www.w3.org/2000/svg" width="26" height="26">
    <path style="fill:none" d="M0 0h26v26H0z"/>
    <path data-name="Combined Shape" d="M11.428 5V0H16v5zM1.5 5A1.5 1.5 0 0 1 0 3.5v-2A1.5 1.5 0 0 1 1.5 0h1.571a1.5 1.5 0 0 1 1.5 1.5v2a1.5 1.5 0 0 1-1.5 1.5z" transform="translate(5 17.056)" style="opacity:.3;fill:#d81b60"/>
    <path data-name="Combined Shape" d="M18 15H2a2 2 0 0 1-2-2V2a2 2 0 0 1 2-2h16a2 2 0 0 1 2 2v11a2 2 0 0 1-2 2zM14.5 4.111a3.5 3.5 0 1 0 3.5 3.5 3.5 3.5 0 0 0-3.5-3.5zm-10.5 0a1 1 0 0 0-1 1v2a1 1 0 0 0 2 0v-2a1 1 0 0 0-1-1zm10.5 5a1.5 1.5 0 1 1 1.5-1.5 1.5 1.5 0 0 1-1.5 1.501z" transform="translate(3 3.944)" style="fill:#d81b60"/>
</svg>
