<svg xmlns="http://www.w3.org/2000/svg" width="30" height="30">
    <path d="M0 0h30v30H0z" style="fill:none"/>
    <path data-name="Combined Shape" d="M7.359 19.623v-6.131H1.227S0 13.281 0 12.264s1.227-1.226 1.227-1.226h8.585v8.585a1.226 1.226 0 1 1-2.453 0zm3.679-9.812V1.226a1.227 1.227 0 0 1 2.454 0v6.133h6.132s1.226.211 1.226 1.226-1.226 1.226-1.226 1.226z" transform="translate(5 4.15)" style="fill:rgba(0,84,80,.5)"/>
    <path data-name="Combined Shape" d="m.651 22.168-.36-.359a.994.994 0 0 1 0-1.405l3.89-3.889a.993.993 0 0 1 1.4 0l.36.359a.994.994 0 0 1 0 1.405l-3.89 3.889a.993.993 0 0 1-1.4 0zM16.874 5.945l-.36-.359a.994.994 0 0 1 0-1.405L20.4.29a1 1 0 0 1 1.4 0l.36.36a.994.994 0 0 1 0 1.405l-3.89 3.889a.993.993 0 0 1-1.4 0z" transform="translate(4.398 3.142)" style="fill:#b0b7c3;opacity:.3"/>
</svg>
