<svg xmlns="http://www.w3.org/2000/svg" width="30" height="30">
    <path style="fill:none" d="M0 0h30v30H0z"/>
    <path data-name="Combined Shape" d="M18 15H2a2 2 0 0 1-2-2V2a2 2 0 0 1 2-2h16a2 2 0 0 1 2 2v11a2 2 0 0 1-2 2zM3.277 2.5a.779.779 0 0 0-.684.395.723.723 0 0 0-.062.563.752.752 0 0 0 .377.453l6.724 3.5a.8.8 0 0 0 .735 0l6.724-3.5a.753.753 0 0 0 .378-.453.724.724 0 0 0-.062-.564.781.781 0 0 0-.685-.395.8.8 0 0 0-.367.09L10 5.9 3.644 2.589a.8.8 0 0 0-.367-.089z" transform="translate(5 7)" style="fill:#005450;opacity:.5"/>
</svg>
