<svg id="Wallet_2" data-name="Wallet#2" xmlns="http://www.w3.org/2000/svg" width="26" height="26">
    <defs>
        <style>
            .cls-2{fill:#ff5630;opacity:.3}
        </style>
    </defs>
    <path id="bound" style="fill:none" d="M0 0h26v26H0z"/>
    <circle id="Oval_47" data-name="Oval 47" class="cls-2" cx="2.5" cy="2.5" r="2.5" transform="translate(19.5 13.203)"/>
    <path id="Rectangle_162" data-name="Rectangle 162" class="cls-2" d="M1.084.013 18.64.43a1.12 1.12 0 0 1 1.123 1.033l.13 5.035a.994.994 0 0 1-1.071.981L1.266 7.062A1.12 1.12 0 0 1 .143 6.029L.012.994A.994.994 0 0 1 1.084.013z" transform="rotate(-14.98 27.456 -3.797)"/>
    <path id="Combined_Shape" data-name="Combined Shape" d="M20 18H2a2 2 0 0 1-2-2V2a2 2 0 0 1 2-2h18a2 2 0 0 1 2 2v4a3.744 3.744 0 0 0-1.651-.379 3.939 3.939 0 0 0 0 7.875A3.747 3.747 0 0 0 22 13.121V16a2 2 0 0 1-2 2z" transform="translate(1.5 6.155)" style="fill:#ff5630"/>
</svg>
