<svg id="Layer_1" data-name="Layer 1" xmlns="http://www.w3.org/2000/svg" viewBox="0 0 183.35 39.19"><defs><style>.cls-1{fill:#fff;}</style></defs><path class="cls-1" d="M196.47,411.4l-6,17.15h3.65l1-3.09H202l1,3.09h3.67l-6-17.15Zm-.25,10.9,2.35-7,2.36,7Z" transform="translate(-141.97 -400.38)"/><path class="cls-1" d="M215.33,416a4.72,4.72,0,0,0-4,1.79V416.3H208.2v17.15h3.16v-6.34a4.71,4.71,0,0,0,4,1.78,5.52,5.52,0,0,0,4.21-1.86,6.84,6.84,0,0,0,0-9.18A5.54,5.54,0,0,0,215.33,416Zm1.84,9a3.56,3.56,0,0,1-4.86,0,3.47,3.47,0,0,1-.95-2.49,3.39,3.39,0,0,1,.95-2.48,3.5,3.5,0,0,1,4.86,0,3.29,3.29,0,0,1,1,2.48A3.36,3.36,0,0,1,217.17,424.92Z" transform="translate(-141.97 -400.38)"/><path class="cls-1" d="M230.62,416a4.74,4.74,0,0,0-4,1.79V416.3H223.5v17.15h3.15v-6.34a4.73,4.73,0,0,0,4,1.78,5.55,5.55,0,0,0,4.22-1.86,6.5,6.5,0,0,0,1.76-4.6,6.43,6.43,0,0,0-1.76-4.58A5.58,5.58,0,0,0,230.62,416Zm1.84,9a3.54,3.54,0,0,1-4.85,0,3.43,3.43,0,0,1-1-2.49,3.36,3.36,0,0,1,1-2.48,3.49,3.49,0,0,1,4.85,0,3.3,3.3,0,0,1,1,2.48A3.37,3.37,0,0,1,232.46,424.92Z" transform="translate(-141.97 -400.38)"/><path class="cls-1" d="M248.13,417.75a4.81,4.81,0,0,0-4-1.79,5.59,5.59,0,0,0-4.21,1.89,6.5,6.5,0,0,0-1.74,4.58,6.57,6.57,0,0,0,1.74,4.6,5.56,5.56,0,0,0,4.21,1.86,4.81,4.81,0,0,0,4-1.78v1.44h3.16V416.3h-3.16Zm-1,7.17a3.29,3.29,0,0,1-2.43,1,3.25,3.25,0,0,1-2.42-1,3.43,3.43,0,0,1-1-2.49,3.36,3.36,0,0,1,1-2.48,3.2,3.2,0,0,1,2.42-1,3.23,3.23,0,0,1,2.43,1,3.3,3.3,0,0,1,1,2.48A3.37,3.37,0,0,1,247.15,424.92Z" transform="translate(-141.97 -400.38)"/><path class="cls-1" d="M257.31,418.41V416.3h-3.16v12.25h3.16V422.7a2.82,2.82,0,0,1,1.13-2.53,3.69,3.69,0,0,1,2.59-.59v-3.52A3.75,3.75,0,0,0,257.31,418.41Z" transform="translate(-141.97 -400.38)"/><path class="cls-1" d="M265.58,412.87l-3.16,1v10.61c0,3.35,1.59,4.6,5.93,4.11v-2.87c-1.82.1-2.77.08-2.77-1.24v-5.1h2.77v-3h-2.77Z" transform="translate(-141.97 -400.38)"/><path class="cls-1" d="M284.36,416a4.16,4.16,0,0,0-3.65,1.76,3.63,3.63,0,0,0-3.33-1.76,3.78,3.78,0,0,0-3.4,1.64v-1.3h-3.16v12.25H274v-6.88c0-1.79.9-2.77,2.3-2.77s2.06.86,2.06,2.33v7.32h3.16v-6.88c0-1.79.83-2.77,2.28-2.77,1.29,0,2.05.86,2.05,2.33v7.32H289V421C289,417.94,287.18,416,284.36,416Z" transform="translate(-141.97 -400.38)"/><path class="cls-1" d="M297.54,416a6.19,6.19,0,0,0-4.66,1.86,6.35,6.35,0,0,0-1.81,4.61,6.27,6.27,0,0,0,1.84,4.63,6.58,6.58,0,0,0,4.87,1.83,6.08,6.08,0,0,0,5.34-2.62l-2.54-1.47a3.28,3.28,0,0,1-2.75,1.23c-1.88,0-3-.76-3.45-2.31h9.23a7.52,7.52,0,0,0,.13-1.29,6.43,6.43,0,0,0-1.77-4.61A5.76,5.76,0,0,0,297.54,416Zm-3.21,5.32a3.06,3.06,0,0,1,3.21-2.48,3,3,0,0,1,3,2.48Z" transform="translate(-141.97 -400.38)"/><path class="cls-1" d="M312.75,416a4,4,0,0,0-3.65,1.71V416.3h-3.16v12.25h3.16v-6.61c0-2,1-3,2.69-3a2.27,2.27,0,0,1,2.43,2.52v7.13h3.16V421a5.08,5.08,0,0,0-1.32-3.72A4.35,4.35,0,0,0,312.75,416Z" transform="translate(-141.97 -400.38)"/><path class="cls-1" d="M325.32,419.34v-3h-2.77v-3.43l-3.16,1v10.61c0,3.35,1.59,4.6,5.93,4.11v-2.87c-1.81.1-2.77.08-2.77-1.24v-5.1Z" transform="translate(-141.97 -400.38)"/><rect class="cls-1" width="39.19" height="39.19" rx="13.06"/><path d="M161.56,408.22l-9.4,9.41v14.1h4.69V419.58h0l4.7-4.7,4.71,4.71v2.75h-4.71V427H171v-9.4Z" transform="translate(-141.97 -400.38)"/></svg>