<svg xmlns="http://www.w3.org/2000/svg" width="579.632" height="792.814">
    <defs>
        <clipPath id="clip-path">
            <path style="fill:none" d="M61-172h579.632v792.814H61z"/>
        </clipPath>
        <style>
            .cls-3,.cls-4{fill:#fff}.cls-3{opacity:.5}.cls-5{fill:#074d4a}.cls-6{fill:#08726d}.cls-7{fill:#b0b7c3}.cls-8{fill:#dadada}.cls-11{fill:#9d9d9c}.cls-13{fill:#ffb85a}
        </style>
    </defs>
    <g id="Scroll_Group_1" data-name="Scroll Group 1" transform="translate(-61 172)" style="isolation:isolate;clip-path:url(#clip-path)">
        <g id="Concept_28-03">
            <g id="Edit" transform="translate(23.221)">
                <path id="Path_112" data-name="Path 112" class="cls-3" d="M1496.157 0h39.918a63.857 63.857 0 0 1 9.235 27.551c1.149 11.836-1.272 24.252 7.7 33.666 7.092 7.413 14.825 12.8 20.743 21.534a110.6 110.6 0 0 1 11.175 22.955 153.815 153.815 0 0 0 13.479 28.342c1.9 3.089.729 5.306-1.816 2.44-4.9-5.523-11.891-17.259-16.524-28.533-3.861-9.4-9.618-17.519-17.5-22.238-11.354-6.8-16.339-11.854-21.318-22.442-2.4-5.078-2.619-24.505-17.6-37.015-13.883-11.595-22.192-19.46-27.492-26.26z" transform="translate(-1496.157)"/>
                <path id="Path_113" data-name="Path 113" class="cls-3" d="M446.043 168.258c6.023-4.608 12.021-9.742 18.112-14.208 6.474-4.794 15.777-13.244 32.894-17.346 22.387-5.362 45.3-13.9 61.2-29.589 5.152-5.09 15.647-22.658 29.528-30.689 14.1-8.16 33.222-7.1 48.6-11.119 26.8-7.005 34.957-29.12 52.8-48.128C694.359 11.632 703.5 5.868 714.151 0h-65.708c-16.679 12.151-5.214 29-21.207 42.265-12.355 10.242-44.2 2.675-61.5 16.215-6.857 5.362-12.355 15.74-15.579 24.777-10.884 30.4-46.274 41.419-56.6 44.884-24.493 8.222-40.35 23.406-54.2 41.116-1.814 2.367.435 3.788 6.686-.999z" transform="translate(42.231)"/>
                <path id="Path_114" data-name="Path 114" class="cls-3" d="M865.742 555.148c4.206-3.186 18.791-52.723 24.107-68.561 11.928-35.891 34.594-79.738 67.649-132.129 8.053-12.841 17.36-25.234 22.8-39.515 10.559-27.829 2.908-57.832 33.592-83.478 36.759-30.728 103.933-17.9 125.848-63.774 14.049-29.44 4.036-53.3 21.091-75.165 13.1-16.841 36.017-24.8 52.016-38.594 13.78-11.874 30.424-33.35 31.623-53.931h-88.588c6.711 13.574 9.4 34.075 0 46.826-13.637 18.514-37.341 20.581-38.665 52.553-.895 21.127 16 52.446 4.3 70.217-12.376 18.791-57.161-.081-89.482 3.535-30.048 3.356-50.191 27.14-49.35 60.132.645 25.341.734 60.687-18.541 88.283-20.008 28.634-63.014 63.309-74.27 130.34-4.179 24.831-14.022 59.175-23.078 86.467-2.143 6.388-4.237 19.21-1.052 16.794z" transform="translate(-633.062 -172)"/>
                <path id="Path_115" data-name="Path 115" class="cls-3" d="M643.748 343.325c8.988-35.007 42.284-37.391 69.149-54.36 7.95-5.028 19.724-13.59 26.315-23.523 5.127-7.728 10.5-15.394 19.4-19.014 19.051-7.759 39.467-5.028 61.106-9.562 17.191-3.6 38.5-14.826 41.339-13.639 5.5 2.3-16.629 14.788-32.925 20.212-18.223 6.048-39.288 4.5-55.719 15.178-6.672 4.324-7.851 11.311-10.736 18.149-3.293 7.82-8.969 12.663-16.37 16.524-20.385 10.637-43.741 13.541-63.731 25.111a109.232 109.232 0 0 0-25.265 19.767c-3.995 4.293-15.349 14.745-12.563 5.157z" transform="translate(-231.9 -85.299)"/>
                <path id="Path_116" data-name="Path 116" class="cls-4" d="M485.729 204.353c3.367-8.562 15.172-12.392 21.114-12.855a67.833 67.833 0 0 1 14.751.581c1.779.272 7.382 1.643 5.788 2.607-1.421.852-9.007.741-11.237.809-4.608.136-11.9 1.235-15.48 4.689-6.177 5.949-13.856 7.851-14.826 7.122s-.598-1.711-.11-2.953z" transform="translate(200.003 -73.141)"/>
                <path id="Path_117" data-name="Path 117" class="cls-4" d="M921.847 276.19c.618 4.324-3.379 8.617-5.72 10.186a32.04 32.04 0 0 1-6.214 3.181c-.8.3-3.3 1.093-2.99.266.531-1.4 2.891-2.879 3.793-3.422 1.853-1.124 4.324-3.676 5.028-5.924 1.167-3.879 3.583-5.319 5.374-5.479.556-.049.655.562.729 1.192z" transform="translate(-454.718 -105.122)"/>
            </g>
            <path id="Path_118" data-name="Path 118" class="cls-5" d="m779.08 507.484 35.828-10.594v12.126l-35.828 10.6z" transform="translate(-245.539 -189.945)"/>
            <path id="Path_119" data-name="Path 119" class="cls-5" d="m794.78 527.706 54.82-16.216V743.7h-54.82z" transform="translate(-289.933 -195.526)"/>
            <path id="Path_120" data-name="Path 120" class="cls-6" d="m861.145 546.18-31.2 8.611v6.326l31.2-8.346z" transform="translate(-323.2 -208.787)"/>
            <path id="Path_121" data-name="Path 121" class="cls-6" d="m856.519 572.83-26.569 6.764v6.363l26.569-6.536z" transform="translate(-318.573 -218.975)"/>
            <path id="Path_122" data-name="Path 122" class="cls-6" d="m861.145 599.49-31.2 7.264v6.326l31.2-7z" transform="translate(-323.2 -229.166)"/>
            <path id="Path_123" data-name="Path 123" class="cls-6" d="m861.145 626.15-31.2 6.591v6.326l31.2-6.326z" transform="translate(-323.2 -239.357)"/>
            <path id="Path_124" data-name="Path 124" class="cls-6" d="m861.145 652.8-31.2 5.924v6.319l31.2-5.652z" transform="translate(-323.2 -249.545)"/>
            <path id="Path_125" data-name="Path 125" class="cls-6" d="m871.138 683.86-15.048 2.533v6.319l15.048-2.4z" transform="translate(-349.34 -261.418)"/>
            <path id="Path_126" data-name="Path 126" class="cls-6" d="m861.145 706.12-31.2 4.571v6.326l31.2-4.312z" transform="translate(-323.2 -269.927)"/>
            <path id="Path_127" data-name="Path 127" class="cls-6" d="m861.145 732.77-31.2 3.9v6.319l31.2-3.632z" transform="translate(-323.2 -280.115)"/>
            <path id="Path_128" data-name="Path 128" class="cls-6" d="m853.7 759.43-23.746 2.459v6.387l23.746-2.255z" transform="translate(-315.75 -290.306)"/>
            <path id="Path_129" data-name="Path 129" class="cls-6" d="m861.145 786.08-31.2 2.557v6.326l31.2-2.292z" transform="translate(-323.2 -300.493)"/>
            <path id="Path_130" data-name="Path 130" class="cls-6" d="m861.145 812.74-31.2 1.884v6.319l31.2-1.612z" transform="translate(-323.2 -310.684)"/>
            <path id="Path_131" data-name="Path 131" class="cls-6" d="m861.145 839.4-31.2 1.211v6.32l31.2-.939z" transform="translate(-323.2 -320.876)"/>
            <path id="Path_132" data-name="Path 132" class="cls-6" d="m861.145 866.05-31.2.537v6.326l31.2-.272z" transform="translate(-323.2 -331.063)"/>
            <path id="Path_133" data-name="Path 133" class="cls-5" d="m840.272 706.12-10.322 1.513v6.5l10.322-1.427z" transform="translate(-302.327 -269.927)"/>
            <path id="Path_134" data-name="Path 134" class="cls-5" d="m858.224 655.98-11.564 2.193v6.4l11.564-2.094z" transform="translate(-330.601 -250.76)"/>
            <path id="Path_135" data-name="Path 135" class="cls-5" d="m852.485 603.38-5.825 1.359v6.449l5.825-1.3z" transform="translate(-324.862 -230.653)"/>
            <path id="Path_136" data-name="Path 136" class="cls-5" d="m871.138 736.04-15.048 1.884v6.319l15.048-1.748z" transform="translate(-349.34 -281.365)"/>
            <path id="Path_137" data-name="Path 137" class="cls-5" d="m874.689 555.96-9.309 2.57v6.326l9.309-2.489z" transform="translate(-358.63 -212.526)"/>
            <path id="Path_138" data-name="Path 138" class="cls-5" d="m851.836 812.74-21.886 1.322v6.406l21.886-1.137z" transform="translate(-313.891 -310.684)"/>
            <path id="Path_139" data-name="Path 139" class="cls-5" d="m864.747 787.45-18.087 1.483v6.35l18.087-1.328z" transform="translate(-337.124 -301.017)"/>
            <path id="Path_140" data-name="Path 140" class="cls-6" d="m739.863 539.6-88.743-28.11V743.7h88.743z" transform="translate(-91.449 -195.526)"/>
            <path id="Path_141" data-name="Path 141" class="cls-5" d="M747.872 557.573 683.69 538.59v6.74l64.182 18.384z" transform="translate(-119.577 -205.886)"/>
            <path id="Path_142" data-name="Path 142" class="cls-5" d="m736.722 588.251-82.2-22.411v6.74l82.2 21.645z" transform="translate(-90.407 -216.303)"/>
            <path id="Path_143" data-name="Path 143" class="cls-5" d="m742.207 611.387-73.337-18.3v6.739l73.337 17.618z" transform="translate(-104.757 -226.719)"/>
            <path id="Path_144" data-name="Path 144" class="cls-5" d="m736.722 638.952-82.2-18.612v6.74l82.2 17.846z" transform="translate(-90.407 -237.136)"/>
            <path id="Path_145" data-name="Path 145" class="cls-5" d="m727.721 665.431-73.2-14.881v6.65l73.2 14.208z" transform="translate(-81.407 -248.684)"/>
            <path id="Path_146" data-name="Path 146" class="cls-5" d="m736.722 689.653-82.2-14.813v6.739l82.2 14.047z" transform="translate(-90.407 -257.97)"/>
            <path id="Path_147" data-name="Path 147" class="cls-5" d="m736.722 715-82.2-12.911v6.733l82.2 12.157z" transform="translate(-90.407 -268.386)"/>
            <path id="Path_148" data-name="Path 148" class="cls-5" d="m747.872 737.939-64.182-8.6v6.733l64.182 8.006z" transform="translate(-119.577 -278.803)"/>
            <path id="Path_149" data-name="Path 149" class="cls-5" d="m736.722 765.7-82.2-9.118v6.739l82.2 8.358z" transform="translate(-90.407 -289.216)"/>
            <path id="Path_150" data-name="Path 150" class="cls-5" d="m736.722 791.045-82.2-7.215v6.739l82.2 6.455z" transform="translate(-90.407 -299.633)"/>
            <path id="Path_151" data-name="Path 151" class="cls-5" d="m736.722 816.4-82.2-5.319v6.739l82.2 4.559z" transform="translate(-90.407 -310.05)"/>
            <path id="Path_152" data-name="Path 152" class="cls-5" d="m736.722 841.746-82.2-3.416v6.739l82.2 2.656z" transform="translate(-90.407 -320.467)"/>
            <path id="Path_153" data-name="Path 153" class="cls-5" d="m736.722 867.1-82.2-1.52v6.74l82.2.76z" transform="translate(-90.407 -330.883)"/>
            <path id="Path_154" data-name="Path 154" class="cls-6" d="m776.588 597.525-17.778-4.435v6.739l17.778 4.269z" transform="translate(-194.697 -226.719)"/>
            <path id="Path_155" data-name="Path 155" class="cls-6" d="m695.766 694.218-41.246-7.438v6.363l41.246 7.048z" transform="translate(-49.452 -262.534)"/>
            <path id="Path_156" data-name="Path 156" class="cls-6" d="m689.857 594.548-19.9-5.418v6.245l19.9 5.245z" transform="translate(-53.081 -225.206)"/>
            <path id="Path_157" data-name="Path 157" class="cls-6" d="m742.219 736.484-20.929-2.8v6.554l20.929 2.607z" transform="translate(-137.15 -280.462)"/>
            <path id="Path_158" data-name="Path 158" class="cls-6" d="m717.227 765.809-33.537-3.719v6.449l33.537 3.41z" transform="translate(-88.932 -291.323)"/>
            <path id="Path_159" data-name="Path 159" class="cls-6" d="m768.626 786.523-30.646-2.693v6.739l30.646 2.409z" transform="translate(-173.867 -299.633)"/>
            <path id="Path_160" data-name="Path 160" class="cls-6" d="m688.891 818.314-34.371-2.224v6.295l34.371 1.909z" transform="translate(-42.576 -311.965)"/>
            <path id="Path_161" data-name="Path 161" class="cls-6" d="m716.695 842.262-62.175-2.582v6.554l62.175 2.007z" transform="translate(-70.38 -320.983)"/>
            <path id="Path_162" data-name="Path 162" class="cls-6" d="m706.917 640.607-23.227-5.257v6.356l23.227 5.047z" transform="translate(-78.622 -242.874)"/>
            <path id="Path_163" data-name="Path 163" class="cls-6" d="m767.588 545.494-8.778-2.594v6.653l8.778 2.52z" transform="translate(-185.697 -207.533)"/>
            <path id="Path_164" data-name="Path 164" class="cls-6" d="m745.936 659.445-43.766-8.9v6.655l43.766 8.494z" transform="translate(-129.057 -248.684)"/>
            <path id="Path_165" data-name="Path 165" class="cls-4" d="m783.355 567.706-6.844-1.865v6.74l6.844 1.8z" transform="translate(-212.397 -216.303)"/>
            <path id="Path_166" data-name="Path 166" class="cls-4" d="m783.355 703.165-6.844-1.075v6.733l6.844 1.013z" transform="translate(-212.397 -268.386)"/>
            <path id="Path_167" data-name="Path 167" class="cls-4" d="m744.3 656.883-6.4-1.3v6.517l6.4 1.242z" transform="translate(-149.492 -250.607)"/>
            <path id="Path_168" data-name="Path 168" class="cls-6" d="M752.44 510.523v12.126l-43.05-13.633V496.89z" transform="translate(-140.02 -189.945)"/>
            <path id="Rectangle_414" data-name="Rectangle 414" class="cls-6" transform="translate(480.54 370.324)" d="M0 0h24.308v177.845H0z"/>
            <path id="Rectangle_415" data-name="Rectangle 415" class="cls-5" transform="translate(648.415 394.342)" d="M0 0h56.319v153.828H0z"/>
            <path id="Rectangle_416" data-name="Rectangle 416" class="cls-6" transform="translate(648.415 394.342)" d="M0 0h15.239v153.828H0z"/>
            <path id="Path_169" data-name="Path 169" class="cls-4" d="M0 843.009h286.288v-71.6c-31.263-2.162-63.558 21.448-97.6 23.98-33.049 2.471-60.34-9.655-93.586-6.177-33.051 3.47-86.25 24.516-95.102 53.797z" transform="translate(764.344 -294.833)"/>
            <path id="Rectangle_417" data-name="Rectangle 417" class="cls-5" transform="translate(704.733 427.915)" d="M0 0h93.994v120.254H0z"/>
            <path id="Rectangle_418" data-name="Rectangle 418" class="cls-6" transform="translate(704.733 427.915)" d="M0 0h32.789v120.254H0z"/>
            <g id="Edit-2" data-name="Edit" transform="translate(113.28 236.128)">
                <path id="Path_170" data-name="Path 170" class="cls-7" d="m1399.406 403.747 12.453-15.209a17.161 17.161 0 0 1 26.167-.457l25.784 29.349a25.945 25.945 0 0 1 6.449 17.117v259.744h-75.32V416.262a19.767 19.767 0 0 1 4.466-12.515z" transform="translate(-1394.606 -382.249)"/>
                <path id="Path_171" data-name="Path 171" class="cls-8" d="M1444.48 412.76v293.194h14.529V420.469l-1.656-1.853a17.074 17.074 0 0 0-12.873-5.856z" transform="translate(-1413.958 -393.913)"/>
                <path id="Path_172" data-name="Path 172" d="M1394.94 425.63v285.244h13.812V451.13a25.984 25.984 0 0 0-6.449-17.123z" transform="translate(-1333.099 -398.832)" style="fill-rule:evenodd;fill:#dadada"/>
                <path id="Path_173" data-name="Path 173" class="cls-5" d="M1470.075 468.663a.309.309 0 0 0 .309-.309 14.319 14.319 0 0 0-3.558-9.451l-28.478-32.412a17.821 17.821 0 0 0-27.18.476l-13.491 16.475a14.35 14.35 0 0 0-3.237 9.068.309.309 0 0 0 .618 0 13.735 13.735 0 0 1 3.09-8.681l13.484-16.473a17.21 17.21 0 0 1 26.235-.457l28.465 32.412a13.69 13.69 0 0 1 3.4 9.044.309.309 0 0 0 .34.309z" transform="translate(-1394.421 -396.845)"/>
                <path id="Path_174" data-name="Path 174" class="cls-5" d="M1470.094 487.292a.309.309 0 0 0 .309-.309 14.282 14.282 0 0 0-3.755-9.668l-28.521-31.134a17.833 17.833 0 0 0-13.164-5.782h-.321a17.846 17.846 0 0 0-13.244 6.264l-13.541 15.888a14.364 14.364 0 0 0-3.416 9.266.309.309 0 0 0 .618 0 13.7 13.7 0 0 1 3.274-8.883l13.534-15.888a17.192 17.192 0 0 1 25.778-.463l28.521 31.127a13.653 13.653 0 0 1 3.6 9.266.309.309 0 0 0 .333.315z" transform="translate(-1394.44 -404.479)"/>
                <path id="Path_175" data-name="Path 175" class="cls-5" d="M1470.069 505.951a.309.309 0 0 0 .309-.309 14.255 14.255 0 0 0-3.972-9.884l-28.564-29.843a17.822 17.822 0 0 0-26.2.482l-13.59 15.3a14.3 14.3 0 0 0-3.614 9.513.309.309 0 0 0 .309.309.315.315 0 0 0 .309-.309 13.7 13.7 0 0 1 3.453-9.1l13.59-15.3a17.2 17.2 0 0 1 25.284-.469l28.57 29.849a13.589 13.589 0 0 1 3.8 9.47.309.309 0 0 0 .316.291z" transform="translate(-1394.415 -412.13)"/>
                <path id="Path_176" data-name="Path 176" class="cls-5" d="M1470.069 524.634a.309.309 0 0 0 .309-.309 14.207 14.207 0 0 0-4.2-10.137l-28.62-28.564a17.8 17.8 0 0 0-25.648.494l-13.652 14.708a14.3 14.3 0 0 0-3.818 9.735.309.309 0 0 0 .618 0 13.651 13.651 0 0 1 3.657-9.315l13.645-14.708a17.057 17.057 0 0 1 12.281-5.5h.34a17.068 17.068 0 0 1 12.145 5.028l28.582 28.545a13.59 13.59 0 0 1 4.021 9.7.315.315 0 0 0 .34.327z" transform="translate(-1394.415 -419.774)"/>
                <path id="Path_177" data-name="Path 177" class="cls-5" d="M1470.069 543.3a.309.309 0 0 0 .309-.309 14.385 14.385 0 0 0-4.448-10.378l-28.675-27.279a17.877 17.877 0 0 0-25.068.5l-13.7 14.1a14.209 14.209 0 0 0-4.046 9.977.309.309 0 0 0 .618 0 13.626 13.626 0 0 1 3.867-9.544l13.707-14.115a17.26 17.26 0 0 1 24.2-.482l28.669 27.279a13.758 13.758 0 0 1 4.256 9.927.315.315 0 0 0 .311.324z" transform="translate(-1394.415 -427.435)"/>
                <path id="Path_178" data-name="Path 178" class="cls-5" d="M1470.069 562a.309.309 0 0 0 .309-.309 14.362 14.362 0 0 0-4.707-10.619l-28.737-25.994a17.834 17.834 0 0 0-24.437.5l-13.776 13.522a14.414 14.414 0 0 0-4.281 10.211.309.309 0 0 0 .618 0 13.794 13.794 0 0 1 4.1-9.773l13.769-13.528a17.229 17.229 0 0 1 23.6-.482l28.737 25.994a13.744 13.744 0 0 1 4.5 10.162.315.315 0 0 0 .305.316z" transform="translate(-1394.415 -435.089)"/>
                <path id="Path_179" data-name="Path 179" class="cls-5" d="M1470.069 580.713a.309.309 0 0 0 .309-.309 14.294 14.294 0 0 0-4.991-10.866l-28.8-24.709a17.8 17.8 0 0 0-23.77.506l-13.837 12.929a14.376 14.376 0 0 0-4.541 10.458.309.309 0 0 0 .618 0 13.75 13.75 0 0 1 4.324-10.007l13.856-12.954a17.179 17.179 0 0 1 22.949-.488l28.8 24.709a13.7 13.7 0 0 1 4.775 10.4.314.314 0 0 0 .309.333z" transform="translate(-1394.415 -442.754)"/>
                <path id="Path_180" data-name="Path 180" class="cls-5" d="M1470.069 599.452a.309.309 0 0 0 .309-.309 14.251 14.251 0 0 0-5.294-11.119l-28.867-23.418a17.76 17.76 0 0 0-23.048.507l-13.911 12.355a14.332 14.332 0 0 0-4.818 10.718.309.309 0 0 0 .309.309.315.315 0 0 0 .309-.309 13.727 13.727 0 0 1 4.608-10.254l13.911-12.355a17.148 17.148 0 0 1 22.238-.488l28.867 23.418a13.64 13.64 0 0 1 5.065 10.637.309.309 0 0 0 .321.309z" transform="translate(-1394.415 -450.43)"/>
                <path id="Path_181" data-name="Path 181" class="cls-5" d="M1470.069 618.221a.309.309 0 0 0 .309-.309 14.406 14.406 0 0 0-5.622-11.378l-28.94-22.127a17.723 17.723 0 0 0-22.276.507l-13.985 11.737a14.3 14.3 0 0 0-5.115 10.971.309.309 0 0 0 .309.309.315.315 0 0 0 .309-.309 13.665 13.665 0 0 1 4.892-10.5l13.992-11.737a17.093 17.093 0 0 1 21.5-.488l28.947 22.127a13.776 13.776 0 0 1 5.374 10.885.315.315 0 0 0 .309.315z" transform="translate(-1394.415 -458.117)"/>
                <path id="Path_182" data-name="Path 182" class="cls-5" d="M1470.081 637.052a.309.309 0 0 0 .309-.309 14.343 14.343 0 0 0-5.967-11.632l-29.033-20.836a17.914 17.914 0 0 0-21.448.5l-14.066 11.119a14.238 14.238 0 0 0-5.436 11.23.309.309 0 0 0 .309.309.315.315 0 0 0 .309-.309 13.62 13.62 0 0 1 5.2-10.748l14.066-11.119a17.3 17.3 0 0 1 20.706-.482l29.033 20.83a13.733 13.733 0 0 1 5.708 11.119.315.315 0 0 0 .308.327z" transform="translate(-1394.427 -465.854)"/>
                <path id="Path_183" data-name="Path 183" class="cls-5" d="M1470.069 655.866a.309.309 0 0 0 .309-.309 14.276 14.276 0 0 0-6.338-11.885l-29.107-19.539a17.846 17.846 0 0 0-20.558.494l-14.159 10.5a14.382 14.382 0 0 0-5.776 11.5.309.309 0 0 0 .309.309.315.315 0 0 0 .309-.309 13.744 13.744 0 0 1 5.528-11l14.152-10.5a17.228 17.228 0 0 1 19.848-.476l29.107 19.533a13.67 13.67 0 0 1 6.066 11.373.309.309 0 0 0 .309.309z" transform="translate(-1394.415 -473.561)"/>
                <path id="Path_184" data-name="Path 184" class="cls-5" d="M1470.068 674.724a.309.309 0 0 0 .309-.309 14.208 14.208 0 0 0-6.733-12.145l-29.2-18.235a17.809 17.809 0 0 0-19.613.488l-14.251 9.884a14.331 14.331 0 0 0-6.14 11.737.309.309 0 0 0 .309.309.315.315 0 0 0 .309-.309 13.712 13.712 0 0 1 5.872-11.247l14.254-9.885a17.191 17.191 0 0 1 18.933-.47l29.2 18.235a13.59 13.59 0 0 1 6.443 11.62.308.308 0 0 0 .309.327z" transform="translate(-1394.415 -481.288)"/>
                <path id="Path_185" data-name="Path 185" class="cls-5" d="M1470.056 693.608a.309.309 0 0 0 .309-.309 14.367 14.367 0 0 0-7.141-12.4l-29.3-16.92a17.729 17.729 0 0 0-18.594.47l-14.35 9.266a14.252 14.252 0 0 0-6.536 12.015.309.309 0 0 0 .618 0 13.639 13.639 0 0 1 6.251-11.5l14.35-9.266a17.111 17.111 0 0 1 17.951-.457l29.305 16.926a13.731 13.731 0 0 1 6.844 11.86.309.309 0 0 0 .293.315z" transform="translate(-1394.403 -489.027)"/>
                <path id="Path_186" data-name="Path 186" class="cls-5" d="M1470.068 712.554a.309.309 0 0 0 .309-.309 14.283 14.283 0 0 0-7.6-12.645l-29.41-15.61a17.915 17.915 0 0 0-17.519.451l-14.449 8.648a14.387 14.387 0 0 0-6.955 12.28.309.309 0 1 0 .618 0 13.775 13.775 0 0 1 6.653-11.737l14.455-8.648a17.3 17.3 0 0 1 16.913-.439l29.4 15.61a13.677 13.677 0 0 1 7.277 12.083.309.309 0 0 0 .308.315z" transform="translate(-1394.415 -496.804)"/>
                <path id="Path_187" data-name="Path 187" class="cls-5" d="M1470.081 731.509a.309.309 0 0 0 .309-.309 14.405 14.405 0 0 0-8.074-12.886l-29.527-14.294a17.846 17.846 0 0 0-16.376.439l-14.56 8.031a14.319 14.319 0 0 0-7.413 12.534.309.309 0 1 0 .618 0 13.713 13.713 0 0 1 7.079-12L1416.7 705a17.2 17.2 0 0 1 15.8-.426l29.509 14.3a13.781 13.781 0 0 1 7.728 12.355.309.309 0 0 0 .34.284z" transform="translate(-1394.427 -504.573)"/>
                <path id="Path_188" data-name="Path 188" class="cls-5" d="M1470.069 750.494a.309.309 0 0 0 .309-.309 14.312 14.312 0 0 0-8.574-13.139l-29.651-12.972a17.773 17.773 0 0 0-15.159.414l-14.684 7.412a14.239 14.239 0 0 0-7.87 12.787.309.309 0 0 0 .309.309.315.315 0 0 0 .309-.309 13.633 13.633 0 0 1 7.53-12.237l14.684-7.413a17.149 17.149 0 0 1 14.634-.4l29.651 12.973a13.7 13.7 0 0 1 8.21 12.552.309.309 0 0 0 .3.334z" transform="translate(-1394.415 -512.345)"/>
                <path id="Path_189" data-name="Path 189" class="cls-5" d="M1470.093 769.606a.309.309 0 0 0 .309-.309 14.208 14.208 0 0 0-9.105-13.337l-29.775-11.632a17.914 17.914 0 0 0-13.88.383l-14.825 6.752a14.356 14.356 0 0 0-8.376 13.028.309.309 0 1 0 .618 0 13.738 13.738 0 0 1 8.031-12.466l14.825-6.752a17.3 17.3 0 0 1 13.4-.371l29.775 11.632a13.59 13.59 0 0 1 8.71 12.762.315.315 0 0 0 .293.31z" transform="translate(-1394.439 -520.196)"/>
                <path id="Path_190" data-name="Path 190" class="cls-5" d="M1470.069 788.645a.309.309 0 0 0 .309-.309 14.313 14.313 0 0 0-9.656-13.535l-29.91-10.291a17.84 17.84 0 0 0-12.534.352l-14.937 6.1a14.27 14.27 0 0 0-8.9 13.25.309.309 0 0 0 .618 0 13.646 13.646 0 0 1 8.518-12.682l14.937-6.1a17.174 17.174 0 0 1 12.1-.34l29.911 10.285a13.7 13.7 0 0 1 9.266 12.972.309.309 0 0 0 .278.298z" transform="translate(-1394.415 -528.005)"/>
                <path id="Path_191" data-name="Path 191" class="cls-5" d="M1470.063 807.777a.309.309 0 0 0 .309-.309 14.393 14.393 0 0 0-10.23-13.72l-30.053-8.938a17.692 17.692 0 0 0-11.119.321l-15.072 5.43a14.344 14.344 0 0 0-9.458 13.467.309.309 0 0 0 .618 0 13.732 13.732 0 0 1 9.05-12.886l15.073-5.43a17.1 17.1 0 0 1 10.73-.309l30.059 8.932a13.788 13.788 0 0 1 9.785 13.164.309.309 0 0 0 .308.278z" transform="translate(-1394.409 -535.851)"/>
                <path id="Path_192" data-name="Path 192" class="cls-5" d="M1470.081 826.963a.309.309 0 0 0 .309-.309 14.294 14.294 0 0 0-10.847-13.887l-30.2-7.567a17.846 17.846 0 0 0-9.649.278l-15.209 4.757a14.251 14.251 0 0 0-10.045 13.665.309.309 0 0 0 .618 0 13.64 13.64 0 0 1 9.612-13.078l15.208-4.75a17.156 17.156 0 0 1 9.309-.272l30.207 7.567a13.683 13.683 0 0 1 10.366 13.287.308.308 0 0 0 .321.309z" transform="translate(-1394.428 -543.726)"/>
                <path id="Path_193" data-name="Path 193" class="cls-5" d="M1470.081 846.2a.309.309 0 0 0 .309-.309 14.362 14.362 0 0 0-11.465-14.029l-30.362-6.177a17.914 17.914 0 0 0-8.117.235L1405.09 830a14.325 14.325 0 0 0-10.65 13.837.309.309 0 1 0 .618 0 13.707 13.707 0 0 1 10.193-13.244l15.375-4.077a17.3 17.3 0 0 1 7.839-.228l30.361 6.177a13.745 13.745 0 0 1 10.959 13.424.309.309 0 0 0 .3.321z" transform="translate(-1394.427 -551.626)"/>
                <path id="Path_194" data-name="Path 194" class="cls-5" d="M1470.056 865.477a.309.309 0 0 0 .309-.309 14.245 14.245 0 0 0-12.083-14.14l-30.516-4.794a17.785 17.785 0 0 0-6.542.185l-15.505 3.367a14.4 14.4 0 0 0-11.28 13.992.309.309 0 1 0 .618 0 13.776 13.776 0 0 1 10.792-13.386l15.505-3.367a17.219 17.219 0 0 1 6.313-.185l30.522 4.8a13.59 13.59 0 0 1 11.57 13.528.309.309 0 0 0 .297.309z" transform="translate(-1394.402 -559.533)"/>
            </g>
            <path id="Rectangle_419" data-name="Rectangle 419" class="cls-5" transform="translate(213.13 128.328)" d="M0 0h107.071v420.305H0z"/>
            <path id="Rectangle_420" data-name="Rectangle 420" class="cls-6" transform="translate(213.124 384.532)" d="M0 0h25.877v164.101H0z"/>
            <path id="Rectangle_421" data-name="Rectangle 421" class="cls-8" transform="translate(213.124 384.532)" d="M0 0h25.877v25.296H0z"/>
            <path id="Path_195" data-name="Path 195" d="M1193.23 329.554v70.465a34.778 34.778 0 0 0 8.858-29.787c-1.544-9.118-1.7-17.605.927-24.851 7.808-21.621 30.442-27.18 42.067-40.869 15.505-18.266 7.2-44.835 25.858-61.44 8.648-7.672 16.395-14.714 20.014-26.056a87.641 87.641 0 0 0 2.693-9.266h-28.416c-1.081 13.127-5.986 24.993-9.729 33.666-5.356 12.416-5.763 17.914-5.992 28.169-.2 9.075-.692 21.96-6.054 29.836-11.07 16.259-34.049 15.8-48.455 28.613-.375.359-1.042.884-1.771 1.52z" transform="translate(-980.112 -79.416)" style="fill-rule:evenodd;fill:#08726d"/>
            <path id="Rectangle_422" data-name="Rectangle 422" class="cls-4" transform="translate(213.13 134.715)" d="M0 0h107.071v1.235H0z"/>
            <path id="Rectangle_423" data-name="Rectangle 423" class="cls-4" transform="translate(213.124 160.011)" d="M0 0h25.877v1.235H0z"/>
            <path id="Rectangle_424" data-name="Rectangle 424" class="cls-4" transform="translate(238.383 128.328)" d="M0 0h1.235v420.305H0z"/>
            <path id="Rectangle_425" data-name="Rectangle 425" class="cls-4" transform="translate(252.072 135.333)" d="M0 0h.927v413.3H0z"/>
            <path id="Rectangle_426" data-name="Rectangle 426" class="cls-4" transform="translate(265.606 135.333)" d="M0 0h.927v413.3H0z"/>
            <path id="Rectangle_427" data-name="Rectangle 427" class="cls-4" transform="translate(279.141 135.333)" d="M0 0h.927v413.3H0z"/>
            <path id="Rectangle_428" data-name="Rectangle 428" class="cls-4" transform="translate(292.669 135.333)" d="M0 0h.927v413.3H0z"/>
            <path id="Rectangle_429" data-name="Rectangle 429" class="cls-4" transform="translate(306.204 135.333)" d="M0 0h.927v413.3H0z"/>
            <path id="Path_196" data-name="Path 196" class="cls-6" d="M1182.44 710.095v-270.61l60.9-17.105v287.715z" transform="translate(-923.141 -161.462)"/>
            <path id="Path_197" data-name="Path 197" class="cls-5" d="M1269.32 447.039v272.383h.927V446.78z" transform="translate(-1003.714 -170.79)"/>
            <path id="Path_198" data-name="Path 198" class="cls-5" d="M1247.42 440.9v276.175h.927V440.64z" transform="translate(-968.285 -168.443)"/>
            <path id="Path_199" data-name="Path 199" class="cls-5" d="M1225.5 434.74v279.98h.927V434.48z" transform="translate(-932.825 -166.088)"/>
            <path id="Path_200" data-name="Path 200" class="cls-5" d="M1203.6 428.579v283.787h.927V428.32z" transform="translate(-897.396 -163.733)"/>
            <path id="Path_201" data-name="Path 201" class="cls-5" d="M1329.071 627.82a9.352 9.352 0 1 1-6.634 2.741 9.359 9.359 0 0 1 6.634-2.741zm0 13.1a3.665 3.665 0 1 1 0-.012z" transform="translate(-1103.005 -239.995)"/>
            <path id="Path_202" data-name="Path 202" class="cls-6" d="M1344.191 627.82v5.609a3.749 3.749 0 0 0-3.75 3.744h-5.621a9.365 9.365 0 0 1 9.371-9.353z" transform="translate(-1118.12 -239.996)"/>
            <path id="Rectangle_430" data-name="Rectangle 430" class="cls-4" transform="translate(216.707 396.714)" d="M0 0h5.615v.927H0z"/>
            <path id="Path_203" data-name="Path 203" class="cls-4" d="m1182.44 225.838 81.2-5.146v-1.612h-81.2z" transform="translate(-943.439 -83.747)"/>
            <path id="Rectangle_431" data-name="Rectangle 431" class="cls-6" transform="translate(231.551 88.774)" d="M0 0h1.544v39.553H0z"/>
            <path id="Path_204" data-name="Path 204" class="cls-6" d="m1284.478 187.364-47.528-2.984v14.43h47.528z" transform="translate(-997.95 -70.483)"/>
            <path id="Rectangle_432" data-name="Rectangle 432" class="cls-6" transform="translate(238.228 88.774)" d="M0 0h1.544v39.553H0z"/>
            <path id="Path_205" data-name="Path 205" class="cls-5" d="m1109.13 295.194 54.941-16.364v17.834l-54.941 15.431z" transform="translate(-798.584 -106.588)"/>
            <path id="Path_206" data-name="Path 206" class="cls-6" d="M1066.507 313.015v7.919l-68.877-24.27V278.83l25.883 9.124z" transform="translate(-632.143 -106.588)"/>
            <path id="Path_207" data-name="Path 207" class="cls-6" d="M973.03 664.222h90.807V335.607L973.03 303.59z" transform="translate(-614.276 -116.053)"/>
            <path id="Path_208" data-name="Path 208" class="cls-5" d="m1064.51 356.27 8.945 2.9v-12.222l-8.945-3.008z" transform="translate(-680.404 -131.477)"/>
            <path id="Path_209" data-name="Path 209" class="cls-5" d="m1078.82 403.7 9.105 2.662v-12.33l-9.105-2.774z" transform="translate(-703.714 -149.566)"/>
            <path id="Path_210" data-name="Path 210" class="cls-5" d="m1036.86 441.864 8.525 2.354v-12.009l-8.525-2.459z" transform="translate(-635.254 -164.28)"/>
            <path id="Path_211" data-name="Path 211" class="cls-5" d="m1036.86 467.284 8.525 2.218v-12.009l-8.525-2.323z" transform="translate(-635.254 -173.997)"/>
            <path id="Path_212" data-name="Path 212" class="cls-5" d="m1093.53 504.712 9.148 2.088v-12.441l-9.148-2.2z" transform="translate(-727.555 -188.137)"/>
            <path id="Path_213" data-name="Path 213" class="cls-5" d="m1064.7 563.3 8.821 1.73v-12.219l-8.821-1.841z" transform="translate(-680.588 -210.618)"/>
            <path id="Path_214" data-name="Path 214" class="cls-5" d="m1064.7 640.94 8.821 1.3v-12.215l-8.821-1.415z" transform="translate(-680.588 -240.298)"/>
            <path id="Path_215" data-name="Path 215" class="cls-5" d="m1078.98 664.831 8.988 1.18v-12.324l-8.988-1.3z" transform="translate(-703.856 -249.388)"/>
            <path id="Path_216" data-name="Path 216" class="cls-5" d="m1009.98 674.424 8.234 1.081v-11.8l-8.234-1.186z" transform="translate(-591.479 -253.26)"/>
            <path id="Path_217" data-name="Path 217" class="cls-5" d="m1023.31 672.569 8.37 1.106v-11.9l-8.37-1.211z" transform="translate(-613.179 -252.511)"/>
            <path id="Path_218" data-name="Path 218" class="cls-5" d="m1036.86 721.534 8.525.852v-12.008l-8.525-.957z" transform="translate(-635.254 -271.189)"/>
            <path id="Path_219" data-name="Path 219" class="cls-5" d="m1050.66 720.069 8.673.865V708.82l-8.673-.97z" transform="translate(-657.727 -270.588)"/>
            <path id="Path_220" data-name="Path 220" class="cls-5" d="m1064.7 718.57 8.821.883v-12.218l-8.821-.995z" transform="translate(-680.588 -269.973)"/>
            <path id="Path_221" data-name="Path 221" class="cls-5" d="m1078.98 769.275 8.988.612v-12.33l-8.988-.716z" transform="translate(-703.856 -289.316)"/>
            <path id="Path_222" data-name="Path 222" class="cls-5" d="m1050.66 822.665 8.673.309V810.86l-8.673-.42z" transform="translate(-657.727 -309.805)"/>
            <path id="Path_223" data-name="Path 223" class="cls-5" d="m1078.98 586.491 8.988 1.618V575.78l-8.988-1.73z" transform="translate(-703.856 -219.441)"/>
            <path id="Path_224" data-name="Path 224" class="cls-5" d="m1078.82 429.821 9.087 2.508v-12.324l-9.087-2.625z" transform="translate(-703.696 -159.551)"/>
            <path id="Path_225" data-name="Path 225" class="cls-5" d="m1023.31 773.383 8.37.568v-11.9l-8.37-.667z" transform="translate(-613.179 -291.051)"/>
            <path id="Path_226" data-name="Path 226" class="cls-5" d="m1036.86 772.384 8.525.575v-12l-8.525-.686z" transform="translate(-635.254 -290.627)"/>
            <path id="Path_227" data-name="Path 227" class="cls-5" d="m1064.7 485.71 8.723 2.125v-12.219l-8.723-2.236z" transform="translate(-680.489 -180.958)"/>
            <path id="Path_228" data-name="Path 228" class="cls-5" d="m1093.56 360.68 9.13 2.928v12.274l-9.13-2.811z" transform="translate(-727.585 -137.876)"/>
            <path id="Path_229" data-name="Path 229" class="cls-5" d="m1036.86 619.815 8.525 1.4v-11.99l-8.525-1.5z" transform="translate(-635.254 -232.312)"/>
            <path id="Path_230" data-name="Path 230" class="cls-5" d="m1023.31 546.549 8.37 1.773v-11.9l-8.37-1.878z" transform="translate(-613.179 -204.337)"/>
            <path id="Rectangle_433" data-name="Rectangle 433" class="cls-4" transform="scale(-1) rotate(19.4 417.209 -1416.913)" d="M0 0h90.158v.618H0z"/>
            <path id="Path_231" data-name="Path 231" class="cls-4" d="m1062.132 360.455.2-.587-84.092-28.3-.2.587z" transform="translate(-615.864 -126.749)"/>
            <path id="Rectangle_434" data-name="Rectangle 434" class="cls-4" transform="rotate(-162.28 242.277 89.526)" d="M0 0h87.317v.618H0z"/>
            <path id="Path_232" data-name="Path 232" class="cls-4" d="m1061.814 410.537.179-.587-82.208-25.03-.185.587z" transform="translate(-616.491 -147.143)"/>
            <path id="Rectangle_435" data-name="Rectangle 435" class="cls-4" transform="rotate(-163.95 242.07 107.728)" d="M0 0h84.586v.618H0z"/>
            <path id="Path_233" data-name="Path 233" class="cls-4" d="m1061.48 460.639.167-.593-80.336-21.886-.161.6z" transform="translate(-617.102 -167.495)"/>
            <path id="Path_234" data-name="Path 234" class="cls-4" d="m1061.327 485.7.154-.6-79.4-20.354-.154.6z" transform="translate(-617.419 -177.659)"/>
            <path id="Rectangle_436" data-name="Rectangle 436" class="cls-4" transform="rotate(-166.45 240.897 135.151)" d="M0 0h80.688v.618H0z"/>
            <path id="Rectangle_437" data-name="Rectangle 437" class="cls-4" transform="rotate(-167.38 240.172 144.47)" d="M0 0h79.44v.618H0z"/>
            <path id="Rectangle_438" data-name="Rectangle 438" class="cls-4" transform="rotate(-168.29 239.332 153.697)" d="M0 0h78.217v.618H0z"/>
            <path id="Path_235" data-name="Path 235" class="cls-4" d="m1060.7 586.007.111-.605-75.624-14.542-.117.605z" transform="translate(-618.693 -218.221)"/>
            <path id="Path_236" data-name="Path 236" class="cls-4" d="m1060.546 611.1.1-.605-74.7-13.164-.1.605z" transform="translate(-619.01 -228.34)"/>
            <path id="Path_237" data-name="Path 237" class="cls-4" d="m1060.381 636.2.1-.612-73.758-11.818-.093.605z" transform="translate(-619.32 -238.447)"/>
            <path id="Path_238" data-name="Path 238" class="cls-4" d="m1060.232 661.3.086-.605-72.812-10.5-.087.605z" transform="translate(-619.647 -248.547)"/>
            <path id="Path_239" data-name="Path 239" class="cls-4" d="m1060.077 686.408.08-.612-71.867-9.216-.08.611z" transform="translate(-619.974 -258.635)"/>
            <path id="Path_240" data-name="Path 240" class="cls-4" d="m1059.918 711.528.074-.612-70.934-7.956-.068.612z" transform="translate(-620.29 -268.719)"/>
            <path id="Rectangle_439" data-name="Rectangle 439" class="cls-4" transform="rotate(-174.62 230.333 218.576)" d="M0 0h70.316v.618H0z"/>
            <path id="Path_241" data-name="Path 241" class="cls-4" d="m1059.62 761.776.049-.618-69.056-5.529-.043.611z" transform="translate(-620.944 -288.853)"/>
            <path id="Path_242" data-name="Path 242" class="cls-4" d="m1059.465 786.909.043-.612-68.108-4.367-.037.612z" transform="translate(-621.271 -298.907)"/>
            <path id="Path_243" data-name="Path 243" class="cls-4" d="m1059.322 812.048.031-.618-67.172-3.23-.031.618z" transform="translate(-621.603 -308.949)"/>
            <path id="Rectangle_440" data-name="Rectangle 440" class="cls-4" transform="rotate(-178.21 222.657 255.668)" d="M0 0h66.264v.618H0z"/>
            <path id="Rectangle_441" data-name="Rectangle 441" class="cls-4" transform="rotate(-179.1 220.468 264.943)" d="M0 0h65.294v.618H0z"/>
            <path id="Rectangle_442" data-name="Rectangle 442" class="cls-4" transform="translate(371.93 547.86)" d="M0 0h64.349v.618H0z"/>
            <path id="Path_244" data-name="Path 244" class="cls-4" d="m1101.126 665.845 2.471-.1-8.426-211.6V307.69h-2.471V454.2z" transform="translate(-727.96 -117.62)"/>
            <path id="Path_245" data-name="Path 245" class="cls-4" d="m987.029 680.866.921-.093-14.734-151.734V347h-.927v182.083z" transform="translate(-537.932 -132.647)"/>
            <path id="Path_246" data-name="Path 246" class="cls-5" d="M1184.694 664.222h-64.664V321.77l64.664-18.18z" transform="translate(-825.94 -116.053)"/>
            <path id="Path_247" data-name="Path 247" class="cls-6" d="m1162.68 459.334 6.82-1.415V445.54l-6.82 1.483z" transform="translate(-837.092 -170.316)"/>
            <path id="Path_248" data-name="Path 248" class="cls-6" d="m1151.45 535.127 6.937-1.174V521.5l-6.937 1.242z" transform="translate(-819.042 -199.353)"/>
            <path id="Path_249" data-name="Path 249" class="cls-6" d="m1162.68 562.96 6.863-1.075V549.5l-6.863 1.143z" transform="translate(-837.135 -210.056)"/>
            <path id="Path_250" data-name="Path 250" class="cls-6" d="m1158.387 390.83-6.937 1.686V404.9l6.937-1.612z" transform="translate(-819.042 -149.402)"/>
            <path id="Path_251" data-name="Path 251" class="cls-6" d="m1147.111 466.91-7.011 1.439V480.8l7.011-1.365z" transform="translate(-800.755 -178.485)"/>
            <path id="Path_252" data-name="Path 252" class="cls-6" d="m1173.79 693.541 6.789-.63V680.6l-6.789.692z" transform="translate(-855.034 -260.172)"/>
            <path id="Path_253" data-name="Path 253" class="cls-6" d="m1151.45 743.5 6.937-.463V730.58l-6.937.537z" transform="translate(-819.042 -279.277)"/>
            <path id="Path_254" data-name="Path 254" class="cls-6" d="m1162.68 744.286 6.82-.457V731.45l-6.82.519z" transform="translate(-837.092 -279.61)"/>
            <path id="Path_255" data-name="Path 255" class="cls-6" d="m1169.5 627.48-6.82.871v12.318l6.82-.809z" transform="translate(-837.092 -239.866)"/>
            <path id="Path_256" data-name="Path 256" class="cls-6" d="m1195.64 797.57 6.641-.278V785.11l-6.641.34z" transform="translate(-890.233 -300.122)"/>
            <path id="Path_257" data-name="Path 257" class="cls-6" d="m1184.78 822.705 6.708-.192V810.27l-6.708.253z" transform="translate(-872.733 -309.74)"/>
            <path id="Path_258" data-name="Path 258" class="cls-6" d="m1206.39 659.254 6.573-.754v12.114l-6.573.692z" transform="translate(-907.556 -251.723)"/>
            <path id="Rectangle_443" data-name="Rectangle 443" class="cls-8" transform="rotate(-105.7 226.183 -9.665)" d="M0 0h.927v59.623H0z"/>
            <path id="Path_259" data-name="Path 259" class="cls-8" d="m1128.811 347.916 56.918-15.27-.241-.9-56.918 15.27z" transform="translate(-832.25 -126.817)"/>
            <path id="Rectangle_444" data-name="Rectangle 444" class="cls-8" transform="rotate(-104.33 240.16 3.206)" d="M0 0h.927v58.24H0z"/>
            <path id="Path_260" data-name="Path 260" class="cls-8" d="m1130.746 399.546 55.942-13.584-.216-.9-55.942 13.584z" transform="translate(-834.42 -147.196)"/>
            <path id="Rectangle_445" data-name="Rectangle 445" class="cls-8" transform="rotate(-102.95 254.78 16.05)" d="M0 0h.927v56.906H0z"/>
            <path id="Path_261" data-name="Path 261" class="cls-8" d="m1132.678 451.129 54.972-11.941-.2-.908-54.972 11.941z" transform="translate(-836.586 -167.54)"/>
            <path id="Rectangle_446" data-name="Rectangle 446" class="cls-8" transform="rotate(-101.55 270.116 28.758)" d="M0 0h.927v55.614H0z"/>
            <path id="Rectangle_447" data-name="Rectangle 447" class="cls-8" transform="rotate(-100.85 278.032 35.143)" d="M0 0h.927v54.984H0z"/>
            <path id="Rectangle_448" data-name="Rectangle 448" class="cls-8" transform="rotate(-100.14 286.16 41.425)" d="M0 0h.927v54.367H0z"/>
            <path id="Rectangle_449" data-name="Rectangle 449" class="cls-8" transform="scale(-1) rotate(80.56 56.365 -347.599)" d="M0 0h.927v53.761H0z"/>
            <path id="Rectangle_450" data-name="Rectangle 450" class="cls-8" transform="rotate(-98.72 302.94 54.023)" d="M0 0h.927v53.168H0z"/>
            <path id="Path_262" data-name="Path 262" class="cls-8" d="m1138.45 605.574 52.069-7.32-.13-.914-52.069 7.314z" transform="translate(-843.063 -228.344)"/>
            <path id="Rectangle_451" data-name="Rectangle 451" class="cls-8" transform="rotate(-97.3 320.497 66.44)" d="M0 0h.927v52.007H0z"/>
            <path id="Rectangle_452" data-name="Rectangle 452" class="cls-8" transform="rotate(-96.34 332.954 70.424)" d="M0 0h.923v51.244H0z"/>
            <path id="Rectangle_453" data-name="Rectangle 453" class="cls-8" transform="rotate(-95.84 338.94 78.845)" d="M0 0h.927v50.889H0z"/>
            <path id="Rectangle_454" data-name="Rectangle 454" class="cls-8" transform="rotate(-95.1 348.497 84.922)" d="M0 0h.927v50.345H0z"/>
            <path id="Rectangle_455" data-name="Rectangle 455" class="cls-8" transform="rotate(-94.59 355.23 93.133)" d="M0 0h.93v49.973H0z"/>
            <path id="Path_263" data-name="Path 263" class="cls-8" d="m1144.186 759.571 49.19-3.144-.056-.927-49.19 3.144z" transform="translate(-849.509 -288.804)"/>
            <path id="Rectangle_456" data-name="Rectangle 456" class="cls-8" transform="rotate(-92.93 378.317 103.29)" d="M0 0h.927v48.776H0z"/>
            <path id="Rectangle_457" data-name="Rectangle 457" class="cls-8" transform="rotate(-92.19 388.779 109.214)" d="M0 0h.927v48.27H0z"/>
            <path id="Rectangle_458" data-name="Rectangle 458" class="cls-8" transform="rotate(-91.7 397.534 118.581)" d="M0 0h.927v47.797H0z"/>
            <path id="Rectangle_459" data-name="Rectangle 459" class="cls-8" transform="rotate(-90.73 410.268 121.262)" d="M0 0h.927v47.281H0z"/>
            <path id="Rectangle_460" data-name="Rectangle 460" class="cls-8" transform="translate(294.09 547.706)" d="M0 0h46.806v.927H0z"/>
            <path id="Rectangle_461" data-name="Rectangle 461" class="cls-4" transform="translate(298.371 204.383)" d="M0 0h.927v93.759H0z"/>
            <path id="Rectangle_462" data-name="Rectangle 462" class="cls-4" transform="translate(310.546 343.002)" d="M0 0h.927v205.174H0z"/>
            <path id="Rectangle_463" data-name="Rectangle 463" class="cls-4" transform="rotate(-177.07 177.744 163.73)" d="M0 0h.927v147.557H0z"/>
            <path id="Path_264" data-name="Path 264" class="cls-4" d="m1140.265 666.407 10.755-211.925h-.043V309.21h-1.235v146.106l-10.712 211.023z" transform="translate(-804.003 -118.201)"/>
            <path id="Path_265" data-name="Path 265" class="cls-4" d="m1197.539 672.791 16.926-205.279-.031-.1-12.145-44.749L1213.032 326l-1.229-.136-10.767 96.9.037.111 12.145 44.755-16.908 205.056z" transform="translate(-902.832 -124.566)"/>
            <path id="Path_266" data-name="Path 266" class="cls-4" d="m1087.78 403.7 3.571 1.044-.692-12.608-2.879-.877z" transform="translate(-712.675 -149.566)"/>
            <path id="Path_267" data-name="Path 267" class="cls-4" d="m1064.7 564.7 4.954.97v-12.221l-3.873-.809z" transform="translate(-676.721 -211.257)"/>
            <path id="Path_268" data-name="Path 268" class="cls-4" d="m1093.53 507.055 3.354.766V495.38l-2.292-.55z" transform="translate(-721.76 -189.158)"/>
            <path id="Path_269" data-name="Path 269" class="cls-4" d="m1036.86 621.416 3.12.507v-11.99l-2-.352z" transform="translate(-629.849 -233.023)"/>
            <path id="Path_270" data-name="Path 270" class="cls-4" d="m1084.79 664.831 5.4.71-.908-12.5-4.491-.649z" transform="translate(-709.666 -249.388)"/>
            <path id="Rectangle_464" data-name="Rectangle 464" class="cls-8" transform="translate(449.561 270.56)" d="M0 0h30.979v277.609H0z"/>
            <path id="Rectangle_465" data-name="Rectangle 465" class="cls-8" transform="translate(188.94 358.773)" d="M0 0h24.184v189.397H0z"/>
            <path id="Rectangle_466" data-name="Rectangle 466" class="cls-4" transform="translate(44.304 453.903)" d="M0 0h194.697v94.266H0z"/>
            <path id="Path_271" data-name="Path 271" class="cls-8" d="M1241.2 829.056c30.528-52.76 87.205-94.266 130.342-94.266S1428.7 776.3 1405 829.056z" transform="translate(-1132.544 -280.887)"/>
            <path id="Path_272" data-name="Path 272" class="cls-5" d="M1247.987 832.726c29.651-49.456 83.783-88.336 124.479-88.336s53.261 38.917 30.046 88.336z" transform="translate(-1134.373 -284.556)"/>
            <path id="Path_273" data-name="Path 273" class="cls-4" d="M0 838.2h917.146v-7.5H6.7q-3.432 3.669-6.7 7.5z" transform="translate(133.486 -317.55)"/>
            <g id="Edit-3" data-name="Edit" transform="translate(0 147.323)">
                <path id="Path_274" data-name="Path 274" class="cls-6" d="M1497.22 639.336h53.767V256.651l-53.767-18.161z" transform="translate(-1425.236 -238.49)"/>
                <path id="Path_275" data-name="Path 275" class="cls-4" d="M1524.6 487.909V294.33l.908.29v193.425z" transform="translate(-1416.669 -259.836)"/>
                <path id="Path_276" data-name="Path 276" class="cls-4" d="M1524.6 651v-11.13l.908.117v11.125z" transform="translate(-1416.669 -391.925)"/>
                <path id="Path_277" data-name="Path 277" class="cls-4" d="M1525.508 664.324v24.017h-.908V664.25z" transform="translate(-1416.669 -401.244)"/>
                <path id="Path_278" data-name="Path 278" class="cls-4" d="M1538.98 435.173V289.74l.927.3v145.312z" transform="translate(-1439.951 -258.081)"/>
                <path id="Path_279" data-name="Path 279" class="cls-4" d="M1539.907 610.076v84.29l-.927.185V609.94z" transform="translate(-1439.951 -380.484)"/>
                <path id="Path_280" data-name="Path 280" class="cls-4" d="M1510.43 409.214V298.85l.9.284v110.284z" transform="translate(-1393.734 -261.564)"/>
                <path id="Path_281" data-name="Path 281" class="cls-5" d="m1553.58 399.087 10.125 2.4v-55.716l-10.125-2.891z" transform="translate(-1472.768 -278.395)"/>
                <path id="Path_282" data-name="Path 282" class="cls-4" d="M1568.45 280.36V531c.334-.068.618-.142.958-.235v-250.1z" transform="translate(-1487.657 -254.496)"/>
                <path id="Path_283" data-name="Path 283" class="cls-4" d="M1553.58 347.13v204.3c.3-.222.618-.445.939-.649V347.4z" transform="translate(-1463.583 -280.02)"/>
                <path id="Path_284" data-name="Path 284" class="cls-5" d="M1656.244 639.336h-71.984V273.515l71.984-35.025z" transform="translate(-1584.26 -238.49)"/>
                <path id="Path_285" data-name="Path 285" class="cls-4" d="M1597.49 543.517v-261.19l.995-.457v262.493z" transform="translate(-1534.673 -255.073)"/>
                <path id="Path_286" data-name="Path 286" class="cls-4" d="M1637.93 505.019V300.846l.933-.426V506.1z" transform="translate(-1600.032 -262.164)"/>
                <path id="Path_287" data-name="Path 287" class="cls-4" d="M1650.88 335.055v154.68c.3.142.618.266.914.408V334.66z" transform="translate(-1620.963 -275.253)"/>
                <path id="Path_288" data-name="Path 288" class="cls-4" d="M1663.55 312.584v109.579c.284.08.618.161.9.216V312.17z" transform="translate(-1641.441 -266.655)"/>
                <path id="Path_289" data-name="Path 289" class="cls-4" d="M1675.97 476.457V318.268l.89-.408v159.406z" transform="translate(-1661.527 -268.831)"/>
                <path id="Path_290" data-name="Path 290" class="cls-4" d="M1611.26 447.262V288.635l.976-.445v158.819z" transform="translate(-1556.93 -257.489)"/>
                <path id="Path_291" data-name="Path 291" class="cls-4" d="M1612.236 625.87v89.794a.615.615 0 0 1-.056-.08 50.794 50.794 0 0 1-.921-1.563v-87.953z" transform="translate(-1556.93 -386.573)"/>
                <path id="Path_292" data-name="Path 292" class="cls-4" d="M1625.688 407.81v261.56c-.13-1.192-.26-2.385-.408-3.564s-.333-2.471-.55-3.651V408.162z" transform="translate(-1578.703 -303.216)"/>
                <path id="Path_293" data-name="Path 293" class="cls-4" d="M1624.73 332.49v-37.681l.957-.439v37.73z" transform="translate(-1578.703 -259.851)"/>
            </g>
            <path id="Rectangle_467" data-name="Rectangle 467" class="cls-7" transform="translate(188.94 346.128)" d="M0 0h24.184v12.651H0z"/>
            <path id="Path_294" data-name="Path 294" class="cls-8" d="M1404.378 876.553h-9.519l-16.679-17.513h9.519z" transform="translate(-1205.091 -328.383)"/>
            <path id="Path_295" data-name="Path 295" class="cls-8" d="M1446.794 848.2h-9.526l-16.678-17.51h9.526z" transform="translate(-1273.705 -317.546)"/>
            <path id="Path_296" data-name="Path 296" class="cls-4" d="m1396.419 830.69 16.681 17.51h9.526l2.693 2.835 13.985 14.677h-2.835l-13.979-14.677h-9.525l-2.693-2.835-16.682-17.51z" transform="translate(-1249.535 -317.546)"/>
            <path id="Path_297" data-name="Path 297" class="cls-7" d="M1274.384 833.06H1044.86v-2.36h232.1z" transform="translate(-871.771 -317.55)"/>
            <path id="Path_298" data-name="Path 298" class="cls-4" d="M1371.6 800.08h-55.849a24.253 24.253 0 0 0-18.582 9.105l-4.269 5.282a1.769 1.769 0 0 0-.241.377 1.853 1.853 0 0 0 .7 2.632l1.31.692a7.572 7.572 0 0 0 3.49.828h73.441z" transform="translate(-1119.303 -305.845)"/>
            <path id="Path_299" data-name="Path 299" class="cls-5" d="M1409.712 804.018a59.151 59.151 0 0 0-7.561 8.216 5.665 5.665 0 0 1-4.392 2.23h-1.31l3.3-4.089a24.906 24.906 0 0 1 9.5-7.184c.524.209.858.499.463.827z" transform="translate(-1221.884 -307.034)"/>
            <path id="Path_300" data-name="Path 300" class="cls-5" d="M1359.987 811.812h-67.617l4.1-5.782h63.521z" transform="translate(-1107.693 -308.12)"/>
            <path id="Path_301" data-name="Path 301" class="cls-6" d="M1371.6 817.13v2.17h-64.59l-3.361 6.214h-5.486a7.573 7.573 0 0 1-3.49-.828l-1.31-.692a1.853 1.853 0 0 1-.7-2.632h6.332a2.4 2.4 0 0 0 1.946-1l2.286-3.231z" transform="translate(-1119.303 -312.363)"/>
            <path id="Path_302" data-name="Path 302" class="cls-6" d="M1337.35 819.808h11.589V804h-11.589zm10.891-.7h-10.2v-14.43h10.193z" transform="translate(-1124.43 -307.343)"/>
            <path id="Path_303" data-name="Path 303" class="cls-8" d="M1317.447 827.34h-10.854l-1.174 2.076h13.2z" transform="translate(-1074.388 -316.266)"/>
            <path id="Path_304" data-name="Path 304" class="cls-11" d="M1378.7 827.34h-10.854l-1.174 2.076h13.2z" transform="translate(-1173.474 -316.266)"/>
            <path id="Path_305" data-name="Path 305" class="cls-4" d="m1400.253 811-2.755 3.459h-.618l3.3-4.089a24.906 24.906 0 0 1 9.5-7.184 2.762 2.762 0 0 1 .358.179 26.929 26.929 0 0 0-9.785 7.635z" transform="translate(-1222.303 -307.034)"/>
            <path id="Path_306" data-name="Path 306" class="cls-4" d="M1041.4 800.08h55.849a24.252 24.252 0 0 1 18.581 9.105l4.268 5.282a1.761 1.761 0 0 1 .241.377 1.853 1.853 0 0 1-.7 2.632l-1.31.692a7.572 7.572 0 0 1-3.49.828H1041.4z" transform="translate(-713.309 -305.845)"/>
            <path id="Path_307" data-name="Path 307" class="cls-5" d="M1044 804.018a59.147 59.147 0 0 1 7.561 8.216 5.665 5.665 0 0 0 4.392 2.23h1.31l-3.3-4.089a24.9 24.9 0 0 0-9.5-7.184c-.521.209-.855.499-.463.827z" transform="translate(-651.441 -307.034)"/>
            <path id="Path_308" data-name="Path 308" class="cls-5" d="M1060.19 811.812h67.623l-4.1-5.782h-63.523z" transform="translate(-732.094 -308.12)"/>
            <path id="Path_309" data-name="Path 309" class="cls-6" d="M1041.405 817.13v2.17h64.59l3.361 6.214h5.485a7.576 7.576 0 0 0 3.49-.828l1.309-.692a1.853 1.853 0 0 0 .7-2.632h-6.332a2.4 2.4 0 0 1-1.946-1l-2.286-3.231z" transform="translate(-713.309 -312.363)"/>
            <path id="Path_310" data-name="Path 310" class="cls-5" d="M1105.92 819.808h11.589V804h-11.589zm10.891-.7h-10.193v-14.43h10.193z" transform="translate(-750.039 -307.343)"/>
            <path id="Path_311" data-name="Path 311" class="cls-8" d="M1136.414 827.34h10.853l1.174 2.076h-13.2z" transform="translate(-799.083 -316.266)"/>
            <path id="Path_312" data-name="Path 312" class="cls-8" d="M1075.164 827.34h10.854l1.174 2.076h-13.2z" transform="translate(-699.997 -316.266)"/>
            <path id="Path_313" data-name="Path 313" class="cls-4" d="m1053.635 811 2.755 3.459h.618l-3.3-4.089a24.9 24.9 0 0 0-9.5-7.184 2.406 2.406 0 0 0-.358.179 26.922 26.922 0 0 1 9.785 7.635z" transform="translate(-651.195 -307.034)"/>
            <path id="Rectangle_468" data-name="Rectangle 468" class="cls-4" transform="translate(252.294 494.235)" d="M0 0h75.802v18.915H0z"/>
            <path id="Rectangle_469" data-name="Rectangle 469" class="cls-5" transform="translate(252.294 497.904)" d="M0 0h75.802v5.788H0z"/>
            <path id="Rectangle_470" data-name="Rectangle 470" class="cls-6" transform="translate(252.294 504.767)" d="M0 0h75.802v2.168H0z"/>
            <path id="Path_314" data-name="Path 314" class="cls-5" d="M1221.63 819.808h11.595V804h-11.595zm10.891-.7h-10.186v-14.43h10.186z" transform="translate(-937.232 -307.343)"/>
            <path id="Path_315" data-name="Path 315" class="cls-8" d="M1183.89 827.34h10.847l1.174 2.076h-13.2z" transform="translate(-875.876 -316.266)"/>
            <path id="Path_316" data-name="Path 316" class="cls-8" d="M1259.124 827.34h10.854l1.174 2.076h-13.2z" transform="translate(-997.594 -316.266)"/>
            <path id="Rectangle_471" data-name="Rectangle 471" class="cls-11" transform="translate(327.552 494.235)" d="M0 0h1.087v18.915H0z"/>
            <path id="Rectangle_472" data-name="Rectangle 472" class="cls-11" transform="translate(251.751 494.235)" d="M0 0h1.087v18.915H0z"/>
            <g id="Edit-4" data-name="Edit" transform="translate(0 452.336)">
                <path id="Path_317" data-name="Path 317" class="cls-5" d="M1526.56 874.826h56.757V773.209l-28.378-40.659-28.379 40.659z" transform="translate(-1475.69 -732.367)"/>
                <path id="Rectangle_473" data-name="Rectangle 473" class="cls-6" transform="translate(0 40.836)" d="M0 0h50.864v101.617H0z"/>
                <path id="Path_318" data-name="Path 318" d="M1618.45 798.36v2.557l50.864 2.551v-5.108z" transform="translate(-1618.45 -757.524)" style="fill:#320d53"/>
                <path id="Rectangle_474" data-name="Rectangle 474" class="cls-4" transform="translate(33.673 53.11)" d="M0 0h7.987v17.729H0z"/>
                <path id="Rectangle_475" data-name="Rectangle 475" class="cls-4" transform="translate(33.673 82.786)" d="M0 0h7.987v17.729H0z"/>
                <path id="Rectangle_476" data-name="Rectangle 476" class="cls-4" transform="translate(17.779 112.456)" d="M0 0h23.882v29.997H0z"/>
                <path id="Path_319" data-name="Path 319" class="cls-4" d="M1667.061 818.23v17.729h-7.981V818.23zm-7.11 16.852h6.239v-15.975h-6.239z" transform="translate(-1641.296 -765.12)"/>
                <path id="Rectangle_477" data-name="Rectangle 477" class="cls-4" transform="translate(17.785 82.786)" d="M0 0h7.987v17.729H0z"/>
                <path id="Rectangle_478" data-name="Rectangle 478" class="cls-4" transform="translate(75.252 53.11)" d="M0 0h7.987v17.729H0z"/>
                <path id="Rectangle_479" data-name="Rectangle 479" class="cls-4" transform="translate(75.252 82.786)" d="M0 0h7.987v17.729H0z"/>
                <path id="Rectangle_480" data-name="Rectangle 480" class="cls-6" transform="translate(75.252 112.456)" d="M0 0h7.987v29.997H0z"/>
                <path id="Rectangle_481" data-name="Rectangle 481" class="cls-4" transform="translate(17.785 112.456)" d="M0 0h2.094v29.997H0z"/>
                <path id="Path_320" data-name="Path 320" class="cls-4" d="M1524.332 732.55h-3.6l28.378 40.659h3.6z" transform="translate(-1441.481 -732.367)"/>
                <path id="Path_321" data-name="Path 321" class="cls-4" d="m1566.676 760.4-.006 12.812h54.472l28.379-40.647h-63.41z" transform="translate(-1566.67 -732.371)"/>
                <path id="Path_322" data-name="Path 322" class="cls-13" d="M1669.411 766.72h7.987l-6.875 9.853h-7.994zm6.511.791h-6.109l-5.8 8.315h6.1z" transform="translate(-1653.764 -745.429)"/>
                <path id="Rectangle_482" data-name="Rectangle 482" class="cls-6" transform="translate(80.657 53.11)" d="M0 0h2.582v17.729H0z"/>
                <path id="Rectangle_483" data-name="Rectangle 483" class="cls-6" transform="rotate(-145.19 32.11 13.788)" d="M0 0h.617v24.651H0z"/>
                <path id="Rectangle_484" data-name="Rectangle 484" class="cls-6" transform="rotate(-145.09 28.527 13.556)" d="M0 0h.618v31.825H0z"/>
                <path id="Rectangle_485" data-name="Rectangle 485" class="cls-13" transform="rotate(-145.09 25.885 14.38)" d="M0 0h.618v28.212H0z"/>
                <path id="Rectangle_486" data-name="Rectangle 486" class="cls-13" transform="rotate(-145.09 23.246 15.236)" d="M0 0h.618v16.357H0z"/>
                <path id="Rectangle_487" data-name="Rectangle 487" class="cls-13" transform="rotate(-145.09 20.604 16.09)" d="M0 0h.618v13.88H0z"/>
                <path id="Rectangle_488" data-name="Rectangle 488" class="cls-13" transform="rotate(-145.09 17.956 16.877)" d="M0 0h.618v21.88H0z"/>
                <path id="Rectangle_489" data-name="Rectangle 489" class="cls-13" transform="rotate(-145.09 15.32 17.734)" d="M0 0h.618v8.877H0z"/>
                <path id="Rectangle_490" data-name="Rectangle 490" class="cls-13" transform="rotate(-145.09 16.15 -.07)" d="M0 0h.618v10.681H0z"/>
                <path id="Rectangle_491" data-name="Rectangle 491" class="cls-13" transform="rotate(-145.19 12.762 7.18)" d="M0 0h.617v21.332H0z"/>
            </g>
            <path id="Path_323" data-name="Path 323" class="cls-4" d="M133.55 862.462c5.492-16.061 43.945-29.521 71.224-31.27 27.4-1.754 45.836 4.571 73.016 2.9 25.852-1.594 45.4-16.061 72.892-10.742 18.532 3.57 28.323 15.987 48.8 17.445 21.287 1.514 25.031-3.317 43.828-2.539 19.675.809 47.256 13.664 52.433 24.209z" transform="translate(472.389 -314.292)"/>
            <path id="Path_324" data-name="Path 324" class="cls-6" d="M819.28 848.35h56.763V746.733l-28.384-40.653-28.379 40.653z" transform="translate(-331.507 -269.912)"/>
            <path id="Rectangle_492" data-name="Rectangle 492" class="cls-5" transform="translate(431.566 476.821)" d="M0 0h56.207v101.617H0z"/>
            <path id="Rectangle_493" data-name="Rectangle 493" class="cls-4" transform="translate(469.248 488.935)" d="M0 0h8.42v11.274H0z"/>
            <path id="Path_325" data-name="Path 325" class="cls-4" d="m911.17 773.058 56.207 3.076v-4.244H911.17z" transform="translate(-479.604 -295.069)"/>
            <path id="Rectangle_494" data-name="Rectangle 494" class="cls-4" transform="translate(469.248 518.654)" d="M0 0h8.42v11.274H0z"/>
            <path id="Rectangle_495" data-name="Rectangle 495" class="cls-4" transform="translate(469.248 548.379)" d="M0 0h8.42v15.863H0z"/>
            <path id="Path_326" data-name="Path 326" class="cls-4" d="M960.726 791.5v11.274H952.3V791.5zm-7.549 10.4h6.672v-9.519h-6.672z" transform="translate(-498.36 -302.565)"/>
            <path id="Rectangle_496" data-name="Rectangle 496" class="cls-4" transform="translate(453.946 518.654)" d="M0 0h8.42v11.274H0z"/>
            <path id="Rectangle_497" data-name="Rectangle 497" class="cls-4" transform="translate(453.94 488.935)" d="M0 0h2.582v11.274H0z"/>
            <path id="Rectangle_498" data-name="Rectangle 498" class="cls-4" transform="translate(453.94 518.654)" d="M0 0h2.582v11.274H0z"/>
            <path id="Path_327" data-name="Path 327" class="cls-4" d="M817.057 706.08h-3.607l28.385 40.653h3.6z" transform="translate(-297.298 -269.912)"/>
            <path id="Path_328" data-name="Path 328" class="cls-4" d="M887.769 706.08h63.416L922.8 746.733h-63.41z" transform="translate(-431.425 -269.912)"/>
            <path id="Path_329" data-name="Path 329" class="cls-4" d="M912.135 739.99h8.426l-6.881 9.853h-8.42z" transform="translate(-429.137 -282.874)"/>
            <path id="Path_330" data-name="Path 330" class="cls-4" d="M936.906 739.99h8.426l-6.881 9.853h-8.42z" transform="translate(-469.208 -282.874)"/>
            <g id="Edit-5" data-name="Edit" transform="translate(501.722 469.47)">
                <path id="Path_331" data-name="Path 331" class="cls-6" d="M686.95 868.958h56.757v-68.309l-28.379-40.659-28.378 40.659z" transform="translate(-619.148 -759.99)"/>
                <path id="Rectangle_499" data-name="Rectangle 499" class="cls-5" transform="translate(3.608 40.659)" d="M0 0h64.195v68.315H0z"/>
                <path id="Path_332" data-name="Path 332" class="cls-4" d="M755.439 759.99h71.4l-28.379 40.659h-71.4z" transform="translate(-727.06 -759.99)"/>
                <path id="Rectangle_500" data-name="Rectangle 500" class="cls-4" transform="translate(104.218 53.496)" d="M0 0h4.757v17.729H0z"/>
                <path id="Rectangle_501" data-name="Rectangle 501" class="cls-4" transform="translate(93.803 53.496)" d="M0 0h4.757v17.729H0z"/>
                <path id="Path_333" data-name="Path 333" class="cls-6" d="m778.83 827.113 64.2 2.52v-3.823h-64.2z" transform="translate(-775.229 -785.151)"/>
                <path id="Rectangle_502" data-name="Rectangle 502" class="cls-6" transform="translate(48.541 53.496)" d="M0 0h9.414v17.729H0z"/>
                <path id="Path_334" data-name="Path 334" class="cls-6" d="M832.564 846.59v17.729h-9.414V846.59zm-8.556 16.858h7.685v-15.987h-7.685z" transform="translate(-792.14 -793.095)"/>
                <path id="Path_335" data-name="Path 335" class="cls-6" d="M860.934 846.59v17.729h-9.414V846.59zm-8.534 16.858h7.66v-15.987h-7.66z" transform="translate(-838.035 -793.095)"/>
                <path id="Path_336" data-name="Path 336" class="cls-4" d="M684.721 759.99h-3.6l28.379 40.659h3.6z" transform="translate(-584.939 -759.99)"/>
            </g>
            <path id="Path_337" data-name="Path 337" class="cls-4" d="M400.061 882.927c11.823.618 16.741-7.617 27.86-10.088 14.029-3.12 22.615 4.034 35.711 2.057 17.661-2.662 23.956-10.4 46.812-10.347 26.427.068 49.239 23.863 74.128 25.71 23.622 1.748 36.446-7.055 56.924-6.437 24.827.772 44.2 18.223 70.217 17.822 19.508-.309 28.064-5.516 47.133-1.279 24.833 5.516 25.253 22.634 48.263 25.413 14.887 1.8 26.766-4.534 47.151.2 8.475 1.971 22.634 13.226 38.917 9.68 15.264-3.33 25.271 7.734 29.565 15.641h-79.6c-38.713 0-44.526-9.569-72.787-17.914-20.107-5.93-40.894-3.169-61.063-2.724-30.084.667-46.731-14.826-78.65-14.826h-70.3c-44.477 0-60.538-22.732-106.936-22.732H360.26c7.919-10.021 24.14-10.948 39.801-10.176z" transform="translate(-94.654 -330.49)"/>
            <path id="Path_338" data-name="Path 338" class="cls-8" d="M666.142 916.313c9.389.469 16.24 4.268 25.129 5.56 14.826 2.156 25.722-4.225 40.61-2.829 17.784 1.668 24.956 8.648 37.682 9.661 11.3.927 26.173-3.286 33.357-3.484 23-.618 32.74 15.746 45.094 16.679 9.087.679 12.861-2.471 22.621-2.082 7.061.284 17.995 3.781 21.38 9.735-12.453-.507-24.969.618-37.262.9h-2.971c-28.243-.377-44.835-14.826-75.678-14.826h-70.316c-25.883 0-42.129-7.7-60.328-14.121a38.228 38.228 0 0 1 20.682-5.193z" transform="translate(-240.104 -350.26)"/>
            <path id="Path_339" data-name="Path 339" class="cls-4" d="M1262.54 947.229c3.453-10.2 18.8-22.238 33.5-23.116 15.443-.908 30.769 4.719 44.322 5.084 16.259.432 27.99-9.433 44.563-6.795 11.737 1.853 17.778 10.155 30.627 11.082 13.368.964 15.715-2.106 27.52-1.612 12.355.513 29.651 8.685 32.919 15.388z" transform="translate(-1205.27 -352.433)"/>
        </g>
    </g>
</svg>
