<svg id="Layer_1" data-name="Layer 1" xmlns="http://www.w3.org/2000/svg" xmlns:xlink="http://www.w3.org/1999/xlink" viewBox="0 0 183.35 39.19"><defs><style>.cls-1{fill:url(#linear-gradient);}.cls-2{fill:#fff;}</style><linearGradient id="linear-gradient" x1="3.83" y1="35.37" x2="35.37" y2="3.83" gradientUnits="userSpaceOnUse"><stop offset="0" stop-color="#8dc63f"/><stop offset="0.29" stop-color="#68be44"/><stop offset="0.94" stop-color="#09a850"/><stop offset="1" stop-color="#00a651"/></linearGradient></defs><path d="M54.31,11.06l-6,17.15H52l1-3.09h6.83l1,3.09h3.68l-6-17.15ZM54.07,22l2.35-7,2.35,7Z" transform="translate(0.19 -0.04)"/><path d="M73.17,15.62a4.73,4.73,0,0,0-4,1.79V16H66V33.11H69.2V26.76a4.73,4.73,0,0,0,4,1.79,5.52,5.52,0,0,0,4.21-1.86,6.47,6.47,0,0,0,1.77-4.61,6.41,6.41,0,0,0-1.77-4.58A5.57,5.57,0,0,0,73.17,15.62Zm1.84,9a3.54,3.54,0,0,1-4.85,0,3.44,3.44,0,0,1-1-2.5,3.35,3.35,0,0,1,1-2.47,3.49,3.49,0,0,1,4.85,0,3.29,3.29,0,0,1,1,2.47A3.38,3.38,0,0,1,75,24.58Z" transform="translate(0.19 -0.04)"/><path d="M88.47,15.62a4.72,4.72,0,0,0-4,1.79V16H81.34V33.11H84.5V26.76a4.72,4.72,0,0,0,4,1.79,5.52,5.52,0,0,0,4.21-1.86,6.5,6.5,0,0,0,1.76-4.61,6.45,6.45,0,0,0-1.76-4.58A5.57,5.57,0,0,0,88.47,15.62Zm1.83,9a3.25,3.25,0,0,1-2.42,1,3.29,3.29,0,0,1-2.43-1,3.47,3.47,0,0,1-1-2.5,3.39,3.39,0,0,1,1-2.47,3.23,3.23,0,0,1,2.43-1,3.2,3.2,0,0,1,2.42,1,3.29,3.29,0,0,1,1,2.47A3.38,3.38,0,0,1,90.3,24.58Z" transform="translate(0.19 -0.04)"/><path d="M106,17.41a4.81,4.81,0,0,0-4-1.79,5.62,5.62,0,0,0-4.22,1.88A6.52,6.52,0,0,0,96,22.08a6.57,6.57,0,0,0,1.74,4.61A5.57,5.57,0,0,0,102,28.55a4.81,4.81,0,0,0,4-1.79v1.45h3.16V16H106Zm-1,7.17a3.29,3.29,0,0,1-2.43,1,3.25,3.25,0,0,1-2.42-1,3.44,3.44,0,0,1-1-2.5,3.35,3.35,0,0,1,1-2.47,3.2,3.2,0,0,1,2.42-1,3.23,3.23,0,0,1,2.43,1,3.29,3.29,0,0,1,1,2.47A3.38,3.38,0,0,1,105,24.58Z" transform="translate(0.19 -0.04)"/><path d="M115.15,18.07V16H112V28.21h3.16V22.36a2.82,2.82,0,0,1,1.13-2.53,3.72,3.72,0,0,1,2.6-.59V15.72A3.76,3.76,0,0,0,115.15,18.07Z" transform="translate(0.19 -0.04)"/><path d="M123.42,12.53l-3.16,1v10.6c0,3.36,1.59,4.61,5.93,4.12V25.34c-1.81.1-2.77.08-2.77-1.25V19h2.77V16h-2.77Z" transform="translate(0.19 -0.04)"/><path d="M142.21,15.62a4.15,4.15,0,0,0-3.65,1.76,3.64,3.64,0,0,0-3.33-1.76,3.8,3.8,0,0,0-3.41,1.64V16h-3.16V28.21h3.16V21.33c0-1.79.91-2.77,2.3-2.77s2.06.86,2.06,2.33v7.32h3.16V21.33c0-1.79.83-2.77,2.28-2.77,1.3,0,2.06.86,2.06,2.33v7.32h3.16V20.66C146.84,17.6,145,15.62,142.21,15.62Z" transform="translate(0.19 -0.04)"/><path d="M155.38,15.62a6.16,6.16,0,0,0-4.65,1.86,6.35,6.35,0,0,0-1.82,4.6,6.32,6.32,0,0,0,1.84,4.64,6.6,6.6,0,0,0,4.88,1.83A6.09,6.09,0,0,0,161,25.93l-2.55-1.47a3.26,3.26,0,0,1-2.75,1.23c-1.88,0-3-.76-3.45-2.31h9.24a8.61,8.61,0,0,0,.12-1.3,6.43,6.43,0,0,0-1.77-4.6A5.76,5.76,0,0,0,155.38,15.62Zm-3.21,5.31a3.06,3.06,0,0,1,3.21-2.47,3,3,0,0,1,3,2.47Z" transform="translate(0.19 -0.04)"/><path d="M170.59,15.62a4,4,0,0,0-3.65,1.71V16h-3.16V28.21h3.16V21.6c0-2,1.05-3,2.7-3a2.26,2.26,0,0,1,2.42,2.52v7.13h3.16V20.69A5.08,5.08,0,0,0,173.9,17,4.34,4.34,0,0,0,170.59,15.62Z" transform="translate(0.19 -0.04)"/><path d="M183.16,19V16h-2.77V12.53l-3.16,1v10.6c0,3.36,1.6,4.61,5.93,4.12V25.34c-1.81.1-2.77.08-2.77-1.25V19Z" transform="translate(0.19 -0.04)"/><rect class="cls-1" width="39.19" height="39.19" rx="13.06"/><path class="cls-2" d="M19.41,7.88,10,17.28V31.39h4.7V19.24h0l4.71-4.7,4.7,4.71V22h-4.7v4.7h9.4v-9.4Z" transform="translate(0.19 -0.04)"/></svg>